<svg width="542" height="1016" viewBox="0 0 542 1016" fill="none" xmlns="http://www.w3.org/2000/svg">
<g id="Group 30">
<g id="Group 2">
<g id="iPhone-X-Mockup">
<g id="phone">
<g id="body" filter="url(#filter0_d_0_4910)">
<path fill-rule="evenodd" clip-rule="evenodd" d="M79.552 1.13892H462.018C498.699 1.13892 528.435 29.6096 528.435 64.73V935.27C528.435 970.39 498.699 998.861 462.018 998.861H79.552C42.8713 998.861 13.1357 970.39 13.1357 935.27V64.73C13.1357 29.6096 42.8713 1.13892 79.552 1.13892Z" fill="#213648"/>
</g>
<g id="frame">
<g id="reflect-frame-top" opacity="0.595562" filter="url(#filter1_d_0_4910)">
<path fill-rule="evenodd" clip-rule="evenodd" d="M463.497 0H77.8451C59.8401 1.09791 43.2348 9.31387 28.0293 24.6479C37.8082 16.1118 55.2497 4.68913 78.3093 4.68913C78.3093 4.68913 447.66 4.68913 463.033 4.68913C486.093 4.68913 503.534 16.1118 513.313 24.6479C498.108 9.31387 481.502 1.09791 463.497 0Z" fill="url(#paint0_linear_0_4910)" fill-opacity="0.65" shape-rendering="crispEdges"/>
</g>
<g id="reflect-frame-right" opacity="0.75" filter="url(#filter2_d_0_4910)">
<path fill-rule="evenodd" clip-rule="evenodd" d="M517.999 925.342V69.9636C517.999 47.013 509.564 38.5289 504.532 33.081C499.5 27.6331 499.286 24.8545 506.516 28.9677C513.746 33.081 528.207 45.0611 528.207 69.9636V925.342C528.207 950.244 513.746 962.224 506.516 966.338C499.286 970.451 499.5 967.672 504.532 962.224C509.564 956.776 517.999 948.292 517.999 925.342Z" fill="url(#paint1_linear_0_4910)" shape-rendering="crispEdges"/>
</g>
<g id="reflect-frame-left" opacity="0.75" filter="url(#filter3_d_0_4910)">
<path fill-rule="evenodd" clip-rule="evenodd" d="M23.3439 925.342V69.9636C23.3439 47.013 31.7788 38.5289 36.8106 33.081C41.8425 27.6331 42.0566 24.8545 34.8268 28.9677C27.5969 33.081 13.136 45.0611 13.136 69.9636V925.342C13.136 950.244 27.5969 962.224 34.8268 966.338C42.0566 970.451 41.8425 967.672 36.8106 962.224C31.7788 956.776 23.3439 948.292 23.3439 925.342Z" fill="url(#paint2_linear_0_4910)" shape-rendering="crispEdges"/>
</g>
</g>
<g id="controls">
<g id="vol+" filter="url(#filter4_d_0_4910)">
<path fill-rule="evenodd" clip-rule="evenodd" d="M8 207.113C8 204.904 9.79086 203.113 12 203.113H13.9291C16.1382 203.113 17.9291 204.904 17.9291 207.113V327.815C17.9291 330.024 16.1382 331.815 13.9291 331.815H12C9.79086 331.815 8 330.024 8 327.815V207.113Z" fill="#2E423C"/>
</g>
<g id="power" filter="url(#filter5_d_0_4910)">
<path fill-rule="evenodd" clip-rule="evenodd" d="M523.071 312.087C523.071 309.878 524.862 308.087 527.071 308.087H529C531.209 308.087 533 309.878 533 312.087V397.987C533 400.196 531.209 401.987 529 401.987H527.071C524.862 401.987 523.071 400.196 523.071 397.987V312.087Z" fill="#2E423C"/>
</g>
</g>
</g>
<g id="Screen" clip-path="url(#clip0_0_4910)">
<g id="Screen Mask" filter="url(#filter6_d_0_4910)">
<path fill-rule="evenodd" clip-rule="evenodd" d="M225.352 24.8889L76.5396 24.8889C54.3307 24.8889 38.1484 40.0155 38.1484 59.7717V904.551C38.1484 930.311 63.153 953.135 91.4268 953.135H450.093C477.328 953.135 503.371 930.134 503.371 904.551V62.0553C503.371 38.376 485.792 25.0297 464.98 24.8889L313.808 24.8889C313.235 24.9828 302.851 29.2524 298.462 40.0155C294.073 50.7786 285.242 59.3586 275.573 59.3586H264.343C259.747 59.3586 247.647 54.8992 241.521 40.0155C235.394 25.1318 225.925 24.9828 225.352 24.8889Z" fill="white"/>
</g>
<mask id="mask0_0_4910" style="mask-type:luminance" maskUnits="userSpaceOnUse" x="38" y="24" width="466" height="930">
<path id="Screen Mask_2" fill-rule="evenodd" clip-rule="evenodd" d="M225.352 24.8889L76.5396 24.8889C54.3307 24.8889 38.1484 40.0155 38.1484 59.7717V904.551C38.1484 930.311 63.153 953.135 91.4268 953.135H450.093C477.328 953.135 503.371 930.134 503.371 904.551V62.0553C503.371 38.376 485.792 25.0297 464.98 24.8889L313.808 24.8889C313.235 24.9828 302.851 29.2524 298.462 40.0155C294.073 50.7786 285.242 59.3586 275.573 59.3586H264.343C259.747 59.3586 247.647 54.8992 241.521 40.0155C235.394 25.1318 225.925 24.9828 225.352 24.8889Z" fill="white"/>
</mask>
<g mask="url(#mask0_0_4910)">
<g id="Rectangle" filter="url(#filter7_d_0_4910)">
<path d="M38 24.8889H504V954.889H38V24.8889Z" fill="url(#paint3_linear_0_4910)"/>
</g>
<g id="12:49" filter="url(#filter8_d_0_4910)">
<path id="Vector" d="M332.87 282.704C329.99 282.704 327.302 282.149 324.806 281.04C322.31 279.931 320.273 278.373 318.694 276.368C317.116 274.341 316.23 271.973 316.038 269.264H324.934C325.318 271.056 326.172 272.517 327.494 273.648C328.817 274.757 330.481 275.312 332.486 275.312C334.705 275.312 336.646 274.789 338.31 273.744C339.996 272.699 341.254 271.035 342.086 268.752C342.94 266.469 343.238 263.483 342.982 259.792C342.385 260.923 341.553 261.915 340.486 262.768C339.441 263.6 338.214 264.251 336.806 264.72C335.398 265.168 333.83 265.392 332.102 265.392C328.966 265.392 326.182 264.805 323.75 263.632C321.34 262.437 319.441 260.752 318.054 258.576C316.689 256.379 316.006 253.776 316.006 250.768C316.006 247.739 316.732 245.04 318.182 242.672C319.633 240.304 321.66 238.448 324.262 237.104C326.865 235.76 329.916 235.088 333.414 235.088C337.34 235.088 340.721 236.027 343.558 237.904C346.417 239.76 348.604 242.405 350.118 245.84C351.654 249.253 352.422 253.275 352.422 257.904C352.422 263.429 351.633 268.037 350.054 271.728C348.497 275.397 346.257 278.149 343.334 279.984C340.412 281.797 336.924 282.704 332.87 282.704ZM333.702 257.968C335.004 257.968 336.262 257.68 337.478 257.104C338.716 256.507 339.729 255.76 340.518 254.864C341.308 253.968 341.702 253.04 341.702 252.08C341.724 250.011 341.393 248.24 340.71 246.768C340.049 245.275 339.11 244.133 337.894 243.344C336.7 242.555 335.302 242.16 333.702 242.16C332.23 242.16 330.918 242.501 329.766 243.184C328.614 243.867 327.708 244.827 327.046 246.064C326.385 247.301 326.054 248.731 326.054 250.352C326.054 252.763 326.758 254.64 328.166 255.984C329.574 257.307 331.42 257.968 333.702 257.968Z" fill="white"/>
<path id="Vector_2" d="M294.902 235.728H304.086V263.92H311.222V271.76H304.086V282H295.094L295.126 271.76H273.814V264.08L294.902 235.728ZM282.454 263.92H295.126V246.96L282.454 263.92Z" fill="white"/>
<path id="Vector_3" d="M267.408 249.712V259.728H257.168V249.712H267.408ZM267.408 271.824V281.808H257.168V271.824H267.408Z" fill="white"/>
<path id="Vector_4" d="M216.991 282V277.392V275.024C216.991 272.677 217.428 270.651 218.303 268.944C219.178 267.216 220.33 265.723 221.759 264.464C223.21 263.184 224.788 262.064 226.495 261.104C228.223 260.144 229.951 259.237 231.679 258.384C233.407 257.531 234.986 256.677 236.415 255.824C237.866 254.949 239.028 253.979 239.903 252.912C240.778 251.845 241.215 250.587 241.215 249.136C241.215 247.28 240.564 245.765 239.263 244.592C237.983 243.419 236.223 242.832 233.983 242.832C231.658 242.832 229.684 243.504 228.063 244.848C226.442 246.192 225.439 248.219 225.055 250.928H216.127C216.17 247.984 216.852 245.317 218.175 242.928C219.519 240.517 221.524 238.608 224.191 237.2C226.858 235.792 230.207 235.088 234.239 235.088C237.695 235.088 240.671 235.675 243.167 236.848C245.684 238.021 247.626 239.653 248.991 241.744C250.356 243.835 251.039 246.277 251.039 249.072C251.039 251.397 250.612 253.403 249.759 255.088C248.906 256.773 247.775 258.213 246.367 259.408C244.959 260.603 243.412 261.648 241.727 262.544C240.042 263.44 238.356 264.272 236.671 265.04C235.007 265.808 233.471 266.597 232.063 267.408C230.655 268.197 229.524 269.093 228.671 270.096C227.818 271.099 227.391 272.304 227.391 273.712V274.128H250.975V282H216.991Z" fill="white"/>
<path id="Vector_5" d="M197.008 282V247.344H188.752V242.064C191.397 242.064 193.531 241.818 195.152 241.328C196.795 240.816 198.021 240.09 198.832 239.152C199.643 238.192 200.123 237.05 200.272 235.728H206.48V282H197.008Z" fill="white"/>
</g>
</g>
</g>
</g>
</g>
<g id="Group 29" clip-path="url(#clip1_0_4910)">
<g id="Rectangle_2" filter="url(#filter9_d_0_4910)">
<path d="M52 344C52 338.477 56.4772 334 62 334H478C483.523 334 488 338.477 488 344V498C488 503.523 483.523 508 478 508H62C56.4772 508 52 503.523 52 498V344Z" fill="#FBFCFE"/>
</g>
<g id="Group 28" clip-path="url(#clip2_0_4910)">
<g id="PayAPI" filter="url(#filter10_d_0_4910)">
<path id="Vector_6" d="M147.104 371.54H150.014V386H147.104V371.54Z" fill="#BA4270"/>
<path id="Vector_7" d="M134.058 386V371.54H139.378C140.431 371.54 141.374 371.723 142.208 372.09C143.041 372.45 143.698 372.983 144.178 373.69C144.664 374.397 144.908 375.26 144.908 376.28C144.908 377.24 144.694 378.06 144.268 378.74C143.841 379.42 143.241 379.94 142.468 380.3C141.701 380.66 140.798 380.84 139.758 380.84H136.998V386H134.058ZM136.968 378.58H139.678C140.411 378.58 141.011 378.347 141.478 377.88C141.944 377.407 142.178 376.823 142.178 376.13C142.178 375.41 141.931 374.84 141.438 374.42C140.944 373.993 140.344 373.78 139.638 373.78H136.968V378.58Z" fill="#BA4270"/>
<path id="Vector_8" d="M118.457 386L123.637 371.54H126.717L131.887 386H128.977L127.797 382.65H122.597L121.387 386H118.457ZM123.247 380.1H127.097L125.187 374.36L123.247 380.1Z" fill="#BA4270"/>
<path id="Vector_9" d="M110.727 389.3C110.021 389.3 109.521 389.24 109.227 389.12C108.941 389.007 108.797 388.95 108.797 388.95V387.09L109.817 387.13C110.264 387.157 110.624 387.133 110.897 387.06C111.171 386.993 111.377 386.903 111.517 386.79C111.664 386.677 111.767 386.557 111.827 386.43C111.887 386.31 111.931 386.213 111.957 386.14L112.147 385.57L108.127 375.66H111.017L113.497 382.4L116.007 375.66H118.857L114.667 386.06C114.307 386.94 113.927 387.613 113.527 388.08C113.127 388.547 112.694 388.867 112.227 389.04C111.767 389.213 111.267 389.3 110.727 389.3Z" fill="#BA4270"/>
<path id="Vector_10" d="M101.024 386.2C100.364 386.2 99.7704 386.077 99.2437 385.83C98.717 385.583 98.3004 385.227 97.9937 384.76C97.687 384.287 97.5337 383.713 97.5337 383.04C97.5337 381.907 97.957 381.047 98.8037 380.46C99.6504 379.867 100.987 379.56 102.814 379.54L104.104 379.52V378.9C104.104 378.427 103.964 378.063 103.684 377.81C103.41 377.55 102.984 377.423 102.404 377.43C101.977 377.437 101.57 377.537 101.184 377.73C100.804 377.923 100.544 378.26 100.404 378.74H97.9737C98.0137 377.993 98.2304 377.38 98.6237 376.9C99.017 376.413 99.5504 376.053 100.224 375.82C100.904 375.58 101.674 375.46 102.534 375.46C103.594 375.46 104.444 375.593 105.084 375.86C105.724 376.12 106.187 376.497 106.474 376.99C106.76 377.477 106.904 378.057 106.904 378.73V386H104.464L104.224 384.22C103.87 384.967 103.427 385.483 102.894 385.77C102.367 386.057 101.744 386.2 101.024 386.2ZM102.004 384.28C102.27 384.28 102.527 384.233 102.774 384.14C103.027 384.04 103.25 383.91 103.444 383.75C103.644 383.583 103.804 383.397 103.924 383.19C104.044 382.983 104.104 382.77 104.104 382.55V381.02L103.054 381.04C102.567 381.047 102.114 381.107 101.694 381.22C101.274 381.327 100.934 381.503 100.674 381.75C100.42 381.997 100.294 382.33 100.294 382.75C100.294 383.23 100.46 383.607 100.794 383.88C101.127 384.147 101.53 384.28 102.004 384.28Z" fill="#BA4270"/>
<path id="Vector_11" d="M85.6201 386V371.54H90.9401C91.9935 371.54 92.9368 371.723 93.7701 372.09C94.6035 372.45 95.2601 372.983 95.7401 373.69C96.2268 374.397 96.4701 375.26 96.4701 376.28C96.4701 377.24 96.2568 378.06 95.8301 378.74C95.4035 379.42 94.8035 379.94 94.0301 380.3C93.2635 380.66 92.3601 380.84 91.3201 380.84H88.5601V386H85.6201ZM88.5301 378.58H91.2401C91.9735 378.58 92.5735 378.347 93.0401 377.88C93.5068 377.407 93.7401 376.823 93.7401 376.13C93.7401 375.41 93.4935 374.84 93.0001 374.42C92.5068 373.993 91.9068 373.78 91.2001 373.78H88.5301V378.58Z" fill="#BA4270"/>
</g>
<g id="Just Now" filter="url(#filter11_d_0_4910)">
<path id="Vector_12" opacity="0.5" d="M455.666 375.66L452.536 386H450.716L448.356 378.37L446.116 386H444.306L441.116 375.66H442.826L445.196 383.61H445.356L447.686 375.66H449.086L451.506 383.59H451.666L453.936 375.66H455.666Z" fill="#36536B"/>
<path id="Vector_13" opacity="0.5" d="M435.317 386.2C434.364 386.2 433.53 385.997 432.817 385.59C432.104 385.177 431.55 384.573 431.157 383.78C430.764 382.987 430.567 382.017 430.567 380.87C430.567 379.79 430.75 378.843 431.117 378.03C431.484 377.217 432.02 376.587 432.727 376.14C433.44 375.687 434.304 375.46 435.317 375.46C436.27 375.46 437.097 375.67 437.797 376.09C438.504 376.503 439.05 377.113 439.437 377.92C439.824 378.727 440.017 379.71 440.017 380.87C440.017 381.923 439.837 382.85 439.477 383.65C439.124 384.45 438.597 385.077 437.897 385.53C437.204 385.977 436.344 386.2 435.317 386.2ZM435.317 384.74C435.937 384.74 436.46 384.583 436.887 384.27C437.314 383.957 437.637 383.507 437.857 382.92C438.077 382.333 438.187 381.637 438.187 380.83C438.187 380.09 438.09 379.427 437.897 378.84C437.704 378.247 437.394 377.777 436.967 377.43C436.547 377.083 435.997 376.91 435.317 376.91C434.69 376.91 434.16 377.067 433.727 377.38C433.294 377.687 432.964 378.133 432.737 378.72C432.517 379.307 432.407 380.01 432.407 380.83C432.407 381.557 432.507 382.217 432.707 382.81C432.907 383.403 433.22 383.873 433.647 384.22C434.074 384.567 434.63 384.74 435.317 384.74Z" fill="#36536B"/>
<path id="Vector_14" opacity="0.5" d="M426.056 371.54H427.906V386H426.256L418.496 374.6V386H416.646V371.54H418.416L426.056 382.78V371.54Z" fill="#36536B"/>
<path id="Vector_15" opacity="0.5" d="M408.999 377.01H406.669V383.44C406.669 383.807 406.706 384.077 406.779 384.25C406.859 384.417 406.989 384.523 407.169 384.57C407.356 384.617 407.609 384.64 407.929 384.64H409.059V385.88C408.933 385.927 408.739 385.967 408.479 386C408.226 386.033 407.909 386.05 407.529 386.05C406.816 386.05 406.263 385.953 405.869 385.76C405.476 385.567 405.199 385.28 405.039 384.9C404.886 384.52 404.809 384.053 404.809 383.5V377.01H403.129V375.66H404.859L405.309 372.65H406.669V375.65H408.999V377.01Z" fill="#36536B"/>
<path id="Vector_16" opacity="0.5" d="M397.396 386.2C396.676 386.2 396.006 386.09 395.386 385.87C394.773 385.643 394.263 385.293 393.856 384.82C393.45 384.34 393.193 383.73 393.086 382.99H394.766C394.86 383.397 395.026 383.737 395.266 384.01C395.513 384.277 395.82 384.48 396.186 384.62C396.553 384.753 396.953 384.82 397.386 384.82C398.08 384.82 398.64 384.69 399.066 384.43C399.493 384.17 399.706 383.77 399.706 383.23C399.706 382.85 399.593 382.547 399.366 382.32C399.146 382.087 398.803 381.917 398.336 381.81L396.196 381.28C395.363 381.08 394.696 380.767 394.196 380.34C393.696 379.913 393.446 379.317 393.446 378.55C393.44 377.943 393.583 377.41 393.876 376.95C394.17 376.49 394.61 376.127 395.196 375.86C395.783 375.593 396.513 375.46 397.386 375.46C398.506 375.46 399.41 375.713 400.096 376.22C400.79 376.72 401.15 377.457 401.176 378.43H399.546C399.48 377.937 399.256 377.547 398.876 377.26C398.503 376.967 398 376.82 397.366 376.82C396.706 376.82 396.17 376.953 395.756 377.22C395.343 377.48 395.136 377.887 395.136 378.44C395.136 378.807 395.283 379.097 395.576 379.31C395.87 379.517 396.303 379.69 396.876 379.83L398.946 380.35C399.426 380.477 399.82 380.643 400.126 380.85C400.44 381.057 400.686 381.287 400.866 381.54C401.053 381.793 401.183 382.06 401.256 382.34C401.336 382.613 401.376 382.877 401.376 383.13C401.376 383.763 401.216 384.31 400.896 384.77C400.583 385.223 400.13 385.577 399.536 385.83C398.95 386.077 398.236 386.2 397.396 386.2Z" fill="#36536B"/>
<path id="Vector_17" opacity="0.5" d="M386.081 386.2C385.541 386.193 385.031 386.117 384.551 385.97C384.078 385.817 383.658 385.593 383.291 385.3C382.924 385.007 382.634 384.643 382.421 384.21C382.214 383.77 382.111 383.26 382.111 382.68V375.66H383.961V382.49C383.961 383.163 384.168 383.71 384.581 384.13C385.001 384.55 385.631 384.76 386.471 384.76C387.231 384.76 387.841 384.563 388.301 384.17C388.768 383.77 389.001 383.177 389.001 382.39V375.66H390.841V386H389.371L389.181 384.02C389.054 384.54 388.838 384.96 388.531 385.28C388.231 385.6 387.868 385.837 387.441 385.99C387.021 386.137 386.568 386.207 386.081 386.2Z" fill="#36536B"/>
<path id="Vector_18" opacity="0.5" d="M379.218 382.59C379.218 383.357 379.131 384.01 378.958 384.55C378.784 385.09 378.474 385.5 378.028 385.78C377.588 386.06 376.961 386.2 376.148 386.2C375.634 386.2 375.151 386.14 374.698 386.02C374.251 385.9 373.954 385.81 373.808 385.75L373.938 383.98C374.144 384.053 374.381 384.147 374.648 384.26C374.921 384.367 375.258 384.42 375.658 384.42C376.311 384.42 376.758 384.24 376.998 383.88C377.244 383.52 377.368 382.913 377.368 382.06V371.54H379.218V382.59Z" fill="#36536B"/>
</g>
</g>
<g id="The payment has been" filter="url(#filter12_d_0_4910)">
<path id="Vector_19" d="M295.979 474V471.64H298.179V474H295.979Z" fill="#36536B"/>
<path id="Vector_20" d="M288.448 459.34C290.168 459.34 291.525 459.983 292.518 461.27C293.511 462.55 294.008 464.393 294.008 466.8C294.008 469.193 293.518 471.03 292.538 472.31C291.558 473.583 290.195 474.22 288.448 474.22C286.695 474.22 285.325 473.583 284.338 472.31C283.358 471.037 282.868 469.203 282.868 466.81C282.868 465.21 283.095 463.853 283.548 462.74C284.001 461.627 284.645 460.783 285.478 460.21C286.311 459.63 287.301 459.34 288.448 459.34ZM288.448 471.83C289.308 471.83 289.938 471.447 290.338 470.68C290.738 469.907 290.938 468.617 290.938 466.81C290.938 464.963 290.735 463.64 290.328 462.84C289.921 462.04 289.291 461.64 288.438 461.64C287.585 461.64 286.948 462.043 286.528 462.85C286.115 463.657 285.908 464.977 285.908 466.81C285.908 468.61 286.115 469.897 286.528 470.67C286.941 471.443 287.581 471.83 288.448 471.83Z" fill="#36536B"/>
<path id="Vector_21" d="M275.053 474.22C274.153 474.22 273.313 474.047 272.533 473.7C271.753 473.353 271.117 472.867 270.623 472.24C270.13 471.607 269.853 470.867 269.793 470.02H272.573C272.693 470.58 272.96 471.037 273.373 471.39C273.787 471.737 274.307 471.91 274.933 471.91C275.627 471.91 276.233 471.747 276.753 471.42C277.28 471.093 277.673 470.573 277.933 469.86C278.2 469.147 278.293 468.213 278.213 467.06C278.027 467.413 277.767 467.723 277.433 467.99C277.107 468.25 276.723 468.453 276.283 468.6C275.843 468.74 275.353 468.81 274.813 468.81C273.833 468.81 272.963 468.627 272.203 468.26C271.45 467.887 270.857 467.36 270.423 466.68C269.997 465.993 269.783 465.18 269.783 464.24C269.783 463.293 270.01 462.45 270.463 461.71C270.917 460.97 271.55 460.39 272.363 459.97C273.177 459.55 274.13 459.34 275.223 459.34C276.45 459.34 277.507 459.633 278.393 460.22C279.287 460.8 279.97 461.627 280.443 462.7C280.923 463.767 281.163 465.023 281.163 466.47C281.163 468.197 280.917 469.637 280.423 470.79C279.937 471.937 279.237 472.797 278.323 473.37C277.41 473.937 276.32 474.22 275.053 474.22ZM275.313 466.49C275.72 466.49 276.113 466.4 276.493 466.22C276.88 466.033 277.197 465.8 277.443 465.52C277.69 465.24 277.813 464.95 277.813 464.65C277.82 464.003 277.717 463.45 277.503 462.99C277.297 462.523 277.003 462.167 276.623 461.92C276.25 461.673 275.813 461.55 275.313 461.55C274.853 461.55 274.443 461.657 274.083 461.87C273.723 462.083 273.44 462.383 273.233 462.77C273.027 463.157 272.923 463.603 272.923 464.11C272.923 464.863 273.143 465.45 273.583 465.87C274.023 466.283 274.6 466.49 275.313 466.49Z" fill="#36536B"/>
<path id="Vector_22" d="M264.462 474V470.82H267.662V474H264.462Z" fill="#36536B"/>
<path id="Vector_23" d="M257.798 459.54H260.668V468.35H262.898V470.8H260.668V474H257.858L257.868 470.8H251.208V468.4L257.798 459.54ZM253.908 468.35H257.868V463.05L253.908 468.35Z" fill="#36536B"/>
<path id="Vector_24" d="M243.995 459.34C245.715 459.34 247.072 459.983 248.065 461.27C249.058 462.55 249.555 464.393 249.555 466.8C249.555 469.193 249.065 471.03 248.085 472.31C247.105 473.583 245.742 474.22 243.995 474.22C242.242 474.22 240.872 473.583 239.885 472.31C238.905 471.037 238.415 469.203 238.415 466.81C238.415 465.21 238.642 463.853 239.095 462.74C239.548 461.627 240.192 460.783 241.025 460.21C241.858 459.63 242.848 459.34 243.995 459.34ZM243.995 471.83C244.855 471.83 245.485 471.447 245.885 470.68C246.285 469.907 246.485 468.617 246.485 466.81C246.485 464.963 246.282 463.64 245.875 462.84C245.468 462.04 244.838 461.64 243.985 461.64C243.132 461.64 242.495 462.043 242.075 462.85C241.662 463.657 241.455 464.977 241.455 466.81C241.455 468.61 241.662 469.897 242.075 470.67C242.488 471.443 243.128 471.83 243.995 471.83Z" fill="#36536B"/>
<path id="Vector_25" d="M232.42 474V463.17H229.84V461.52C230.667 461.52 231.334 461.443 231.84 461.29C232.354 461.13 232.737 460.903 232.99 460.61C233.244 460.31 233.394 459.953 233.44 459.54H235.38V474H232.42Z" fill="#36536B"/>
<path id="Vector_26" d="M222.437 474.2C220.704 474.2 219.297 473.853 218.217 473.16C217.137 472.46 216.517 471.383 216.357 469.93L219.397 469.87C219.557 470.53 219.9 471.033 220.427 471.38C220.96 471.72 221.627 471.89 222.427 471.89C222.907 471.89 223.33 471.813 223.697 471.66C224.07 471.5 224.364 471.287 224.577 471.02C224.79 470.747 224.897 470.437 224.897 470.09C224.897 469.557 224.727 469.16 224.387 468.9C224.047 468.633 223.524 468.42 222.817 468.26L220.447 467.75C219.347 467.53 218.464 467.093 217.797 466.44C217.137 465.78 216.8 464.897 216.787 463.79C216.78 462.883 217.024 462.1 217.517 461.44C218.017 460.773 218.694 460.26 219.547 459.9C220.407 459.54 221.37 459.36 222.437 459.36C223.53 459.36 224.474 459.557 225.267 459.95C226.067 460.337 226.68 460.86 227.107 461.52C227.54 462.173 227.75 462.897 227.737 463.69L224.787 463.74C224.694 463.1 224.48 462.597 224.147 462.23C223.814 461.863 223.26 461.68 222.487 461.68C222.087 461.68 221.73 461.723 221.417 461.81C221.104 461.897 220.834 462.02 220.607 462.18C220.38 462.333 220.207 462.517 220.087 462.73C219.974 462.943 219.917 463.183 219.917 463.45C219.917 463.87 220.057 464.203 220.337 464.45C220.624 464.69 221.16 464.913 221.947 465.12L224.277 465.69C225.59 466.003 226.537 466.54 227.117 467.3C227.704 468.06 227.997 468.983 227.997 470.07C227.997 470.903 227.767 471.63 227.307 472.25C226.854 472.87 226.21 473.35 225.377 473.69C224.544 474.03 223.564 474.2 222.437 474.2ZM221.187 457.47H223.717V460.07H221.187V457.47ZM221.137 473.31H223.657V475.91H221.137V473.31Z" fill="#36536B"/>
<path id="Vector_27" d="M204.312 474.2C203.598 474.2 202.898 474.11 202.212 473.93C201.525 473.75 200.898 473.48 200.332 473.12C199.765 472.76 199.295 472.31 198.922 471.77C198.555 471.23 198.335 470.597 198.262 469.87H201.252C201.352 470.31 201.542 470.68 201.822 470.98C202.102 471.28 202.455 471.51 202.882 471.67C203.308 471.83 203.782 471.91 204.302 471.91C204.835 471.91 205.322 471.843 205.762 471.71C206.202 471.577 206.555 471.377 206.822 471.11C207.088 470.837 207.222 470.497 207.222 470.09C207.222 469.723 207.112 469.423 206.892 469.19C206.678 468.957 206.388 468.767 206.022 468.62C205.655 468.473 205.238 468.353 204.772 468.26L202.272 467.75C201.178 467.543 200.312 467.11 199.672 466.45C199.032 465.783 198.702 464.897 198.682 463.79C198.675 462.883 198.915 462.1 199.402 461.44C199.895 460.773 200.562 460.26 201.402 459.9C202.248 459.54 203.195 459.36 204.242 459.36C205.488 459.36 206.535 459.557 207.382 459.95C208.235 460.337 208.882 460.863 209.322 461.53C209.768 462.19 209.998 462.927 210.012 463.74H207.082C207.028 463.233 206.875 462.83 206.622 462.53C206.368 462.23 206.042 462.013 205.642 461.88C205.248 461.747 204.798 461.68 204.292 461.68C203.905 461.68 203.552 461.723 203.232 461.81C202.918 461.897 202.652 462.02 202.432 462.18C202.212 462.333 202.042 462.517 201.922 462.73C201.802 462.943 201.742 463.183 201.742 463.45C201.742 463.87 201.882 464.21 202.162 464.47C202.442 464.73 202.965 464.943 203.732 465.11L206.212 465.62C207.098 465.793 207.802 466.05 208.322 466.39C208.848 466.73 209.242 467.113 209.502 467.54C209.768 467.967 209.942 468.403 210.022 468.85C210.108 469.29 210.152 469.697 210.152 470.07C210.152 470.85 209.905 471.553 209.412 472.18C208.925 472.8 208.245 473.293 207.372 473.66C206.498 474.02 205.478 474.2 204.312 474.2Z" fill="#36536B"/>
<path id="Vector_28" d="M195.979 468.49C195.979 469.656 195.789 470.67 195.409 471.53C195.029 472.383 194.413 473.043 193.559 473.51C192.713 473.97 191.589 474.2 190.189 474.2C188.783 474.2 187.656 473.966 186.809 473.5C185.963 473.026 185.349 472.356 184.969 471.49C184.596 470.623 184.409 469.59 184.409 468.39V459.54H187.379V468.61C187.379 469.69 187.639 470.48 188.159 470.98C188.679 471.473 189.356 471.72 190.189 471.72C190.743 471.72 191.233 471.613 191.659 471.4C192.086 471.18 192.419 470.843 192.659 470.39C192.906 469.93 193.029 469.336 193.029 468.61V459.54H195.979V468.49Z" fill="#36536B"/>
<path id="Vector_29" d="M173.517 474.2C172.797 474.2 172.127 474.09 171.507 473.87C170.893 473.643 170.383 473.293 169.977 472.82C169.57 472.34 169.313 471.73 169.207 470.99H170.887C170.98 471.397 171.147 471.737 171.387 472.01C171.633 472.277 171.94 472.48 172.307 472.62C172.673 472.753 173.073 472.82 173.507 472.82C174.2 472.82 174.76 472.69 175.187 472.43C175.613 472.17 175.827 471.77 175.827 471.23C175.827 470.85 175.713 470.547 175.487 470.32C175.267 470.087 174.923 469.917 174.457 469.81L172.317 469.28C171.483 469.08 170.817 468.767 170.317 468.34C169.817 467.913 169.567 467.317 169.567 466.55C169.56 465.943 169.703 465.41 169.997 464.95C170.29 464.49 170.73 464.127 171.317 463.86C171.903 463.593 172.633 463.46 173.507 463.46C174.627 463.46 175.53 463.713 176.217 464.22C176.91 464.72 177.27 465.457 177.297 466.43H175.667C175.6 465.937 175.377 465.547 174.997 465.26C174.623 464.967 174.12 464.82 173.487 464.82C172.827 464.82 172.29 464.953 171.877 465.22C171.463 465.48 171.257 465.887 171.257 466.44C171.257 466.807 171.403 467.097 171.697 467.31C171.99 467.517 172.423 467.69 172.997 467.83L175.067 468.35C175.547 468.477 175.94 468.643 176.247 468.85C176.56 469.057 176.807 469.287 176.987 469.54C177.173 469.793 177.303 470.06 177.377 470.34C177.457 470.613 177.497 470.877 177.497 471.13C177.497 471.763 177.337 472.31 177.017 472.77C176.703 473.223 176.25 473.577 175.657 473.83C175.07 474.077 174.357 474.2 173.517 474.2Z" fill="#36536B"/>
<path id="Vector_30" d="M166.593 463.66V474H164.803V463.66H166.593ZM166.633 459.55V461.47H164.743V459.55H166.633Z" fill="#36536B"/>
<path id="Vector_31" d="M157.326 465.01H154.996V471.44C154.996 471.807 155.033 472.077 155.106 472.25C155.186 472.417 155.316 472.523 155.496 472.57C155.683 472.617 155.936 472.64 156.256 472.64H157.386V473.88C157.259 473.927 157.066 473.967 156.806 474C156.553 474.033 156.236 474.05 155.856 474.05C155.143 474.05 154.589 473.953 154.196 473.76C153.803 473.567 153.526 473.28 153.366 472.9C153.213 472.52 153.136 472.053 153.136 471.5V465.01H151.456V463.66H153.186L153.636 460.65H154.996V463.65H157.326V465.01Z" fill="#36536B"/>
<path id="Vector_32" d="M141.018 474V463.66H142.808V465.16C142.975 464.873 143.205 464.603 143.498 464.35C143.798 464.097 144.158 463.893 144.578 463.74C145.005 463.587 145.495 463.51 146.048 463.51C146.701 463.51 147.301 463.64 147.848 463.9C148.401 464.16 148.841 464.567 149.168 465.12C149.501 465.667 149.668 466.373 149.668 467.24V474H147.818V467.42C147.818 466.613 147.605 466.017 147.178 465.63C146.758 465.237 146.211 465.04 145.538 465.04C145.071 465.04 144.635 465.117 144.228 465.27C143.821 465.417 143.491 465.643 143.238 465.95C142.985 466.25 142.858 466.63 142.858 467.09V474H141.018Z" fill="#36536B"/>
<path id="Vector_33" d="M133.256 474.2C132.716 474.193 132.206 474.117 131.726 473.97C131.252 473.817 130.832 473.593 130.466 473.3C130.099 473.007 129.809 472.643 129.596 472.21C129.389 471.77 129.286 471.26 129.286 470.68V463.66H131.136V470.49C131.136 471.163 131.342 471.71 131.756 472.13C132.176 472.55 132.806 472.76 133.646 472.76C134.406 472.76 135.016 472.563 135.476 472.17C135.942 471.77 136.176 471.177 136.176 470.39V463.66H138.016V474H136.546L136.356 472.02C136.229 472.54 136.012 472.96 135.706 473.28C135.406 473.6 135.042 473.837 134.616 473.99C134.196 474.137 133.742 474.207 133.256 474.2Z" fill="#36536B"/>
<path id="Vector_34" d="M122.492 474.2C121.538 474.2 120.705 473.997 119.992 473.59C119.278 473.177 118.725 472.573 118.332 471.78C117.938 470.987 117.742 470.017 117.742 468.87C117.742 467.79 117.925 466.843 118.292 466.03C118.658 465.217 119.195 464.587 119.902 464.14C120.615 463.687 121.478 463.46 122.492 463.46C123.445 463.46 124.272 463.67 124.972 464.09C125.678 464.503 126.225 465.113 126.612 465.92C126.998 466.727 127.192 467.71 127.192 468.87C127.192 469.923 127.012 470.85 126.652 471.65C126.298 472.45 125.772 473.077 125.072 473.53C124.378 473.977 123.518 474.2 122.492 474.2ZM122.492 472.74C123.112 472.74 123.635 472.583 124.062 472.27C124.488 471.957 124.812 471.507 125.032 470.92C125.252 470.333 125.362 469.637 125.362 468.83C125.362 468.09 125.265 467.427 125.072 466.84C124.878 466.247 124.568 465.777 124.142 465.43C123.722 465.083 123.172 464.91 122.492 464.91C121.865 464.91 121.335 465.067 120.902 465.38C120.468 465.687 120.138 466.133 119.912 466.72C119.692 467.307 119.582 468.01 119.582 468.83C119.582 469.557 119.682 470.217 119.882 470.81C120.082 471.403 120.395 471.873 120.822 472.22C121.248 472.567 121.805 472.74 122.492 472.74Z" fill="#36536B"/>
<path id="Vector_35" d="M111.72 463.46C112.46 463.46 113.127 463.603 113.72 463.89C114.314 464.17 114.797 464.57 115.17 465.09C115.55 465.61 115.787 466.223 115.88 466.93H114.24C114.18 466.57 114.04 466.24 113.82 465.94C113.607 465.64 113.324 465.4 112.97 465.22C112.617 465.04 112.204 464.95 111.73 464.95C110.844 464.95 110.124 465.27 109.57 465.91C109.017 466.55 108.74 467.53 108.74 468.85C108.74 470.043 108.994 471 109.5 471.72C110.014 472.433 110.767 472.79 111.76 472.79C112.234 472.79 112.644 472.7 112.99 472.52C113.344 472.333 113.627 472.09 113.84 471.79C114.054 471.483 114.19 471.157 114.25 470.81H115.86C115.774 471.503 115.54 472.103 115.16 472.61C114.78 473.117 114.294 473.51 113.7 473.79C113.114 474.063 112.454 474.2 111.72 474.2C110.794 474.2 109.97 473.997 109.25 473.59C108.537 473.183 107.977 472.583 107.57 471.79C107.164 470.997 106.96 470.023 106.96 468.87C106.96 467.79 107.144 466.847 107.51 466.04C107.884 465.227 108.424 464.593 109.13 464.14C109.844 463.687 110.707 463.46 111.72 463.46Z" fill="#36536B"/>
<path id="Vector_36" d="M100.939 463.46C101.679 463.46 102.346 463.603 102.939 463.89C103.533 464.17 104.016 464.57 104.389 465.09C104.769 465.61 105.006 466.223 105.099 466.93H103.459C103.399 466.57 103.259 466.24 103.039 465.94C102.826 465.64 102.543 465.4 102.189 465.22C101.836 465.04 101.423 464.95 100.949 464.95C100.063 464.95 99.3425 465.27 98.7892 465.91C98.2359 466.55 97.9592 467.53 97.9592 468.85C97.9592 470.043 98.2125 471 98.7192 471.72C99.2325 472.433 99.9859 472.79 100.979 472.79C101.453 472.79 101.863 472.7 102.209 472.52C102.563 472.333 102.846 472.09 103.059 471.79C103.273 471.483 103.409 471.157 103.469 470.81H105.079C104.993 471.503 104.759 472.103 104.379 472.61C103.999 473.117 103.513 473.51 102.919 473.79C102.333 474.063 101.673 474.2 100.939 474.2C100.013 474.2 99.1892 473.997 98.4692 473.59C97.7559 473.183 97.1959 472.583 96.7892 471.79C96.3825 470.997 96.1792 470.023 96.1792 468.87C96.1792 467.79 96.3625 466.847 96.7292 466.04C97.1025 465.227 97.6425 464.593 98.3492 464.14C99.0625 463.687 99.9259 463.46 100.939 463.46Z" fill="#36536B"/>
<path id="Vector_37" d="M88.39 474.2C87.7233 474.2 87.1333 474.083 86.62 473.85C86.1066 473.61 85.7033 473.267 85.41 472.82C85.1233 472.373 84.98 471.833 84.98 471.2C84.98 470.053 85.38 469.2 86.18 468.64C86.98 468.08 88.2633 467.78 90.03 467.74L91.88 467.69V466.88C91.88 466.247 91.69 465.747 91.31 465.38C90.93 465.007 90.34 464.82 89.54 464.82C88.9466 464.827 88.4233 464.967 87.97 465.24C87.5233 465.513 87.2333 465.96 87.1 466.58H85.47C85.51 465.907 85.7 465.34 86.04 464.88C86.38 464.413 86.8533 464.06 87.46 463.82C88.0733 463.58 88.7966 463.46 89.63 463.46C90.53 463.46 91.2766 463.587 91.87 463.84C92.47 464.093 92.9166 464.467 93.21 464.96C93.51 465.453 93.66 466.06 93.66 466.78V474H92.08L91.95 472.06C91.55 472.867 91.04 473.427 90.42 473.74C89.8066 474.047 89.13 474.2 88.39 474.2ZM88.95 472.87C89.2966 472.87 89.64 472.807 89.98 472.68C90.3266 472.553 90.6433 472.383 90.93 472.17C91.2166 471.95 91.4433 471.707 91.61 471.44C91.7833 471.167 91.8733 470.887 91.88 470.6V468.83L90.34 468.86C89.5533 468.873 88.8933 468.953 88.36 469.1C87.8333 469.247 87.4366 469.477 87.17 469.79C86.91 470.103 86.78 470.513 86.78 471.02C86.78 471.6 86.98 472.053 87.38 472.38C87.7866 472.707 88.31 472.87 88.95 472.87Z" fill="#36536B"/>
<path id="Vector_38" d="M382.444 446V435.66H384.204V437.65C384.377 437.157 384.621 436.75 384.934 436.43C385.247 436.103 385.604 435.86 386.004 435.7C386.411 435.54 386.831 435.46 387.264 435.46C387.417 435.46 387.567 435.47 387.714 435.49C387.861 435.51 387.974 435.543 388.054 435.59V437.38C387.954 437.333 387.824 437.303 387.664 437.29C387.511 437.27 387.381 437.26 387.274 437.26C386.861 437.233 386.474 437.26 386.114 437.34C385.754 437.413 385.437 437.543 385.164 437.73C384.891 437.917 384.674 438.163 384.514 438.47C384.361 438.77 384.284 439.137 384.284 439.57V446H382.444Z" fill="#36536B"/>
<path id="Vector_39" d="M374.681 446.2C374.141 446.193 373.631 446.117 373.151 445.97C372.678 445.817 372.258 445.593 371.891 445.3C371.525 445.007 371.235 444.643 371.021 444.21C370.815 443.77 370.711 443.26 370.711 442.68V435.66H372.561V442.49C372.561 443.163 372.768 443.71 373.181 444.13C373.601 444.55 374.231 444.76 375.071 444.76C375.831 444.76 376.441 444.563 376.901 444.17C377.368 443.77 377.601 443.177 377.601 442.39V435.66H379.441V446H377.971L377.781 444.02C377.655 444.54 377.438 444.96 377.131 445.28C376.831 445.6 376.468 445.837 376.041 445.99C375.621 446.137 375.168 446.207 374.681 446.2Z" fill="#36536B"/>
<path id="Vector_40" d="M363.917 446.2C362.964 446.2 362.131 445.997 361.417 445.59C360.704 445.177 360.151 444.573 359.757 443.78C359.364 442.987 359.167 442.017 359.167 440.87C359.167 439.79 359.351 438.843 359.717 438.03C360.084 437.217 360.621 436.587 361.327 436.14C362.041 435.687 362.904 435.46 363.917 435.46C364.871 435.46 365.697 435.67 366.397 436.09C367.104 436.503 367.651 437.113 368.037 437.92C368.424 438.727 368.617 439.71 368.617 440.87C368.617 441.923 368.437 442.85 368.077 443.65C367.724 444.45 367.197 445.077 366.497 445.53C365.804 445.977 364.944 446.2 363.917 446.2ZM363.917 444.74C364.537 444.74 365.061 444.583 365.487 444.27C365.914 443.957 366.237 443.507 366.457 442.92C366.677 442.333 366.787 441.637 366.787 440.83C366.787 440.09 366.691 439.427 366.497 438.84C366.304 438.247 365.994 437.777 365.567 437.43C365.147 437.083 364.597 436.91 363.917 436.91C363.291 436.91 362.761 437.067 362.327 437.38C361.894 437.687 361.564 438.133 361.337 438.72C361.117 439.307 361.007 440.01 361.007 440.83C361.007 441.557 361.107 442.217 361.307 442.81C361.507 443.403 361.821 443.873 362.247 444.22C362.674 444.567 363.231 444.74 363.917 444.74Z" fill="#36536B"/>
<path id="Vector_41" d="M350.534 449.3C349.928 449.3 349.511 449.257 349.284 449.17C349.058 449.083 348.944 449.04 348.944 449.04V447.84L349.994 447.86C350.381 447.873 350.701 447.847 350.954 447.78C351.208 447.713 351.411 447.623 351.564 447.51C351.718 447.397 351.834 447.27 351.914 447.13C352.001 446.99 352.071 446.857 352.124 446.73L352.484 445.75L348.444 435.66H350.314L353.364 443.64L356.394 435.66H358.204L353.844 446.78C353.578 447.433 353.278 447.943 352.944 448.31C352.618 448.677 352.251 448.933 351.844 449.08C351.444 449.227 351.008 449.3 350.534 449.3Z" fill="#36536B"/>
<path id="Vector_42" d="M327.717 446V435.66H329.497V437.16C329.784 436.707 330.177 436.31 330.677 435.97C331.177 435.63 331.827 435.46 332.627 435.46C333.001 435.46 333.381 435.523 333.767 435.65C334.161 435.777 334.521 435.967 334.847 436.22C335.174 436.473 335.427 436.783 335.607 437.15C335.927 436.643 336.361 436.237 336.907 435.93C337.454 435.617 338.071 435.46 338.757 435.46C339.117 435.46 339.494 435.517 339.887 435.63C340.281 435.737 340.644 435.93 340.977 436.21C341.317 436.483 341.594 436.867 341.807 437.36C342.021 437.847 342.127 438.473 342.127 439.24V446H340.267V439.42C340.267 438.793 340.167 438.31 339.967 437.97C339.767 437.623 339.504 437.38 339.177 437.24C338.857 437.1 338.514 437.03 338.147 437.03C337.827 437.03 337.487 437.093 337.127 437.22C336.767 437.347 336.461 437.56 336.207 437.86C335.954 438.16 335.827 438.57 335.827 439.09V446H333.987V438.88C333.987 438.473 333.877 438.133 333.657 437.86C333.444 437.587 333.174 437.38 332.847 437.24C332.527 437.1 332.207 437.03 331.887 437.03C331.534 437.03 331.177 437.1 330.817 437.24C330.464 437.38 330.164 437.603 329.917 437.91C329.677 438.21 329.557 438.603 329.557 439.09V446H327.717Z" fill="#36536B"/>
<path id="Vector_43" d="M320.597 446.2C319.644 446.2 318.811 445.997 318.097 445.59C317.384 445.177 316.83 444.573 316.437 443.78C316.044 442.987 315.847 442.017 315.847 440.87C315.847 439.79 316.031 438.843 316.397 438.03C316.764 437.217 317.301 436.587 318.007 436.14C318.721 435.687 319.584 435.46 320.597 435.46C321.551 435.46 322.377 435.67 323.077 436.09C323.784 436.503 324.33 437.113 324.717 437.92C325.104 438.727 325.297 439.71 325.297 440.87C325.297 441.923 325.117 442.85 324.757 443.65C324.404 444.45 323.877 445.077 323.177 445.53C322.484 445.977 321.624 446.2 320.597 446.2ZM320.597 444.74C321.217 444.74 321.741 444.583 322.167 444.27C322.594 443.957 322.917 443.507 323.137 442.92C323.357 442.333 323.467 441.637 323.467 440.83C323.467 440.09 323.371 439.427 323.177 438.84C322.984 438.247 322.674 437.777 322.247 437.43C321.827 437.083 321.277 436.91 320.597 436.91C319.971 436.91 319.441 437.067 319.007 437.38C318.574 437.687 318.244 438.133 318.017 438.72C317.797 439.307 317.687 440.01 317.687 440.83C317.687 441.557 317.787 442.217 317.987 442.81C318.187 443.403 318.501 443.873 318.927 444.22C319.354 444.567 319.911 444.74 320.597 444.74Z" fill="#36536B"/>
<path id="Vector_44" d="M308.948 446V435.66H310.708V437.65C310.881 437.157 311.124 436.75 311.438 436.43C311.751 436.103 312.108 435.86 312.508 435.7C312.914 435.54 313.334 435.46 313.768 435.46C313.921 435.46 314.071 435.47 314.218 435.49C314.364 435.51 314.478 435.543 314.558 435.59V437.38C314.458 437.333 314.328 437.303 314.168 437.29C314.014 437.27 313.884 437.26 313.778 437.26C313.364 437.233 312.978 437.26 312.618 437.34C312.258 437.413 311.941 437.543 311.668 437.73C311.394 437.917 311.178 438.163 311.018 438.47C310.864 438.77 310.788 439.137 310.788 439.57V446H308.948Z" fill="#36536B"/>
<path id="Vector_45" d="M306.663 435.66V437.01H304.153V446H302.293V437.01H300.113V435.66H302.293V434.06C302.293 433.24 302.503 432.616 302.923 432.19C303.343 431.756 303.969 431.54 304.803 431.54H306.753L306.763 432.85H305.213C304.793 432.85 304.506 432.963 304.353 433.19C304.199 433.416 304.123 433.76 304.123 434.22V435.66H306.663Z" fill="#36536B"/>
<path id="Vector_46" d="M288.049 446.2C286.709 446.2 285.646 445.74 284.859 444.82C284.073 443.9 283.679 442.557 283.679 440.79C283.679 439.717 283.836 438.78 284.149 437.98C284.469 437.18 284.943 436.56 285.569 436.12C286.196 435.68 286.976 435.46 287.909 435.46C288.403 435.46 288.839 435.523 289.219 435.65C289.606 435.777 289.939 435.937 290.219 436.13C290.499 436.323 290.726 436.523 290.899 436.73C291.079 436.937 291.213 437.127 291.299 437.3V431.14H293.159V446H291.749L291.549 443.88C291.483 444.08 291.376 444.313 291.229 444.58C291.083 444.84 290.876 445.097 290.609 445.35C290.343 445.597 289.999 445.8 289.579 445.96C289.166 446.12 288.656 446.2 288.049 446.2ZM288.379 444.78C289.426 444.78 290.173 444.463 290.619 443.83C291.073 443.19 291.299 442.147 291.299 440.7C291.293 439.893 291.189 439.207 290.989 438.64C290.796 438.073 290.489 437.643 290.069 437.35C289.656 437.05 289.106 436.9 288.419 436.9C287.566 436.9 286.873 437.203 286.339 437.81C285.806 438.417 285.539 439.38 285.539 440.7C285.539 441.993 285.779 442.997 286.259 443.71C286.746 444.423 287.453 444.78 288.379 444.78Z" fill="#36536B"/>
<path id="Vector_47" d="M274.37 441.26C274.37 441.913 274.476 442.507 274.69 443.04C274.91 443.567 275.24 443.987 275.68 444.3C276.126 444.613 276.683 444.77 277.35 444.77C278.01 444.77 278.576 444.617 279.05 444.31C279.53 444.003 279.836 443.56 279.97 442.98H281.72C281.593 443.68 281.313 444.27 280.88 444.75C280.446 445.23 279.923 445.593 279.31 445.84C278.696 446.08 278.056 446.2 277.39 446.2C276.423 446.2 275.573 445.99 274.84 445.57C274.106 445.15 273.533 444.547 273.12 443.76C272.706 442.973 272.5 442.03 272.5 440.93C272.5 439.843 272.686 438.89 273.06 438.07C273.433 437.25 273.973 436.61 274.68 436.15C275.393 435.69 276.25 435.46 277.25 435.46C278.223 435.46 279.046 435.67 279.72 436.09C280.393 436.51 280.903 437.103 281.25 437.87C281.603 438.63 281.78 439.533 281.78 440.58V441.26H274.37ZM274.38 440.01H280C280 439.417 279.9 438.883 279.7 438.41C279.5 437.93 279.193 437.553 278.78 437.28C278.373 437 277.86 436.86 277.24 436.86C276.593 436.86 276.056 437.017 275.63 437.33C275.21 437.637 274.893 438.033 274.68 438.52C274.473 439 274.373 439.497 274.38 440.01Z" fill="#36536B"/>
<path id="Vector_48" d="M270.666 437.01H268.336V443.44C268.336 443.807 268.373 444.077 268.446 444.25C268.526 444.417 268.656 444.523 268.836 444.57C269.023 444.617 269.276 444.64 269.596 444.64H270.726V445.88C270.599 445.927 270.406 445.967 270.146 446C269.893 446.033 269.576 446.05 269.196 446.05C268.483 446.05 267.929 445.953 267.536 445.76C267.143 445.567 266.866 445.28 266.706 444.9C266.553 444.52 266.476 444.053 266.476 443.5V437.01H264.796V435.66H266.526L266.976 432.65H268.336V435.65H270.666V437.01Z" fill="#36536B"/>
<path id="Vector_49" d="M259.084 435.46C259.824 435.46 260.49 435.603 261.084 435.89C261.677 436.17 262.16 436.57 262.534 437.09C262.914 437.61 263.15 438.223 263.244 438.93H261.604C261.544 438.57 261.404 438.24 261.184 437.94C260.97 437.64 260.687 437.4 260.334 437.22C259.98 437.04 259.567 436.95 259.094 436.95C258.207 436.95 257.487 437.27 256.934 437.91C256.38 438.55 256.104 439.53 256.104 440.85C256.104 442.043 256.357 443 256.864 443.72C257.377 444.433 258.13 444.79 259.124 444.79C259.597 444.79 260.007 444.7 260.354 444.52C260.707 444.333 260.99 444.09 261.204 443.79C261.417 443.483 261.554 443.157 261.614 442.81H263.224C263.137 443.503 262.904 444.103 262.524 444.61C262.144 445.117 261.657 445.51 261.064 445.79C260.477 446.063 259.817 446.2 259.084 446.2C258.157 446.2 257.334 445.997 256.614 445.59C255.9 445.183 255.34 444.583 254.934 443.79C254.527 442.997 254.324 442.023 254.324 440.87C254.324 439.79 254.507 438.847 254.874 438.04C255.247 437.227 255.787 436.593 256.494 436.14C257.207 435.687 258.07 435.46 259.084 435.46Z" fill="#36536B"/>
<path id="Vector_50" d="M247.318 446.2C246.778 446.193 246.268 446.117 245.788 445.97C245.315 445.817 244.895 445.593 244.528 445.3C244.161 445.007 243.871 444.643 243.658 444.21C243.451 443.77 243.348 443.26 243.348 442.68V435.66H245.198V442.49C245.198 443.163 245.405 443.71 245.818 444.13C246.238 444.55 246.868 444.76 247.708 444.76C248.468 444.76 249.078 444.563 249.538 444.17C250.005 443.77 250.238 443.177 250.238 442.39V435.66H252.078V446H250.608L250.418 444.02C250.291 444.54 250.075 444.96 249.768 445.28C249.468 445.6 249.105 445.837 248.678 445.99C248.258 446.137 247.805 446.207 247.318 446.2Z" fill="#36536B"/>
<path id="Vector_51" d="M235.354 446.2C234.014 446.2 232.951 445.74 232.164 444.82C231.377 443.9 230.984 442.557 230.984 440.79C230.984 439.717 231.141 438.78 231.454 437.98C231.774 437.18 232.247 436.56 232.874 436.12C233.501 435.68 234.281 435.46 235.214 435.46C235.707 435.46 236.144 435.523 236.524 435.65C236.911 435.777 237.244 435.937 237.524 436.13C237.804 436.323 238.031 436.523 238.204 436.73C238.384 436.937 238.517 437.127 238.604 437.3V431.14H240.464V446H239.054L238.854 443.88C238.787 444.08 238.681 444.313 238.534 444.58C238.387 444.84 238.181 445.097 237.914 445.35C237.647 445.597 237.304 445.8 236.884 445.96C236.471 446.12 235.961 446.2 235.354 446.2ZM235.684 444.78C236.731 444.78 237.477 444.463 237.924 443.83C238.377 443.19 238.604 442.147 238.604 440.7C238.597 439.893 238.494 439.207 238.294 438.64C238.101 438.073 237.794 437.643 237.374 437.35C236.961 437.05 236.411 436.9 235.724 436.9C234.871 436.9 234.177 437.203 233.644 437.81C233.111 438.417 232.844 439.38 232.844 440.7C232.844 441.993 233.084 442.997 233.564 443.71C234.051 444.423 234.757 444.78 235.684 444.78Z" fill="#36536B"/>
<path id="Vector_52" d="M221.674 441.26C221.674 441.913 221.781 442.507 221.994 443.04C222.214 443.567 222.544 443.987 222.984 444.3C223.431 444.613 223.988 444.77 224.654 444.77C225.314 444.77 225.881 444.617 226.354 444.31C226.834 444.003 227.141 443.56 227.274 442.98H229.024C228.898 443.68 228.618 444.27 228.184 444.75C227.751 445.23 227.228 445.593 226.614 445.84C226.001 446.08 225.361 446.2 224.694 446.2C223.728 446.2 222.878 445.99 222.144 445.57C221.411 445.15 220.838 444.547 220.424 443.76C220.011 442.973 219.804 442.03 219.804 440.93C219.804 439.843 219.991 438.89 220.364 438.07C220.738 437.25 221.278 436.61 221.984 436.15C222.698 435.69 223.554 435.46 224.554 435.46C225.528 435.46 226.351 435.67 227.024 436.09C227.698 436.51 228.208 437.103 228.554 437.87C228.908 438.63 229.084 439.533 229.084 440.58V441.26H221.674ZM221.684 440.01H227.304C227.304 439.417 227.204 438.883 227.004 438.41C226.804 437.93 226.498 437.553 226.084 437.28C225.678 437 225.164 436.86 224.544 436.86C223.898 436.86 223.361 437.017 222.934 437.33C222.514 437.637 222.198 438.033 221.984 438.52C221.778 439 221.678 439.497 221.684 440.01Z" fill="#36536B"/>
<path id="Vector_53" d="M212.19 446.2C210.85 446.2 209.786 445.74 209 444.82C208.213 443.9 207.82 442.557 207.82 440.79C207.82 439.717 207.976 438.78 208.29 437.98C208.61 437.18 209.083 436.56 209.71 436.12C210.336 435.68 211.116 435.46 212.05 435.46C212.543 435.46 212.98 435.523 213.36 435.65C213.746 435.777 214.08 435.937 214.36 436.13C214.64 436.323 214.866 436.523 215.04 436.73C215.22 436.937 215.353 437.127 215.44 437.3V431.14H217.3V446H215.89L215.69 443.88C215.623 444.08 215.516 444.313 215.37 444.58C215.223 444.84 215.016 445.097 214.75 445.35C214.483 445.597 214.14 445.8 213.72 445.96C213.306 446.12 212.796 446.2 212.19 446.2ZM212.52 444.78C213.566 444.78 214.313 444.463 214.76 443.83C215.213 443.19 215.44 442.147 215.44 440.7C215.433 439.893 215.33 439.207 215.13 438.64C214.936 438.073 214.63 437.643 214.21 437.35C213.796 437.05 213.246 436.9 212.56 436.9C211.706 436.9 211.013 437.203 210.48 437.81C209.946 438.417 209.68 439.38 209.68 440.7C209.68 441.993 209.92 442.997 210.4 443.71C210.886 444.423 211.593 444.78 212.52 444.78Z" fill="#36536B"/>
<path id="Vector_54" d="M201.447 437.01H199.117V443.44C199.117 443.807 199.154 444.077 199.227 444.25C199.307 444.417 199.437 444.523 199.617 444.57C199.804 444.617 200.057 444.64 200.377 444.64H201.507V445.88C201.38 445.927 201.187 445.967 200.927 446C200.674 446.033 200.357 446.05 199.977 446.05C199.264 446.05 198.71 445.953 198.317 445.76C197.924 445.567 197.647 445.28 197.487 444.9C197.334 444.52 197.257 444.053 197.257 443.5V437.01H195.577V435.66H197.307L197.757 432.65H199.117V435.65H201.447V437.01Z" fill="#36536B"/>
<path id="Vector_55" d="M185.139 446V435.66H186.929V437.16C187.096 436.873 187.326 436.603 187.619 436.35C187.919 436.096 188.279 435.893 188.699 435.74C189.126 435.586 189.616 435.51 190.169 435.51C190.822 435.51 191.422 435.64 191.969 435.9C192.522 436.16 192.962 436.566 193.289 437.12C193.622 437.666 193.789 438.373 193.789 439.24V446H191.939V439.42C191.939 438.613 191.726 438.016 191.299 437.63C190.879 437.236 190.332 437.04 189.659 437.04C189.192 437.04 188.756 437.116 188.349 437.27C187.942 437.416 187.612 437.643 187.359 437.95C187.106 438.25 186.979 438.63 186.979 439.09V446H185.139Z" fill="#36536B"/>
<path id="Vector_56" d="M177.377 446.2C176.837 446.193 176.327 446.117 175.847 445.97C175.373 445.817 174.953 445.593 174.587 445.3C174.22 445.007 173.93 444.643 173.717 444.21C173.51 443.77 173.407 443.26 173.407 442.68V435.66H175.257V442.49C175.257 443.163 175.463 443.71 175.877 444.13C176.297 444.55 176.927 444.76 177.767 444.76C178.527 444.76 179.137 444.563 179.597 444.17C180.063 443.77 180.297 443.177 180.297 442.39V435.66H182.137V446H180.667L180.477 444.02C180.35 444.54 180.133 444.96 179.827 445.28C179.527 445.6 179.163 445.837 178.737 445.99C178.317 446.137 177.863 446.207 177.377 446.2Z" fill="#36536B"/>
<path id="Vector_57" d="M166.613 446.2C165.659 446.2 164.826 445.997 164.113 445.59C163.399 445.177 162.846 444.573 162.453 443.78C162.059 442.987 161.863 442.017 161.863 440.87C161.863 439.79 162.046 438.843 162.413 438.03C162.779 437.217 163.316 436.587 164.023 436.14C164.736 435.687 165.599 435.46 166.613 435.46C167.566 435.46 168.393 435.67 169.093 436.09C169.799 436.503 170.346 437.113 170.733 437.92C171.119 438.727 171.313 439.71 171.313 440.87C171.313 441.923 171.133 442.85 170.773 443.65C170.419 444.45 169.893 445.077 169.193 445.53C168.499 445.977 167.639 446.2 166.613 446.2ZM166.613 444.74C167.233 444.74 167.756 444.583 168.183 444.27C168.609 443.957 168.933 443.507 169.153 442.92C169.373 442.333 169.483 441.637 169.483 440.83C169.483 440.09 169.386 439.427 169.193 438.84C168.999 438.247 168.689 437.777 168.263 437.43C167.843 437.083 167.293 436.91 166.613 436.91C165.986 436.91 165.456 437.067 165.023 437.38C164.589 437.687 164.259 438.133 164.033 438.72C163.813 439.307 163.703 440.01 163.703 440.83C163.703 441.557 163.803 442.217 164.003 442.81C164.203 443.403 164.516 443.873 164.943 444.22C165.369 444.567 165.926 444.74 166.613 444.74Z" fill="#36536B"/>
<path id="Vector_58" d="M145.198 446V435.66H146.978V437.16C147.264 436.707 147.658 436.31 148.158 435.97C148.658 435.63 149.308 435.46 150.108 435.46C150.481 435.46 150.861 435.523 151.248 435.65C151.641 435.777 152.001 435.967 152.328 436.22C152.654 436.473 152.908 436.783 153.088 437.15C153.408 436.643 153.841 436.237 154.388 435.93C154.934 435.617 155.551 435.46 156.238 435.46C156.598 435.46 156.974 435.517 157.368 435.63C157.761 435.737 158.124 435.93 158.458 436.21C158.798 436.483 159.074 436.867 159.288 437.36C159.501 437.847 159.608 438.473 159.608 439.24V446H157.748V439.42C157.748 438.793 157.648 438.31 157.448 437.97C157.248 437.623 156.984 437.38 156.658 437.24C156.338 437.1 155.994 437.03 155.628 437.03C155.308 437.03 154.968 437.093 154.608 437.22C154.248 437.347 153.941 437.56 153.688 437.86C153.434 438.16 153.308 438.57 153.308 439.09V446H151.468V438.88C151.468 438.473 151.358 438.133 151.138 437.86C150.924 437.587 150.654 437.38 150.328 437.24C150.008 437.1 149.688 437.03 149.368 437.03C149.014 437.03 148.658 437.1 148.298 437.24C147.944 437.38 147.644 437.603 147.398 437.91C147.158 438.21 147.038 438.603 147.038 439.09V446H145.198Z" fill="#36536B"/>
<path id="Vector_59" d="M136.769 446.2C136.102 446.2 135.512 446.083 134.999 445.85C134.486 445.61 134.082 445.267 133.789 444.82C133.502 444.373 133.359 443.833 133.359 443.2C133.359 442.053 133.759 441.2 134.559 440.64C135.359 440.08 136.642 439.78 138.409 439.74L140.259 439.69V438.88C140.259 438.247 140.069 437.747 139.689 437.38C139.309 437.007 138.719 436.82 137.919 436.82C137.326 436.827 136.802 436.967 136.349 437.24C135.902 437.513 135.612 437.96 135.479 438.58H133.849C133.889 437.907 134.079 437.34 134.419 436.88C134.759 436.413 135.232 436.06 135.839 435.82C136.452 435.58 137.176 435.46 138.009 435.46C138.909 435.46 139.656 435.587 140.249 435.84C140.849 436.093 141.296 436.467 141.589 436.96C141.889 437.453 142.039 438.06 142.039 438.78V446H140.459L140.329 444.06C139.929 444.867 139.419 445.427 138.799 445.74C138.186 446.047 137.509 446.2 136.769 446.2ZM137.329 444.87C137.676 444.87 138.019 444.807 138.359 444.68C138.706 444.553 139.022 444.383 139.309 444.17C139.596 443.95 139.822 443.707 139.989 443.44C140.162 443.167 140.252 442.887 140.259 442.6V440.83L138.719 440.86C137.932 440.873 137.272 440.953 136.739 441.1C136.212 441.247 135.816 441.477 135.549 441.79C135.289 442.103 135.159 442.513 135.159 443.02C135.159 443.6 135.359 444.053 135.759 444.38C136.166 444.707 136.689 444.87 137.329 444.87Z" fill="#36536B"/>
<path id="Vector_60" d="M125.952 446.13C125.392 446.13 124.939 446.053 124.592 445.9C124.252 445.747 123.989 445.54 123.802 445.28C123.622 445.02 123.499 444.723 123.432 444.39C123.372 444.05 123.342 443.7 123.342 443.34V431.14H125.162V443.16C125.162 443.68 125.262 444.07 125.462 444.33C125.669 444.59 125.956 444.733 126.322 444.76L126.882 444.77V445.97C126.729 446.017 126.569 446.053 126.402 446.08C126.236 446.113 126.086 446.13 125.952 446.13Z" fill="#36536B"/>
<path id="Vector_61" d="M114.913 446.2C114.247 446.2 113.657 446.083 113.143 445.85C112.63 445.61 112.227 445.267 111.933 444.82C111.647 444.373 111.503 443.833 111.503 443.2C111.503 442.053 111.903 441.2 112.703 440.64C113.503 440.08 114.787 439.78 116.553 439.74L118.403 439.69V438.88C118.403 438.247 118.213 437.747 117.833 437.38C117.453 437.007 116.863 436.82 116.063 436.82C115.47 436.827 114.947 436.967 114.493 437.24C114.047 437.513 113.757 437.96 113.623 438.58H111.993C112.033 437.907 112.223 437.34 112.563 436.88C112.903 436.413 113.377 436.06 113.983 435.82C114.597 435.58 115.32 435.46 116.153 435.46C117.053 435.46 117.8 435.587 118.393 435.84C118.993 436.093 119.44 436.467 119.733 436.96C120.033 437.453 120.183 438.06 120.183 438.78V446H118.603L118.473 444.06C118.073 444.867 117.563 445.427 116.943 445.74C116.33 446.047 115.653 446.2 114.913 446.2ZM115.473 444.87C115.82 444.87 116.163 444.807 116.503 444.68C116.85 444.553 117.167 444.383 117.453 444.17C117.74 443.95 117.967 443.707 118.133 443.44C118.307 443.167 118.397 442.887 118.403 442.6V440.83L116.863 440.86C116.077 440.873 115.417 440.953 114.883 441.1C114.357 441.247 113.96 441.477 113.693 441.79C113.433 442.103 113.303 442.513 113.303 443.02C113.303 443.6 113.503 444.053 113.903 444.38C114.31 444.707 114.833 444.87 115.473 444.87Z" fill="#36536B"/>
<path id="Vector_62" d="M109.455 437.01H107.125V443.44C107.125 443.807 107.162 444.077 107.235 444.25C107.315 444.417 107.445 444.523 107.625 444.57C107.812 444.617 108.065 444.64 108.385 444.64H109.515V445.88C109.388 445.927 109.195 445.967 108.935 446C108.682 446.033 108.365 446.05 107.985 446.05C107.272 446.05 106.718 445.953 106.325 445.76C105.932 445.567 105.655 445.28 105.495 444.9C105.342 444.52 105.265 444.053 105.265 443.5V437.01H103.585V435.66H105.315L105.765 432.65H107.125V435.65H109.455V437.01Z" fill="#36536B"/>
<path id="Vector_63" d="M97.4136 446.2C96.4602 446.2 95.6269 445.997 94.9136 445.59C94.2002 445.177 93.6469 444.573 93.2536 443.78C92.8602 442.987 92.6636 442.017 92.6636 440.87C92.6636 439.79 92.8469 438.843 93.2136 438.03C93.5802 437.217 94.1169 436.587 94.8236 436.14C95.5369 435.687 96.4002 435.46 97.4136 435.46C98.3669 435.46 99.1936 435.67 99.8936 436.09C100.6 436.503 101.147 437.113 101.534 437.92C101.92 438.727 102.114 439.71 102.114 440.87C102.114 441.923 101.934 442.85 101.574 443.65C101.22 444.45 100.694 445.077 99.9936 445.53C99.3002 445.977 98.4402 446.2 97.4136 446.2ZM97.4136 444.74C98.0336 444.74 98.5569 444.583 98.9836 444.27C99.4102 443.957 99.7336 443.507 99.9536 442.92C100.174 442.333 100.284 441.637 100.284 440.83C100.284 440.09 100.187 439.427 99.9936 438.84C99.8002 438.247 99.4902 437.777 99.0636 437.43C98.6436 437.083 98.0936 436.91 97.4136 436.91C96.7869 436.91 96.2569 437.067 95.8236 437.38C95.3902 437.687 95.0602 438.133 94.8336 438.72C94.6136 439.307 94.5036 440.01 94.5036 440.83C94.5036 441.557 94.6036 442.217 94.8036 442.81C95.0036 443.403 95.3169 443.873 95.7436 444.22C96.1702 444.567 96.7269 444.74 97.4136 444.74Z" fill="#36536B"/>
<path id="Vector_64" d="M90.9198 437.01H88.5898V443.44C88.5898 443.807 88.6265 444.077 88.6998 444.25C88.7798 444.417 88.9098 444.523 89.0898 444.57C89.2765 444.617 89.5298 444.64 89.8498 444.64H90.9798V445.88C90.8531 445.927 90.6598 445.967 90.3998 446C90.1465 446.033 89.8298 446.05 89.4498 446.05C88.7365 446.05 88.1831 445.953 87.7898 445.76C87.3965 445.567 87.1198 445.28 86.9598 444.9C86.8065 444.52 86.7298 444.053 86.7298 443.5V437.01H85.0498V435.66H86.7798L87.2298 432.65H88.5898V435.65H90.9198V437.01Z" fill="#36536B"/>
<path id="Vector_65" d="M428.022 413.26C428.022 413.913 428.129 414.507 428.342 415.04C428.562 415.567 428.892 415.987 429.332 416.3C429.779 416.613 430.335 416.77 431.002 416.77C431.662 416.77 432.229 416.617 432.702 416.31C433.182 416.003 433.489 415.56 433.622 414.98H435.372C435.245 415.68 434.965 416.27 434.532 416.75C434.098 417.23 433.575 417.593 432.962 417.84C432.349 418.08 431.709 418.2 431.042 418.2C430.075 418.2 429.225 417.99 428.492 417.57C427.759 417.15 427.185 416.547 426.772 415.76C426.359 414.973 426.152 414.03 426.152 412.93C426.152 411.843 426.339 410.89 426.712 410.07C427.085 409.25 427.625 408.61 428.332 408.15C429.045 407.69 429.902 407.46 430.902 407.46C431.875 407.46 432.699 407.67 433.372 408.09C434.045 408.51 434.555 409.103 434.902 409.87C435.255 410.63 435.432 411.533 435.432 412.58V413.26H428.022ZM428.032 412.01H433.652C433.652 411.417 433.552 410.883 433.352 410.41C433.152 409.93 432.845 409.553 432.432 409.28C432.025 409 431.512 408.86 430.892 408.86C430.245 408.86 429.708 409.017 429.282 409.33C428.862 409.637 428.545 410.033 428.332 410.52C428.125 411 428.025 411.497 428.032 412.01Z" fill="#36536B"/>
<path id="Vector_66" d="M415.178 418V403.14H416.978V409.18C417.152 408.893 417.385 408.627 417.678 408.38C417.972 408.127 418.328 407.923 418.748 407.77C419.168 407.61 419.655 407.53 420.208 407.53C420.882 407.53 421.492 407.657 422.038 407.91C422.585 408.157 423.018 408.51 423.338 408.97C423.658 409.43 423.818 409.977 423.818 410.61V418H421.968V410.98C421.968 410.36 421.755 409.883 421.328 409.55C420.908 409.21 420.358 409.04 419.678 409.04C419.218 409.04 418.785 409.117 418.378 409.27C417.972 409.417 417.642 409.643 417.388 409.95C417.142 410.25 417.018 410.633 417.018 411.1V418H415.178Z" fill="#36536B"/>
<path id="Vector_67" d="M402.233 405.24V403.54H413.173V405.24H408.763V418H406.903V405.24H402.233Z" fill="#36536B"/>
<path id="Vector_68" d="M393.87 418V415.64H396.07V418H393.87Z" fill="#36536B"/>
<path id="Vector_69" d="M386.135 418.2C384.795 418.2 383.732 417.74 382.945 416.82C382.158 415.9 381.765 414.557 381.765 412.79C381.765 411.717 381.922 410.78 382.235 409.98C382.555 409.18 383.028 408.56 383.655 408.12C384.282 407.68 385.062 407.46 385.995 407.46C386.488 407.46 386.925 407.523 387.305 407.65C387.692 407.777 388.025 407.937 388.305 408.13C388.585 408.323 388.812 408.523 388.985 408.73C389.165 408.937 389.298 409.127 389.385 409.3V403.14H391.245V418H389.835L389.635 415.88C389.568 416.08 389.462 416.313 389.315 416.58C389.168 416.84 388.962 417.097 388.695 417.35C388.428 417.597 388.085 417.8 387.665 417.96C387.252 418.12 386.742 418.2 386.135 418.2ZM386.465 416.78C387.512 416.78 388.258 416.463 388.705 415.83C389.158 415.19 389.385 414.147 389.385 412.7C389.378 411.893 389.275 411.207 389.075 410.64C388.882 410.073 388.575 409.643 388.155 409.35C387.742 409.05 387.192 408.9 386.505 408.9C385.652 408.9 384.958 409.203 384.425 409.81C383.892 410.417 383.625 411.38 383.625 412.7C383.625 413.993 383.865 414.997 384.345 415.71C384.832 416.423 385.538 416.78 386.465 416.78Z" fill="#36536B"/>
<path id="Vector_70" d="M372.455 413.26C372.455 413.913 372.562 414.507 372.775 415.04C372.995 415.567 373.325 415.987 373.765 416.3C374.212 416.613 374.769 416.77 375.435 416.77C376.095 416.77 376.662 416.617 377.135 416.31C377.615 416.003 377.922 415.56 378.055 414.98H379.805C379.679 415.68 379.399 416.27 378.965 416.75C378.532 417.23 378.009 417.593 377.395 417.84C376.782 418.08 376.142 418.2 375.475 418.2C374.509 418.2 373.659 417.99 372.925 417.57C372.192 417.15 371.619 416.547 371.205 415.76C370.792 414.973 370.585 414.03 370.585 412.93C370.585 411.843 370.772 410.89 371.145 410.07C371.519 409.25 372.059 408.61 372.765 408.15C373.479 407.69 374.335 407.46 375.335 407.46C376.309 407.46 377.132 407.67 377.805 408.09C378.479 408.51 378.989 409.103 379.335 409.87C379.689 410.63 379.865 411.533 379.865 412.58V413.26H372.455ZM372.465 412.01H378.085C378.085 411.417 377.985 410.883 377.785 410.41C377.585 409.93 377.279 409.553 376.865 409.28C376.459 409 375.945 408.86 375.325 408.86C374.679 408.86 374.142 409.017 373.715 409.33C373.295 409.637 372.979 410.033 372.765 410.52C372.559 411 372.459 411.497 372.465 412.01Z" fill="#36536B"/>
<path id="Vector_71" d="M364.571 418.2C363.851 418.2 363.181 418.09 362.561 417.87C361.948 417.643 361.438 417.293 361.031 416.82C360.625 416.34 360.368 415.73 360.261 414.99H361.941C362.035 415.397 362.201 415.737 362.441 416.01C362.688 416.277 362.995 416.48 363.361 416.62C363.728 416.753 364.128 416.82 364.561 416.82C365.255 416.82 365.815 416.69 366.241 416.43C366.668 416.17 366.881 415.77 366.881 415.23C366.881 414.85 366.768 414.547 366.541 414.32C366.321 414.087 365.978 413.917 365.511 413.81L363.371 413.28C362.538 413.08 361.871 412.767 361.371 412.34C360.871 411.913 360.621 411.317 360.621 410.55C360.615 409.943 360.758 409.41 361.051 408.95C361.345 408.49 361.785 408.127 362.371 407.86C362.958 407.593 363.688 407.46 364.561 407.46C365.681 407.46 366.585 407.713 367.271 408.22C367.965 408.72 368.325 409.457 368.351 410.43H366.721C366.655 409.937 366.431 409.547 366.051 409.26C365.678 408.967 365.175 408.82 364.541 408.82C363.881 408.82 363.345 408.953 362.931 409.22C362.518 409.48 362.311 409.887 362.311 410.44C362.311 410.807 362.458 411.097 362.751 411.31C363.045 411.517 363.478 411.69 364.051 411.83L366.121 412.35C366.601 412.477 366.995 412.643 367.301 412.85C367.615 413.057 367.861 413.287 368.041 413.54C368.228 413.793 368.358 414.06 368.431 414.34C368.511 414.613 368.551 414.877 368.551 415.13C368.551 415.763 368.391 416.31 368.071 416.77C367.758 417.223 367.305 417.577 366.711 417.83C366.125 418.077 365.411 418.2 364.571 418.2Z" fill="#36536B"/>
<path id="Vector_72" d="M354.493 418.2C353.773 418.2 353.103 418.09 352.483 417.87C351.87 417.643 351.36 417.293 350.953 416.82C350.546 416.34 350.29 415.73 350.183 414.99H351.863C351.956 415.397 352.123 415.737 352.363 416.01C352.61 416.277 352.916 416.48 353.283 416.62C353.65 416.753 354.05 416.82 354.483 416.82C355.176 416.82 355.736 416.69 356.163 416.43C356.59 416.17 356.803 415.77 356.803 415.23C356.803 414.85 356.69 414.547 356.463 414.32C356.243 414.087 355.9 413.917 355.433 413.81L353.293 413.28C352.46 413.08 351.793 412.767 351.293 412.34C350.793 411.913 350.543 411.317 350.543 410.55C350.536 409.943 350.68 409.41 350.973 408.95C351.266 408.49 351.706 408.127 352.293 407.86C352.88 407.593 353.61 407.46 354.483 407.46C355.603 407.46 356.506 407.713 357.193 408.22C357.886 408.72 358.246 409.457 358.273 410.43H356.643C356.576 409.937 356.353 409.547 355.973 409.26C355.6 408.967 355.096 408.82 354.463 408.82C353.803 408.82 353.266 408.953 352.853 409.22C352.44 409.48 352.233 409.887 352.233 410.44C352.233 410.807 352.38 411.097 352.673 411.31C352.966 411.517 353.4 411.69 353.973 411.83L356.043 412.35C356.523 412.477 356.916 412.643 357.223 412.85C357.536 413.057 357.783 413.287 357.963 413.54C358.15 413.793 358.28 414.06 358.353 414.34C358.433 414.613 358.473 414.877 358.473 415.13C358.473 415.763 358.313 416.31 357.993 416.77C357.68 417.223 357.226 417.577 356.633 417.83C356.046 418.077 355.333 418.2 354.493 418.2Z" fill="#36536B"/>
<path id="Vector_73" d="M340.932 413.26C340.932 413.913 341.039 414.507 341.252 415.04C341.472 415.567 341.802 415.987 342.242 416.3C342.689 416.613 343.245 416.77 343.912 416.77C344.572 416.77 345.139 416.617 345.612 416.31C346.092 416.003 346.399 415.56 346.532 414.98H348.282C348.155 415.68 347.875 416.27 347.442 416.75C347.009 417.23 346.485 417.593 345.872 417.84C345.259 418.08 344.619 418.2 343.952 418.2C342.985 418.2 342.135 417.99 341.402 417.57C340.669 417.15 340.095 416.547 339.682 415.76C339.269 414.973 339.062 414.03 339.062 412.93C339.062 411.843 339.249 410.89 339.622 410.07C339.995 409.25 340.535 408.61 341.242 408.15C341.955 407.69 342.812 407.46 343.812 407.46C344.785 407.46 345.609 407.67 346.282 408.09C346.955 408.51 347.465 409.103 347.812 409.87C348.165 410.63 348.342 411.533 348.342 412.58V413.26H340.932ZM340.942 412.01H346.562C346.562 411.417 346.462 410.883 346.262 410.41C346.062 409.93 345.755 409.553 345.342 409.28C344.935 409 344.422 408.86 343.802 408.86C343.155 408.86 342.619 409.017 342.192 409.33C341.772 409.637 341.455 410.033 341.242 410.52C341.035 411 340.935 411.497 340.942 412.01Z" fill="#36536B"/>
<path id="Vector_74" d="M332.951 407.46C333.691 407.46 334.358 407.603 334.951 407.89C335.544 408.17 336.028 408.57 336.401 409.09C336.781 409.61 337.018 410.223 337.111 410.93H335.471C335.411 410.57 335.271 410.24 335.051 409.94C334.838 409.64 334.554 409.4 334.201 409.22C333.848 409.04 333.434 408.95 332.961 408.95C332.074 408.95 331.354 409.27 330.801 409.91C330.248 410.55 329.971 411.53 329.971 412.85C329.971 414.043 330.224 415 330.731 415.72C331.244 416.433 331.998 416.79 332.991 416.79C333.464 416.79 333.874 416.7 334.221 416.52C334.574 416.333 334.858 416.09 335.071 415.79C335.284 415.483 335.421 415.157 335.481 414.81H337.091C337.004 415.503 336.771 416.103 336.391 416.61C336.011 417.117 335.524 417.51 334.931 417.79C334.344 418.063 333.684 418.2 332.951 418.2C332.024 418.2 331.201 417.997 330.481 417.59C329.768 417.183 329.208 416.583 328.801 415.79C328.394 414.997 328.191 414.023 328.191 412.87C328.191 411.79 328.374 410.847 328.741 410.04C329.114 409.227 329.654 408.593 330.361 408.14C331.074 407.687 331.938 407.46 332.951 407.46Z" fill="#36536B"/>
<path id="Vector_75" d="M321.71 418.2C320.757 418.2 319.924 417.997 319.21 417.59C318.497 417.177 317.944 416.573 317.55 415.78C317.157 414.987 316.96 414.017 316.96 412.87C316.96 411.79 317.144 410.843 317.51 410.03C317.877 409.217 318.414 408.587 319.12 408.14C319.834 407.687 320.697 407.46 321.71 407.46C322.664 407.46 323.49 407.67 324.19 408.09C324.897 408.503 325.444 409.113 325.83 409.92C326.217 410.727 326.41 411.71 326.41 412.87C326.41 413.923 326.23 414.85 325.87 415.65C325.517 416.45 324.99 417.077 324.29 417.53C323.597 417.977 322.737 418.2 321.71 418.2ZM321.71 416.74C322.33 416.74 322.854 416.583 323.28 416.27C323.707 415.957 324.03 415.507 324.25 414.92C324.47 414.333 324.58 413.637 324.58 412.83C324.58 412.09 324.484 411.427 324.29 410.84C324.097 410.247 323.787 409.777 323.36 409.43C322.94 409.083 322.39 408.91 321.71 408.91C321.084 408.91 320.554 409.067 320.12 409.38C319.687 409.687 319.357 410.133 319.13 410.72C318.91 411.307 318.8 412.01 318.8 412.83C318.8 413.557 318.9 414.217 319.1 414.81C319.3 415.403 319.614 415.873 320.04 416.22C320.467 416.567 321.024 416.74 321.71 416.74Z" fill="#36536B"/>
<path id="Vector_76" d="M310.061 418V407.66H311.821V409.65C311.994 409.157 312.238 408.75 312.551 408.43C312.864 408.103 313.221 407.86 313.621 407.7C314.028 407.54 314.448 407.46 314.881 407.46C315.034 407.46 315.184 407.47 315.331 407.49C315.478 407.51 315.591 407.543 315.671 407.59V409.38C315.571 409.333 315.441 409.303 315.281 409.29C315.128 409.27 314.998 409.26 314.891 409.26C314.478 409.233 314.091 409.26 313.731 409.34C313.371 409.413 313.054 409.543 312.781 409.73C312.508 409.917 312.291 410.163 312.131 410.47C311.978 410.77 311.901 411.137 311.901 411.57V418H310.061Z" fill="#36536B"/>
<path id="Vector_77" d="M298.186 421.22V407.66H300.026L300.046 409.46C300.166 409.247 300.319 409.023 300.506 408.79C300.699 408.557 300.933 408.34 301.206 408.14C301.486 407.94 301.809 407.777 302.176 407.65C302.549 407.523 302.973 407.46 303.446 407.46C304.273 407.46 304.999 407.65 305.626 408.03C306.259 408.403 306.753 408.977 307.106 409.75C307.459 410.523 307.636 411.503 307.636 412.69C307.636 413.877 307.463 414.88 307.116 415.7C306.776 416.513 306.283 417.133 305.636 417.56C304.989 417.987 304.209 418.2 303.296 418.2C302.836 418.2 302.426 418.133 302.066 418C301.713 417.873 301.403 417.707 301.136 417.5C300.876 417.287 300.656 417.06 300.476 416.82C300.303 416.58 300.159 416.35 300.046 416.13V421.22H298.186ZM302.946 416.76C303.799 416.76 304.496 416.437 305.036 415.79C305.576 415.137 305.846 414.123 305.846 412.75C305.846 411.57 305.599 410.633 305.106 409.94C304.613 409.247 303.893 408.9 302.946 408.9C301.986 408.9 301.259 409.257 300.766 409.97C300.273 410.677 300.026 411.603 300.026 412.75C300.026 413.49 300.136 414.163 300.356 414.77C300.576 415.377 300.903 415.86 301.336 416.22C301.769 416.58 302.306 416.76 302.946 416.76Z" fill="#36536B"/>
<path id="Vector_78" d="M282.034 418V407.66H283.824V409.16C283.99 408.873 284.22 408.603 284.514 408.35C284.814 408.097 285.174 407.893 285.594 407.74C286.02 407.587 286.51 407.51 287.064 407.51C287.717 407.51 288.317 407.64 288.864 407.9C289.417 408.16 289.857 408.567 290.184 409.12C290.517 409.667 290.684 410.373 290.684 411.24V418H288.834V411.42C288.834 410.613 288.62 410.017 288.194 409.63C287.774 409.237 287.227 409.04 286.554 409.04C286.087 409.04 285.65 409.117 285.244 409.27C284.837 409.417 284.507 409.643 284.254 409.95C284 410.25 283.874 410.63 283.874 411.09V418H282.034Z" fill="#36536B"/>
<path id="Vector_79" d="M272.084 413.26C272.084 413.913 272.191 414.507 272.404 415.04C272.624 415.567 272.954 415.987 273.394 416.3C273.841 416.613 274.398 416.77 275.064 416.77C275.724 416.77 276.291 416.617 276.764 416.31C277.244 416.003 277.551 415.56 277.684 414.98H279.434C279.308 415.68 279.028 416.27 278.594 416.75C278.161 417.23 277.638 417.593 277.024 417.84C276.411 418.08 275.771 418.2 275.104 418.2C274.138 418.2 273.288 417.99 272.554 417.57C271.821 417.15 271.248 416.547 270.834 415.76C270.421 414.973 270.214 414.03 270.214 412.93C270.214 411.843 270.401 410.89 270.774 410.07C271.148 409.25 271.688 408.61 272.394 408.15C273.108 407.69 273.964 407.46 274.964 407.46C275.938 407.46 276.761 407.67 277.434 408.09C278.108 408.51 278.618 409.103 278.964 409.87C279.318 410.63 279.494 411.533 279.494 412.58V413.26H272.084ZM272.094 412.01H277.714C277.714 411.417 277.614 410.883 277.414 410.41C277.214 409.93 276.908 409.553 276.494 409.28C276.088 409 275.574 408.86 274.954 408.86C274.308 408.86 273.771 409.017 273.344 409.33C272.924 409.637 272.608 410.033 272.394 410.52C272.188 411 272.088 411.497 272.094 412.01Z" fill="#36536B"/>
<path id="Vector_80" d="M260.815 413.26C260.815 413.913 260.921 414.507 261.135 415.04C261.355 415.567 261.685 415.987 262.125 416.3C262.571 416.613 263.128 416.77 263.795 416.77C264.455 416.77 265.021 416.617 265.495 416.31C265.975 416.003 266.281 415.56 266.415 414.98H268.165C268.038 415.68 267.758 416.27 267.325 416.75C266.891 417.23 266.368 417.593 265.755 417.84C265.141 418.08 264.501 418.2 263.835 418.2C262.868 418.2 262.018 417.99 261.285 417.57C260.552 417.15 259.978 416.547 259.565 415.76C259.152 414.973 258.945 414.03 258.945 412.93C258.945 411.843 259.131 410.89 259.505 410.07C259.878 409.25 260.418 408.61 261.125 408.15C261.838 407.69 262.695 407.46 263.695 407.46C264.668 407.46 265.491 407.67 266.165 408.09C266.838 408.51 267.348 409.103 267.695 409.87C268.048 410.63 268.225 411.533 268.225 412.58V413.26H260.815ZM260.825 412.01H266.445C266.445 411.417 266.345 410.883 266.145 410.41C265.945 409.93 265.638 409.553 265.225 409.28C264.818 409 264.305 408.86 263.685 408.86C263.038 408.86 262.501 409.017 262.075 409.33C261.655 409.637 261.338 410.033 261.125 410.52C260.918 411 260.818 411.497 260.825 412.01Z" fill="#36536B"/>
<path id="Vector_81" d="M252.71 418.2C252.103 418.2 251.59 418.12 251.17 417.96C250.757 417.8 250.417 417.597 250.15 417.35C249.883 417.097 249.677 416.84 249.53 416.58C249.383 416.313 249.277 416.08 249.21 415.88L249.01 418H247.6V403.14H249.46V409.3C249.547 409.127 249.677 408.937 249.85 408.73C250.03 408.523 250.26 408.323 250.54 408.13C250.82 407.937 251.15 407.777 251.53 407.65C251.917 407.523 252.357 407.46 252.85 407.46C254.143 407.46 255.17 407.91 255.93 408.81C256.697 409.71 257.08 411.037 257.08 412.79C257.08 413.877 256.917 414.827 256.59 415.64C256.263 416.447 255.777 417.077 255.13 417.53C254.483 417.977 253.677 418.2 252.71 418.2ZM252.38 416.78C253.22 416.78 253.903 416.457 254.43 415.81C254.957 415.157 255.22 414.12 255.22 412.7C255.22 411.493 254.973 410.56 254.48 409.9C253.993 409.233 253.28 408.9 252.34 408.9C251.653 408.9 251.1 409.05 250.68 409.35C250.267 409.643 249.96 410.073 249.76 410.64C249.567 411.207 249.467 411.893 249.46 412.7C249.46 414.147 249.683 415.19 250.13 415.83C250.583 416.463 251.333 416.78 252.38 416.78Z" fill="#36536B"/>
<path id="Vector_82" d="M236.505 418.2C235.785 418.2 235.115 418.09 234.495 417.87C233.881 417.643 233.371 417.293 232.965 416.82C232.558 416.34 232.301 415.73 232.195 414.99H233.875C233.968 415.397 234.135 415.737 234.375 416.01C234.621 416.277 234.928 416.48 235.295 416.62C235.661 416.753 236.061 416.82 236.495 416.82C237.188 416.82 237.748 416.69 238.175 416.43C238.601 416.17 238.815 415.77 238.815 415.23C238.815 414.85 238.701 414.547 238.475 414.32C238.255 414.087 237.911 413.917 237.445 413.81L235.305 413.28C234.471 413.08 233.805 412.767 233.305 412.34C232.805 411.913 232.555 411.317 232.555 410.55C232.548 409.943 232.691 409.41 232.985 408.95C233.278 408.49 233.718 408.127 234.305 407.86C234.891 407.593 235.621 407.46 236.495 407.46C237.615 407.46 238.518 407.713 239.205 408.22C239.898 408.72 240.258 409.457 240.285 410.43H238.655C238.588 409.937 238.365 409.547 237.985 409.26C237.611 408.967 237.108 408.82 236.475 408.82C235.815 408.82 235.278 408.953 234.865 409.22C234.451 409.48 234.245 409.887 234.245 410.44C234.245 410.807 234.391 411.097 234.685 411.31C234.978 411.517 235.411 411.69 235.985 411.83L238.055 412.35C238.535 412.477 238.928 412.643 239.235 412.85C239.548 413.057 239.795 413.287 239.975 413.54C240.161 413.793 240.291 414.06 240.365 414.34C240.445 414.613 240.485 414.877 240.485 415.13C240.485 415.763 240.325 416.31 240.005 416.77C239.691 417.223 239.238 417.577 238.645 417.83C238.058 418.077 237.345 418.2 236.505 418.2Z" fill="#36536B"/>
<path id="Vector_83" d="M224.562 418.2C223.895 418.2 223.305 418.083 222.792 417.85C222.279 417.61 221.875 417.267 221.582 416.82C221.295 416.373 221.152 415.833 221.152 415.2C221.152 414.053 221.552 413.2 222.352 412.64C223.152 412.08 224.435 411.78 226.202 411.74L228.052 411.69V410.88C228.052 410.247 227.862 409.747 227.482 409.38C227.102 409.007 226.512 408.82 225.712 408.82C225.119 408.827 224.595 408.967 224.142 409.24C223.695 409.513 223.405 409.96 223.272 410.58H221.642C221.682 409.907 221.872 409.34 222.212 408.88C222.552 408.413 223.025 408.06 223.632 407.82C224.245 407.58 224.969 407.46 225.802 407.46C226.702 407.46 227.449 407.587 228.042 407.84C228.642 408.093 229.089 408.467 229.382 408.96C229.682 409.453 229.832 410.06 229.832 410.78V418H228.252L228.122 416.06C227.722 416.867 227.212 417.427 226.592 417.74C225.979 418.047 225.302 418.2 224.562 418.2ZM225.122 416.87C225.469 416.87 225.812 416.807 226.152 416.68C226.499 416.553 226.815 416.383 227.102 416.17C227.389 415.95 227.615 415.707 227.782 415.44C227.955 415.167 228.045 414.887 228.052 414.6V412.83L226.512 412.86C225.725 412.873 225.065 412.953 224.532 413.1C224.005 413.247 223.609 413.477 223.342 413.79C223.082 414.103 222.952 414.513 222.952 415.02C222.952 415.6 223.152 416.053 223.552 416.38C223.959 416.707 224.482 416.87 225.122 416.87Z" fill="#36536B"/>
<path id="Vector_84" d="M210.217 418V403.14H212.017V409.18C212.191 408.893 212.424 408.627 212.717 408.38C213.011 408.127 213.367 407.923 213.787 407.77C214.207 407.61 214.694 407.53 215.247 407.53C215.921 407.53 216.531 407.657 217.077 407.91C217.624 408.157 218.057 408.51 218.377 408.97C218.697 409.43 218.857 409.977 218.857 410.61V418H217.007V410.98C217.007 410.36 216.794 409.883 216.367 409.55C215.947 409.21 215.397 409.04 214.717 409.04C214.257 409.04 213.824 409.117 213.417 409.27C213.011 409.417 212.681 409.643 212.427 409.95C212.181 410.25 212.057 410.633 212.057 411.1V418H210.217Z" fill="#36536B"/>
<path id="Vector_85" d="M202.951 409.01H200.621V415.44C200.621 415.807 200.658 416.077 200.731 416.25C200.811 416.417 200.941 416.523 201.121 416.57C201.308 416.617 201.561 416.64 201.881 416.64H203.011V417.88C202.884 417.927 202.691 417.967 202.431 418C202.178 418.033 201.861 418.05 201.481 418.05C200.768 418.05 200.214 417.953 199.821 417.76C199.428 417.567 199.151 417.28 198.991 416.9C198.838 416.52 198.761 416.053 198.761 415.5V409.01H197.081V407.66H198.811L199.261 404.65H200.621V407.65H202.951V409.01Z" fill="#36536B"/>
<path id="Vector_86" d="M186.643 418V407.66H188.433V409.16C188.6 408.873 188.83 408.603 189.123 408.35C189.423 408.097 189.783 407.893 190.203 407.74C190.63 407.587 191.12 407.51 191.673 407.51C192.326 407.51 192.926 407.64 193.473 407.9C194.026 408.16 194.466 408.567 194.793 409.12C195.126 409.667 195.293 410.373 195.293 411.24V418H193.443V411.42C193.443 410.613 193.23 410.017 192.803 409.63C192.383 409.237 191.836 409.04 191.163 409.04C190.696 409.04 190.26 409.117 189.853 409.27C189.446 409.417 189.116 409.643 188.863 409.95C188.61 410.25 188.483 410.63 188.483 411.09V418H186.643Z" fill="#36536B"/>
<path id="Vector_87" d="M176.694 413.26C176.694 413.913 176.8 414.507 177.014 415.04C177.234 415.567 177.564 415.987 178.004 416.3C178.45 416.613 179.007 416.77 179.674 416.77C180.334 416.77 180.9 416.617 181.374 416.31C181.854 416.003 182.16 415.56 182.294 414.98H184.044C183.917 415.68 183.637 416.27 183.204 416.75C182.77 417.23 182.247 417.593 181.634 417.84C181.02 418.08 180.38 418.2 179.714 418.2C178.747 418.2 177.897 417.99 177.164 417.57C176.43 417.15 175.857 416.547 175.444 415.76C175.03 414.973 174.824 414.03 174.824 412.93C174.824 411.843 175.01 410.89 175.384 410.07C175.757 409.25 176.297 408.61 177.004 408.15C177.717 407.69 178.574 407.46 179.574 407.46C180.547 407.46 181.37 407.67 182.044 408.09C182.717 408.51 183.227 409.103 183.574 409.87C183.927 410.63 184.104 411.533 184.104 412.58V413.26H176.694ZM176.704 412.01H182.324C182.324 411.417 182.224 410.883 182.024 410.41C181.824 409.93 181.517 409.553 181.104 409.28C180.697 409 180.184 408.86 179.564 408.86C178.917 408.86 178.38 409.017 177.954 409.33C177.534 409.637 177.217 410.033 177.004 410.52C176.797 411 176.697 411.497 176.704 412.01Z" fill="#36536B"/>
<path id="Vector_88" d="M158.069 418V407.66H159.849V409.16C160.136 408.707 160.529 408.31 161.029 407.97C161.529 407.63 162.179 407.46 162.979 407.46C163.352 407.46 163.732 407.523 164.119 407.65C164.512 407.777 164.872 407.967 165.199 408.22C165.526 408.473 165.779 408.783 165.959 409.15C166.279 408.643 166.712 408.237 167.259 407.93C167.806 407.617 168.422 407.46 169.109 407.46C169.469 407.46 169.846 407.517 170.239 407.63C170.632 407.737 170.996 407.93 171.329 408.21C171.669 408.483 171.946 408.867 172.159 409.36C172.372 409.847 172.479 410.473 172.479 411.24V418H170.619V411.42C170.619 410.793 170.519 410.31 170.319 409.97C170.119 409.623 169.856 409.38 169.529 409.24C169.209 409.1 168.866 409.03 168.499 409.03C168.179 409.03 167.839 409.093 167.479 409.22C167.119 409.347 166.812 409.56 166.559 409.86C166.306 410.16 166.179 410.57 166.179 411.09V418H164.339V410.88C164.339 410.473 164.229 410.133 164.009 409.86C163.796 409.587 163.526 409.38 163.199 409.24C162.879 409.1 162.559 409.03 162.239 409.03C161.886 409.03 161.529 409.1 161.169 409.24C160.816 409.38 160.516 409.603 160.269 409.91C160.029 410.21 159.909 410.603 159.909 411.09V418H158.069Z" fill="#36536B"/>
<path id="Vector_89" d="M148.425 421.3C147.818 421.3 147.402 421.257 147.175 421.17C146.948 421.083 146.835 421.04 146.835 421.04V419.84L147.885 419.86C148.272 419.873 148.592 419.847 148.845 419.78C149.098 419.713 149.302 419.623 149.455 419.51C149.608 419.397 149.725 419.27 149.805 419.13C149.892 418.99 149.962 418.857 150.015 418.73L150.375 417.75L146.335 407.66H148.205L151.255 415.64L154.285 407.66H156.095L151.735 418.78C151.468 419.433 151.168 419.943 150.835 420.31C150.508 420.677 150.142 420.933 149.735 421.08C149.335 421.227 148.898 421.3 148.425 421.3Z" fill="#36536B"/>
<path id="Vector_90" d="M139.308 418.2C138.641 418.2 138.051 418.083 137.538 417.85C137.025 417.61 136.621 417.267 136.328 416.82C136.041 416.373 135.898 415.833 135.898 415.2C135.898 414.053 136.298 413.2 137.098 412.64C137.898 412.08 139.181 411.78 140.948 411.74L142.798 411.69V410.88C142.798 410.247 142.608 409.747 142.228 409.38C141.848 409.007 141.258 408.82 140.458 408.82C139.865 408.827 139.341 408.967 138.888 409.24C138.441 409.513 138.151 409.96 138.018 410.58H136.388C136.428 409.907 136.618 409.34 136.958 408.88C137.298 408.413 137.771 408.06 138.378 407.82C138.991 407.58 139.715 407.46 140.548 407.46C141.448 407.46 142.195 407.587 142.788 407.84C143.388 408.093 143.835 408.467 144.128 408.96C144.428 409.453 144.578 410.06 144.578 410.78V418H142.998L142.868 416.06C142.468 416.867 141.958 417.427 141.338 417.74C140.725 418.047 140.048 418.2 139.308 418.2ZM139.868 416.87C140.215 416.87 140.558 416.807 140.898 416.68C141.245 416.553 141.561 416.383 141.848 416.17C142.135 415.95 142.361 415.707 142.528 415.44C142.701 415.167 142.791 414.887 142.798 414.6V412.83L141.258 412.86C140.471 412.873 139.811 412.953 139.278 413.1C138.751 413.247 138.355 413.477 138.088 413.79C137.828 414.103 137.698 414.513 137.698 415.02C137.698 415.6 137.898 416.053 138.298 416.38C138.705 416.707 139.228 416.87 139.868 416.87Z" fill="#36536B"/>
<path id="Vector_91" d="M124.69 421.22V407.66H126.53L126.55 409.46C126.67 409.247 126.823 409.023 127.01 408.79C127.203 408.557 127.437 408.34 127.71 408.14C127.99 407.94 128.313 407.777 128.68 407.65C129.053 407.523 129.477 407.46 129.95 407.46C130.777 407.46 131.503 407.65 132.13 408.03C132.763 408.403 133.257 408.977 133.61 409.75C133.963 410.523 134.14 411.503 134.14 412.69C134.14 413.877 133.967 414.88 133.62 415.7C133.28 416.513 132.787 417.133 132.14 417.56C131.493 417.987 130.713 418.2 129.8 418.2C129.34 418.2 128.93 418.133 128.57 418C128.217 417.873 127.907 417.707 127.64 417.5C127.38 417.287 127.16 417.06 126.98 416.82C126.807 416.58 126.663 416.35 126.55 416.13V421.22H124.69ZM129.45 416.76C130.303 416.76 131 416.437 131.54 415.79C132.08 415.137 132.35 414.123 132.35 412.75C132.35 411.57 132.103 410.633 131.61 409.94C131.117 409.247 130.397 408.9 129.45 408.9C128.49 408.9 127.763 409.257 127.27 409.97C126.777 410.677 126.53 411.603 126.53 412.75C126.53 413.49 126.64 414.163 126.86 414.77C127.08 415.377 127.407 415.86 127.84 416.22C128.273 416.58 128.81 416.76 129.45 416.76Z" fill="#36536B"/>
<path id="Vector_92" d="M110.248 413.26C110.248 413.913 110.355 414.507 110.568 415.04C110.788 415.567 111.118 415.987 111.558 416.3C112.005 416.613 112.562 416.77 113.228 416.77C113.888 416.77 114.455 416.617 114.928 416.31C115.408 416.003 115.715 415.56 115.848 414.98H117.598C117.472 415.68 117.192 416.27 116.758 416.75C116.325 417.23 115.802 417.593 115.188 417.84C114.575 418.08 113.935 418.2 113.268 418.2C112.302 418.2 111.452 417.99 110.718 417.57C109.985 417.15 109.412 416.547 108.998 415.76C108.585 414.973 108.378 414.03 108.378 412.93C108.378 411.843 108.565 410.89 108.938 410.07C109.312 409.25 109.852 408.61 110.558 408.15C111.272 407.69 112.128 407.46 113.128 407.46C114.102 407.46 114.925 407.67 115.598 408.09C116.272 408.51 116.782 409.103 117.128 409.87C117.482 410.63 117.658 411.533 117.658 412.58V413.26H110.248ZM110.258 412.01H115.878C115.878 411.417 115.778 410.883 115.578 410.41C115.378 409.93 115.072 409.553 114.658 409.28C114.252 409 113.738 408.86 113.118 408.86C112.472 408.86 111.935 409.017 111.508 409.33C111.088 409.637 110.772 410.033 110.558 410.52C110.352 411 110.252 411.497 110.258 412.01Z" fill="#36536B"/>
<path id="Vector_93" d="M97.4048 418V403.14H99.2048V409.18C99.3781 408.893 99.6115 408.627 99.9048 408.38C100.198 408.127 100.555 407.923 100.975 407.77C101.395 407.61 101.881 407.53 102.435 407.53C103.108 407.53 103.718 407.657 104.265 407.91C104.811 408.157 105.245 408.51 105.565 408.97C105.885 409.43 106.045 409.977 106.045 410.61V418H104.195V410.98C104.195 410.36 103.981 409.883 103.555 409.55C103.135 409.21 102.585 409.04 101.905 409.04C101.445 409.04 101.011 409.117 100.605 409.27C100.198 409.417 99.8681 409.643 99.6148 409.95C99.3681 410.25 99.2448 410.633 99.2448 411.1V418H97.4048Z" fill="#36536B"/>
<path id="Vector_94" d="M84.46 405.24V403.54H95.4V405.24H90.99V418H89.13V405.24H84.46Z" fill="#36536B"/>
</g>
</g>
</g>
<defs>
<filter id="filter0_d_0_4910" x="5.13574" y="1.13892" width="531.299" height="1013.72" filterUnits="userSpaceOnUse" color-interpolation-filters="sRGB">
<feFlood flood-opacity="0" result="BackgroundImageFix"/>
<feColorMatrix in="SourceAlpha" type="matrix" values="0 0 0 0 0 0 0 0 0 0 0 0 0 0 0 0 0 0 127 0" result="hardAlpha"/>
<feOffset dy="4"/>
<feGaussianBlur stdDeviation="2"/>
<feComposite in2="hardAlpha" operator="out"/>
<feColorMatrix type="matrix" values="0 0 0 0 0 0 0 0 0 0 0 0 0 0 0 0 0 0 0.25 0"/>
<feBlend mode="normal" in2="BackgroundImageFix" result="effect1_dropShadow_0_4910"/>
<feBlend mode="normal" in="SourceGraphic" in2="effect1_dropShadow_0_4910" result="shape"/>
</filter>
<filter id="filter1_d_0_4910" x="20.0293" y="0" width="501.284" height="40.6479" filterUnits="userSpaceOnUse" color-interpolation-filters="sRGB">
<feFlood flood-opacity="0" result="BackgroundImageFix"/>
<feColorMatrix in="SourceAlpha" type="matrix" values="0 0 0 0 0 0 0 0 0 0 0 0 0 0 0 0 0 0 127 0" result="hardAlpha"/>
<feOffset dy="4"/>
<feGaussianBlur stdDeviation="2"/>
<feComposite in2="hardAlpha" operator="out"/>
<feColorMatrix type="matrix" values="0 0 0 0 0 0 0 0 0 0 0 0 0 0 0 0 0 0 0.25 0"/>
<feBlend mode="normal" in2="BackgroundImageFix" result="effect1_dropShadow_0_4910"/>
<feBlend mode="normal" in="SourceGraphic" in2="effect1_dropShadow_0_4910" result="shape"/>
</filter>
<filter id="filter2_d_0_4910" x="492.902" y="26.9954" width="43.3052" height="957.315" filterUnits="userSpaceOnUse" color-interpolation-filters="sRGB">
<feFlood flood-opacity="0" result="BackgroundImageFix"/>
<feColorMatrix in="SourceAlpha" type="matrix" values="0 0 0 0 0 0 0 0 0 0 0 0 0 0 0 0 0 0 127 0" result="hardAlpha"/>
<feOffset dy="4"/>
<feGaussianBlur stdDeviation="2"/>
<feComposite in2="hardAlpha" operator="out"/>
<feColorMatrix type="matrix" values="0 0 0 0 0 0 0 0 0 0 0 0 0 0 0 0 0 0 0.25 0"/>
<feBlend mode="normal" in2="BackgroundImageFix" result="effect1_dropShadow_0_4910"/>
<feBlend mode="normal" in="SourceGraphic" in2="effect1_dropShadow_0_4910" result="shape"/>
</filter>
<filter id="filter3_d_0_4910" x="5.13574" y="26.9954" width="43.3052" height="957.315" filterUnits="userSpaceOnUse" color-interpolation-filters="sRGB">
<feFlood flood-opacity="0" result="BackgroundImageFix"/>
<feColorMatrix in="SourceAlpha" type="matrix" values="0 0 0 0 0 0 0 0 0 0 0 0 0 0 0 0 0 0 127 0" result="hardAlpha"/>
<feOffset dy="4"/>
<feGaussianBlur stdDeviation="2"/>
<feComposite in2="hardAlpha" operator="out"/>
<feColorMatrix type="matrix" values="0 0 0 0 0 0 0 0 0 0 0 0 0 0 0 0 0 0 0.25 0"/>
<feBlend mode="normal" in2="BackgroundImageFix" result="effect1_dropShadow_0_4910"/>
<feBlend mode="normal" in="SourceGraphic" in2="effect1_dropShadow_0_4910" result="shape"/>
</filter>
<filter id="filter4_d_0_4910" x="0" y="203.113" width="25.9292" height="144.702" filterUnits="userSpaceOnUse" color-interpolation-filters="sRGB">
<feFlood flood-opacity="0" result="BackgroundImageFix"/>
<feColorMatrix in="SourceAlpha" type="matrix" values="0 0 0 0 0 0 0 0 0 0 0 0 0 0 0 0 0 0 127 0" result="hardAlpha"/>
<feOffset dy="4"/>
<feGaussianBlur stdDeviation="2"/>
<feComposite in2="hardAlpha" operator="out"/>
<feColorMatrix type="matrix" values="0 0 0 0 0 0 0 0 0 0 0 0 0 0 0 0 0 0 0.25 0"/>
<feBlend mode="normal" in2="BackgroundImageFix" result="effect1_dropShadow_0_4910"/>
<feBlend mode="normal" in="SourceGraphic" in2="effect1_dropShadow_0_4910" result="shape"/>
</filter>
<filter id="filter5_d_0_4910" x="515.071" y="308.087" width="25.9292" height="109.9" filterUnits="userSpaceOnUse" color-interpolation-filters="sRGB">
<feFlood flood-opacity="0" result="BackgroundImageFix"/>
<feColorMatrix in="SourceAlpha" type="matrix" values="0 0 0 0 0 0 0 0 0 0 0 0 0 0 0 0 0 0 127 0" result="hardAlpha"/>
<feOffset dy="4"/>
<feGaussianBlur stdDeviation="2"/>
<feComposite in2="hardAlpha" operator="out"/>
<feColorMatrix type="matrix" values="0 0 0 0 0 0 0 0 0 0 0 0 0 0 0 0 0 0 0.25 0"/>
<feBlend mode="normal" in2="BackgroundImageFix" result="effect1_dropShadow_0_4910"/>
<feBlend mode="normal" in="SourceGraphic" in2="effect1_dropShadow_0_4910" result="shape"/>
</filter>
<filter id="filter6_d_0_4910" x="30.1484" y="24.8889" width="481.223" height="944.246" filterUnits="userSpaceOnUse" color-interpolation-filters="sRGB">
<feFlood flood-opacity="0" result="BackgroundImageFix"/>
<feColorMatrix in="SourceAlpha" type="matrix" values="0 0 0 0 0 0 0 0 0 0 0 0 0 0 0 0 0 0 127 0" result="hardAlpha"/>
<feOffset dy="4"/>
<feGaussianBlur stdDeviation="2"/>
<feComposite in2="hardAlpha" operator="out"/>
<feColorMatrix type="matrix" values="0 0 0 0 0 0 0 0 0 0 0 0 0 0 0 0 0 0 0.25 0"/>
<feBlend mode="normal" in2="BackgroundImageFix" result="effect1_dropShadow_0_4910"/>
<feBlend mode="normal" in="SourceGraphic" in2="effect1_dropShadow_0_4910" result="shape"/>
</filter>
<filter id="filter7_d_0_4910" x="30" y="24.8889" width="482" height="946" filterUnits="userSpaceOnUse" color-interpolation-filters="sRGB">
<feFlood flood-opacity="0" result="BackgroundImageFix"/>
<feColorMatrix in="SourceAlpha" type="matrix" values="0 0 0 0 0 0 0 0 0 0 0 0 0 0 0 0 0 0 127 0" result="hardAlpha"/>
<feOffset dy="4"/>
<feGaussianBlur stdDeviation="2"/>
<feComposite in2="hardAlpha" operator="out"/>
<feColorMatrix type="matrix" values="0 0 0 0 0 0 0 0 0 0 0 0 0 0 0 0 0 0 0.25 0"/>
<feBlend mode="normal" in2="BackgroundImageFix" result="effect1_dropShadow_0_4910"/>
<feBlend mode="normal" in="SourceGraphic" in2="effect1_dropShadow_0_4910" result="shape"/>
</filter>
<filter id="filter8_d_0_4910" x="180.752" y="235.088" width="179.67" height="63.616" filterUnits="userSpaceOnUse" color-interpolation-filters="sRGB">
<feFlood flood-opacity="0" result="BackgroundImageFix"/>
<feColorMatrix in="SourceAlpha" type="matrix" values="0 0 0 0 0 0 0 0 0 0 0 0 0 0 0 0 0 0 127 0" result="hardAlpha"/>
<feOffset dy="4"/>
<feGaussianBlur stdDeviation="2"/>
<feComposite in2="hardAlpha" operator="out"/>
<feColorMatrix type="matrix" values="0 0 0 0 0 0 0 0 0 0 0 0 0 0 0 0 0 0 0.25 0"/>
<feBlend mode="normal" in2="BackgroundImageFix" result="effect1_dropShadow_0_4910"/>
<feBlend mode="normal" in="SourceGraphic" in2="effect1_dropShadow_0_4910" result="shape"/>
</filter>
<filter id="filter9_d_0_4910" x="44" y="334" width="452" height="190" filterUnits="userSpaceOnUse" color-interpolation-filters="sRGB">
<feFlood flood-opacity="0" result="BackgroundImageFix"/>
<feColorMatrix in="SourceAlpha" type="matrix" values="0 0 0 0 0 0 0 0 0 0 0 0 0 0 0 0 0 0 127 0" result="hardAlpha"/>
<feOffset dy="4"/>
<feGaussianBlur stdDeviation="2"/>
<feComposite in2="hardAlpha" operator="out"/>
<feColorMatrix type="matrix" values="0 0 0 0 0 0 0 0 0 0 0 0 0 0 0 0 0 0 0.25 0"/>
<feBlend mode="normal" in2="BackgroundImageFix" result="effect1_dropShadow_0_4910"/>
<feBlend mode="normal" in="SourceGraphic" in2="effect1_dropShadow_0_4910" result="shape"/>
</filter>
<filter id="filter10_d_0_4910" x="77.6201" y="371.54" width="80.3945" height="33.76" filterUnits="userSpaceOnUse" color-interpolation-filters="sRGB">
<feFlood flood-opacity="0" result="BackgroundImageFix"/>
<feColorMatrix in="SourceAlpha" type="matrix" values="0 0 0 0 0 0 0 0 0 0 0 0 0 0 0 0 0 0 127 0" result="hardAlpha"/>
<feOffset dy="4"/>
<feGaussianBlur stdDeviation="2"/>
<feComposite in2="hardAlpha" operator="out"/>
<feColorMatrix type="matrix" values="0 0 0 0 0 0 0 0 0 0 0 0 0 0 0 0 0 0 0.25 0"/>
<feBlend mode="normal" in2="BackgroundImageFix" result="effect1_dropShadow_0_4910"/>
<feBlend mode="normal" in="SourceGraphic" in2="effect1_dropShadow_0_4910" result="shape"/>
</filter>
<filter id="filter11_d_0_4910" x="365.808" y="371.54" width="97.8584" height="30.6606" filterUnits="userSpaceOnUse" color-interpolation-filters="sRGB">
<feFlood flood-opacity="0" result="BackgroundImageFix"/>
<feColorMatrix in="SourceAlpha" type="matrix" values="0 0 0 0 0 0 0 0 0 0 0 0 0 0 0 0 0 0 127 0" result="hardAlpha"/>
<feOffset dy="4"/>
<feGaussianBlur stdDeviation="2"/>
<feComposite in2="hardAlpha" operator="out"/>
<feColorMatrix type="matrix" values="0 0 0 0 0 0 0 0 0 0 0 0 0 0 0 0 0 0 0.25 0"/>
<feBlend mode="normal" in2="BackgroundImageFix" result="effect1_dropShadow_0_4910"/>
<feBlend mode="normal" in="SourceGraphic" in2="effect1_dropShadow_0_4910" result="shape"/>
</filter>
<filter id="filter12_d_0_4910" x="76.46" y="403.14" width="366.972" height="88.77" filterUnits="userSpaceOnUse" color-interpolation-filters="sRGB">
<feFlood flood-opacity="0" result="BackgroundImageFix"/>
<feColorMatrix in="SourceAlpha" type="matrix" values="0 0 0 0 0 0 0 0 0 0 0 0 0 0 0 0 0 0 127 0" result="hardAlpha"/>
<feOffset dy="4"/>
<feGaussianBlur stdDeviation="2"/>
<feComposite in2="hardAlpha" operator="out"/>
<feColorMatrix type="matrix" values="0 0 0 0 0 0 0 0 0 0 0 0 0 0 0 0 0 0 0.25 0"/>
<feBlend mode="normal" in2="BackgroundImageFix" result="effect1_dropShadow_0_4910"/>
<feBlend mode="normal" in="SourceGraphic" in2="effect1_dropShadow_0_4910" result="shape"/>
</filter>
<linearGradient id="paint0_linear_0_4910" x1="28.0293" y1="0" x2="28.0293" y2="24.6479" gradientUnits="userSpaceOnUse">
<stop stop-color="#454545"/>
<stop offset="0.226279" stop-color="#999999"/>
<stop offset="1" stop-color="white"/>
</linearGradient>
<linearGradient id="paint1_linear_0_4910" x1="528.207" y1="171.495" x2="509.285" y2="171.495" gradientUnits="userSpaceOnUse">
<stop stop-color="white" stop-opacity="0.01"/>
<stop offset="0.222178" stop-color="#BABABA"/>
<stop offset="0.54678" stop-color="white" stop-opacity="0.01"/>
<stop offset="1" stop-color="white" stop-opacity="0.01"/>
</linearGradient>
<linearGradient id="paint2_linear_0_4910" x1="13.136" y1="170.974" x2="32.0881" y2="170.974" gradientUnits="userSpaceOnUse">
<stop stop-color="white" stop-opacity="0.01"/>
<stop offset="0.222178" stop-color="#BABABA"/>
<stop offset="0.54678" stop-color="white" stop-opacity="0.01"/>
<stop offset="1" stop-color="white" stop-opacity="0.01"/>
</linearGradient>
<linearGradient id="paint3_linear_0_4910" x1="39.8139" y1="24.8889" x2="39.8139" y2="947.649" gradientUnits="userSpaceOnUse">
<stop stop-color="#9CB6CD"/>
<stop offset="0.420564" stop-color="#9AB3CA"/>
<stop offset="0.716592" stop-color="#557496"/>
<stop offset="1" stop-color="#475178"/>
</linearGradient>
<clipPath id="clip0_0_4910">
<rect width="233" height="465" fill="white" transform="matrix(2 0 0 2 38.1484 24.8889)"/>
</clipPath>
<clipPath id="clip1_0_4910">
<rect width="218" height="87" fill="white" transform="matrix(2 0 0 2 52 334)"/>
</clipPath>
<clipPath id="clip2_0_4910">
<rect width="187" height="11" fill="white" transform="matrix(2 0 0 2 84 366)"/>
</clipPath>
</defs>
</svg>
