<svg width="271" height="508" viewBox="0 0 271 508" fill="none" xmlns="http://www.w3.org/2000/svg">
<g filter="url(#filter0_d_6427_107)">
<path fill-rule="evenodd" clip-rule="evenodd" d="M39.776 0.569458H231.009C249.35 0.569458 264.217 14.8048 264.217 32.365V467.635C264.217 485.195 249.35 499.431 231.009 499.431H39.776C21.4357 499.431 6.56787 485.195 6.56787 467.635V32.365C6.56787 14.8048 21.4357 0.569458 39.776 0.569458Z" fill="#213648"/>
</g>
<g opacity="0.595562" filter="url(#filter1_d_6427_107)">
<path fill-rule="evenodd" clip-rule="evenodd" d="M231.749 0H38.9226C29.92 0.548956 21.6174 4.65694 14.0146 12.3239C18.9041 8.05589 27.6249 2.34456 39.1546 2.34456C39.1546 2.34456 223.83 2.34456 231.517 2.34456C243.046 2.34456 251.767 8.05589 256.656 12.3239C249.054 4.65694 240.751 0.548956 231.749 0Z" fill="url(#paint0_linear_6427_107)" fill-opacity="0.65" shape-rendering="crispEdges"/>
</g>
<g opacity="0.75" filter="url(#filter2_d_6427_107)">
<path fill-rule="evenodd" clip-rule="evenodd" d="M258.999 462.671V34.9818C258.999 23.5065 254.782 19.2644 252.266 16.5405C249.75 13.8166 249.643 12.4272 253.258 14.4839C256.873 16.5405 264.103 22.5306 264.103 34.9818V462.671C264.103 475.122 256.873 481.112 253.258 483.169C249.643 485.225 249.75 483.836 252.266 481.112C254.782 478.388 258.999 474.146 258.999 462.671Z" fill="url(#paint1_linear_6427_107)" shape-rendering="crispEdges"/>
</g>
<g opacity="0.75" filter="url(#filter3_d_6427_107)">
<path fill-rule="evenodd" clip-rule="evenodd" d="M11.672 462.671V34.9818C11.672 23.5065 15.8894 19.2644 18.4053 16.5405C20.9212 13.8166 21.0283 12.4272 17.4134 14.4839C13.7984 16.5405 6.56798 22.5306 6.56798 34.9818V462.671C6.56798 475.122 13.7984 481.112 17.4134 483.169C21.0283 485.225 20.9212 483.836 18.4053 481.112C15.8894 478.388 11.672 474.146 11.672 462.671Z" fill="url(#paint2_linear_6427_107)" shape-rendering="crispEdges"/>
</g>
<g filter="url(#filter4_d_6427_107)">
<path fill-rule="evenodd" clip-rule="evenodd" d="M4 103.557C4 102.452 4.89543 101.557 6 101.557H6.96454C8.06911 101.557 8.96454 102.452 8.96454 103.557V163.907C8.96454 165.012 8.06911 165.907 6.96454 165.907H6C4.89543 165.907 4 165.012 4 163.907V103.557Z" fill="#2E423C"/>
</g>
<g filter="url(#filter5_d_6427_107)">
<path fill-rule="evenodd" clip-rule="evenodd" d="M261.535 156.043C261.535 154.939 262.431 154.043 263.535 154.043H264.5C265.605 154.043 266.5 154.939 266.5 156.043V198.993C266.5 200.098 265.605 200.993 264.5 200.993H263.535C262.431 200.993 261.535 200.098 261.535 198.993V156.043Z" fill="#2E423C"/>
</g>
<g clip-path="url(#clip0_6427_107)">
<g filter="url(#filter6_d_6427_107)">
<path fill-rule="evenodd" clip-rule="evenodd" d="M112.676 12.4445L38.2698 12.4445C27.1653 12.4445 19.0742 20.0078 19.0742 29.8859V452.276C19.0742 465.155 31.5765 476.567 45.7134 476.567H225.046C238.664 476.567 251.686 465.067 251.686 452.276V31.0276C251.686 19.188 242.896 12.5149 232.49 12.4445L156.904 12.4445C156.618 12.4914 151.425 14.6262 149.231 20.0078C147.036 25.3893 142.621 29.6793 137.787 29.6793H132.172C129.874 29.6793 123.824 27.4496 120.76 20.0078C117.697 12.5659 112.963 12.4914 112.676 12.4445Z" fill="white"/>
</g>
<mask id="mask0_6427_107" style="mask-type:luminance" maskUnits="userSpaceOnUse" x="19" y="12" width="233" height="465">
<path fill-rule="evenodd" clip-rule="evenodd" d="M112.676 12.4445L38.2698 12.4445C27.1653 12.4445 19.0742 20.0078 19.0742 29.8859V452.276C19.0742 465.155 31.5765 476.567 45.7134 476.567H225.046C238.664 476.567 251.686 465.067 251.686 452.276V31.0276C251.686 19.188 242.896 12.5149 232.49 12.4445L156.904 12.4445C156.618 12.4914 151.425 14.6262 149.231 20.0078C147.036 25.3893 142.621 29.6793 137.787 29.6793H132.172C129.874 29.6793 123.824 27.4496 120.76 20.0078C117.697 12.5659 112.963 12.4914 112.676 12.4445Z" fill="white"/>
</mask>
<g mask="url(#mask0_6427_107)">
<g filter="url(#filter7_d_6427_107)">
<path d="M19 12.4445H252V477.444H19V12.4445Z" fill="url(#paint3_linear_6427_107)"/>
</g>
<g filter="url(#filter8_d_6427_107)">
<path d="M166.435 141.352C164.995 141.352 163.651 141.075 162.403 140.52C161.155 139.965 160.137 139.187 159.347 138.184C158.558 137.171 158.115 135.987 158.019 134.632H162.467C162.659 135.528 163.086 136.259 163.747 136.824C164.409 137.379 165.241 137.656 166.243 137.656C167.353 137.656 168.323 137.395 169.155 136.872C169.998 136.349 170.627 135.517 171.043 134.376C171.47 133.235 171.619 131.741 171.491 129.896C171.193 130.461 170.777 130.957 170.243 131.384C169.721 131.8 169.107 132.125 168.403 132.36C167.699 132.584 166.915 132.696 166.051 132.696C164.483 132.696 163.091 132.403 161.875 131.816C160.67 131.219 159.721 130.376 159.027 129.288C158.345 128.189 158.003 126.888 158.003 125.384C158.003 123.869 158.366 122.52 159.091 121.336C159.817 120.152 160.83 119.224 162.131 118.552C163.433 117.88 164.958 117.544 166.707 117.544C168.67 117.544 170.361 118.013 171.779 118.952C173.209 119.88 174.302 121.203 175.059 122.92C175.827 124.627 176.211 126.637 176.211 128.952C176.211 131.715 175.817 134.019 175.027 135.864C174.249 137.699 173.129 139.075 171.667 139.992C170.206 140.899 168.462 141.352 166.435 141.352ZM166.851 128.984C167.502 128.984 168.131 128.84 168.739 128.552C169.358 128.253 169.865 127.88 170.259 127.432C170.654 126.984 170.851 126.52 170.851 126.04C170.862 125.005 170.697 124.12 170.355 123.384C170.025 122.637 169.555 122.067 168.947 121.672C168.35 121.277 167.651 121.08 166.851 121.08C166.115 121.08 165.459 121.251 164.883 121.592C164.307 121.933 163.854 122.413 163.523 123.032C163.193 123.651 163.027 124.365 163.027 125.176C163.027 126.381 163.379 127.32 164.083 127.992C164.787 128.653 165.71 128.984 166.851 128.984Z" fill="white"/>
<path d="M147.451 117.864H152.043V131.96H155.611V135.88H152.043V141H147.547L147.563 135.88H136.907V132.04L147.451 117.864ZM141.227 131.96H147.563V123.48L141.227 131.96Z" fill="white"/>
<path d="M133.704 124.856V129.864H128.584V124.856H133.704ZM133.704 135.912V140.904H128.584V135.912H133.704Z" fill="white"/>
<path d="M108.495 141V138.696V137.512C108.495 136.339 108.714 135.325 109.151 134.472C109.589 133.608 110.165 132.861 110.879 132.232C111.605 131.592 112.394 131.032 113.247 130.552C114.111 130.072 114.975 129.619 115.839 129.192C116.703 128.765 117.493 128.339 118.207 127.912C118.933 127.475 119.514 126.989 119.951 126.456C120.389 125.923 120.607 125.293 120.607 124.568C120.607 123.64 120.282 122.883 119.631 122.296C118.991 121.709 118.111 121.416 116.991 121.416C115.829 121.416 114.842 121.752 114.031 122.424C113.221 123.096 112.719 124.109 112.527 125.464H108.063C108.085 123.992 108.426 122.659 109.087 121.464C109.759 120.259 110.762 119.304 112.095 118.6C113.429 117.896 115.103 117.544 117.119 117.544C118.847 117.544 120.335 117.837 121.583 118.424C122.842 119.011 123.813 119.827 124.495 120.872C125.178 121.917 125.519 123.139 125.519 124.536C125.519 125.699 125.306 126.701 124.879 127.544C124.453 128.387 123.887 129.107 123.183 129.704C122.479 130.301 121.706 130.824 120.863 131.272C120.021 131.72 119.178 132.136 118.335 132.52C117.503 132.904 116.735 133.299 116.031 133.704C115.327 134.099 114.762 134.547 114.335 135.048C113.909 135.549 113.695 136.152 113.695 136.856V137.064H125.487V141H108.495Z" fill="white"/>
<path d="M98.504 141V123.672H94.376V121.032C95.6986 121.032 96.7653 120.909 97.576 120.664C98.3973 120.408 99.0106 120.045 99.416 119.576C99.8213 119.096 100.061 118.525 100.136 117.864H103.24V141H98.504Z" fill="white"/>
</g>
</g>
</g>
<g clip-path="url(#clip1_6427_107)">
<g filter="url(#filter9_d_6427_107)">
<path d="M26 172C26 169.239 28.2386 167 31 167H239C241.761 167 244 169.239 244 172V249C244 251.761 241.761 254 239 254H31C28.2386 254 26 251.761 26 249V172Z" fill="#FBFCFE"/>
</g>
<g clip-path="url(#clip2_6427_107)">
<g filter="url(#filter10_d_6427_107)">
<path d="M73.5522 185.77H75.0072V193H73.5522V185.77Z" fill="#BA4270"/>
<path d="M67.0288 193V185.77H69.6888C70.2155 185.77 70.6871 185.862 71.1038 186.045C71.5205 186.225 71.8488 186.492 72.0888 186.845C72.3321 187.198 72.4538 187.63 72.4538 188.14C72.4538 188.62 72.3471 189.03 72.1338 189.37C71.9205 189.71 71.6205 189.97 71.2338 190.15C70.8505 190.33 70.3988 190.42 69.8788 190.42H68.4988V193H67.0288ZM68.4838 189.29H69.8388C70.2055 189.29 70.5055 189.173 70.7388 188.94C70.9721 188.703 71.0888 188.412 71.0888 188.065C71.0888 187.705 70.9655 187.42 70.7188 187.21C70.4721 186.997 70.1721 186.89 69.8188 186.89H68.4838V189.29Z" fill="#BA4270"/>
<path d="M59.2283 193L61.8183 185.77H63.3583L65.9433 193H64.4883L63.8983 191.325H61.2983L60.6933 193H59.2283ZM61.6233 190.05H63.5483L62.5933 187.18L61.6233 190.05Z" fill="#BA4270"/>
<path d="M55.3637 194.65C55.0104 194.65 54.7604 194.62 54.6137 194.56C54.4704 194.503 54.3987 194.475 54.3987 194.475V193.545L54.9087 193.565C55.1321 193.578 55.3121 193.567 55.4487 193.53C55.5854 193.497 55.6887 193.452 55.7587 193.395C55.8321 193.338 55.8837 193.278 55.9137 193.215C55.9437 193.155 55.9654 193.107 55.9787 193.07L56.0737 192.785L54.0637 187.83H55.5087L56.7487 191.2L58.0037 187.83H59.4287L57.3337 193.03C57.1537 193.47 56.9637 193.807 56.7637 194.04C56.5637 194.273 56.3471 194.433 56.1137 194.52C55.8837 194.607 55.6337 194.65 55.3637 194.65Z" fill="#BA4270"/>
<path d="M50.5118 193.1C50.1818 193.1 49.8852 193.038 49.6218 192.915C49.3585 192.792 49.1502 192.613 48.9968 192.38C48.8435 192.143 48.7668 191.857 48.7668 191.52C48.7668 190.953 48.9785 190.523 49.4018 190.23C49.8252 189.933 50.4935 189.78 51.4068 189.77L52.0518 189.76V189.45C52.0518 189.213 51.9818 189.032 51.8418 188.905C51.7052 188.775 51.4918 188.712 51.2018 188.715C50.9885 188.718 50.7852 188.768 50.5918 188.865C50.4018 188.962 50.2718 189.13 50.2018 189.37H48.9868C49.0068 188.997 49.1152 188.69 49.3118 188.45C49.5085 188.207 49.7752 188.027 50.1118 187.91C50.4518 187.79 50.8368 187.73 51.2668 187.73C51.7968 187.73 52.2218 187.797 52.5418 187.93C52.8618 188.06 53.0935 188.248 53.2368 188.495C53.3802 188.738 53.4518 189.028 53.4518 189.365V193H52.2318L52.1118 192.11C51.9352 192.483 51.7135 192.742 51.4468 192.885C51.1835 193.028 50.8718 193.1 50.5118 193.1ZM51.0018 192.14C51.1352 192.14 51.2635 192.117 51.3868 192.07C51.5135 192.02 51.6252 191.955 51.7218 191.875C51.8218 191.792 51.9018 191.698 51.9618 191.595C52.0218 191.492 52.0518 191.385 52.0518 191.275V190.51L51.5268 190.52C51.2835 190.523 51.0568 190.553 50.8468 190.61C50.6368 190.663 50.4668 190.752 50.3368 190.875C50.2102 190.998 50.1468 191.165 50.1468 191.375C50.1468 191.615 50.2302 191.803 50.3968 191.94C50.5635 192.073 50.7652 192.14 51.0018 192.14Z" fill="#BA4270"/>
<path d="M42.8101 193V185.77H45.4701C45.9967 185.77 46.4684 185.862 46.8851 186.045C47.3017 186.225 47.6301 186.492 47.8701 186.845C48.1134 187.198 48.2351 187.63 48.2351 188.14C48.2351 188.62 48.1284 189.03 47.9151 189.37C47.7017 189.71 47.4017 189.97 47.0151 190.15C46.6317 190.33 46.1801 190.42 45.6601 190.42H44.2801V193H42.8101ZM44.2651 189.29H45.6201C45.9867 189.29 46.2867 189.173 46.5201 188.94C46.7534 188.703 46.8701 188.412 46.8701 188.065C46.8701 187.705 46.7467 187.42 46.5001 187.21C46.2534 186.997 45.9534 186.89 45.6001 186.89H44.2651V189.29Z" fill="#BA4270"/>
</g>
<g filter="url(#filter11_d_6427_107)">
<path opacity="0.5" d="M227.833 187.83L226.268 193H225.358L224.178 189.185L223.058 193H222.153L220.558 187.83H221.413L222.598 191.805H222.678L223.843 187.83H224.543L225.753 191.795H225.833L226.968 187.83H227.833Z" fill="#36536B"/>
<path opacity="0.5" d="M217.658 193.1C217.182 193.1 216.765 192.998 216.408 192.795C216.052 192.588 215.775 192.287 215.578 191.89C215.382 191.493 215.283 191.008 215.283 190.435C215.283 189.895 215.375 189.422 215.558 189.015C215.742 188.608 216.01 188.293 216.363 188.07C216.72 187.843 217.152 187.73 217.658 187.73C218.135 187.73 218.548 187.835 218.898 188.045C219.252 188.252 219.525 188.557 219.718 188.96C219.912 189.363 220.008 189.855 220.008 190.435C220.008 190.962 219.918 191.425 219.738 191.825C219.562 192.225 219.298 192.538 218.948 192.765C218.602 192.988 218.172 193.1 217.658 193.1ZM217.658 192.37C217.968 192.37 218.23 192.292 218.443 192.135C218.657 191.978 218.818 191.753 218.928 191.46C219.038 191.167 219.093 190.818 219.093 190.415C219.093 190.045 219.045 189.713 218.948 189.42C218.852 189.123 218.697 188.888 218.483 188.715C218.273 188.542 217.998 188.455 217.658 188.455C217.345 188.455 217.08 188.533 216.863 188.69C216.647 188.843 216.482 189.067 216.368 189.36C216.258 189.653 216.203 190.005 216.203 190.415C216.203 190.778 216.253 191.108 216.353 191.405C216.453 191.702 216.61 191.937 216.823 192.11C217.037 192.283 217.315 192.37 217.658 192.37Z" fill="#36536B"/>
<path opacity="0.5" d="M213.028 185.77H213.953V193H213.128L209.248 187.3V193H208.323V185.77H209.208L213.028 191.39V185.77Z" fill="#36536B"/>
<path opacity="0.5" d="M204.5 188.505H203.335V191.72C203.335 191.903 203.353 192.038 203.39 192.125C203.43 192.208 203.495 192.262 203.585 192.285C203.678 192.308 203.805 192.32 203.965 192.32H204.53V192.94C204.466 192.963 204.37 192.983 204.24 193C204.113 193.017 203.955 193.025 203.765 193.025C203.408 193.025 203.131 192.977 202.935 192.88C202.738 192.783 202.6 192.64 202.52 192.45C202.443 192.26 202.405 192.027 202.405 191.75V188.505H201.565V187.83H202.43L202.655 186.325H203.335V187.825H204.5V188.505Z" fill="#36536B"/>
<path opacity="0.5" d="M198.698 193.1C198.338 193.1 198.003 193.045 197.693 192.935C197.387 192.822 197.132 192.647 196.928 192.41C196.725 192.17 196.597 191.865 196.543 191.495H197.383C197.43 191.698 197.513 191.868 197.633 192.005C197.757 192.138 197.91 192.24 198.093 192.31C198.277 192.377 198.477 192.41 198.693 192.41C199.04 192.41 199.32 192.345 199.533 192.215C199.747 192.085 199.853 191.885 199.853 191.615C199.853 191.425 199.797 191.273 199.683 191.16C199.573 191.043 199.402 190.958 199.168 190.905L198.098 190.64C197.682 190.54 197.348 190.383 197.098 190.17C196.848 189.957 196.723 189.658 196.723 189.275C196.72 188.972 196.792 188.705 196.938 188.475C197.085 188.245 197.305 188.063 197.598 187.93C197.892 187.797 198.257 187.73 198.693 187.73C199.253 187.73 199.705 187.857 200.048 188.11C200.395 188.36 200.575 188.728 200.588 189.215H199.773C199.74 188.968 199.628 188.773 199.438 188.63C199.252 188.483 199 188.41 198.683 188.41C198.353 188.41 198.085 188.477 197.878 188.61C197.672 188.74 197.568 188.943 197.568 189.22C197.568 189.403 197.642 189.548 197.788 189.655C197.935 189.758 198.152 189.845 198.438 189.915L199.473 190.175C199.713 190.238 199.91 190.322 200.063 190.425C200.22 190.528 200.343 190.643 200.433 190.77C200.527 190.897 200.592 191.03 200.628 191.17C200.668 191.307 200.688 191.438 200.688 191.565C200.688 191.882 200.608 192.155 200.448 192.385C200.292 192.612 200.065 192.788 199.768 192.915C199.475 193.038 199.118 193.1 198.698 193.1Z" fill="#36536B"/>
<path opacity="0.5" d="M193.04 193.1C192.77 193.097 192.515 193.058 192.275 192.985C192.039 192.908 191.829 192.797 191.645 192.65C191.462 192.503 191.317 192.322 191.21 192.105C191.107 191.885 191.055 191.63 191.055 191.34V187.83H191.98V191.245C191.98 191.582 192.084 191.855 192.29 192.065C192.5 192.275 192.815 192.38 193.235 192.38C193.615 192.38 193.92 192.282 194.15 192.085C194.384 191.885 194.5 191.588 194.5 191.195V187.83H195.42V193H194.685L194.59 192.01C194.527 192.27 194.419 192.48 194.265 192.64C194.115 192.8 193.934 192.918 193.72 192.995C193.51 193.068 193.284 193.103 193.04 193.1Z" fill="#36536B"/>
<path opacity="0.5" d="M189.609 191.295C189.609 191.678 189.565 192.005 189.479 192.275C189.392 192.545 189.237 192.75 189.014 192.89C188.794 193.03 188.48 193.1 188.074 193.1C187.817 193.1 187.575 193.07 187.349 193.01C187.125 192.95 186.977 192.905 186.904 192.875L186.969 191.99C187.072 192.027 187.19 192.073 187.324 192.13C187.46 192.183 187.629 192.21 187.829 192.21C188.155 192.21 188.379 192.12 188.499 191.94C188.622 191.76 188.684 191.457 188.684 191.03V185.77H189.609V191.295Z" fill="#36536B"/>
</g>
</g>
<g filter="url(#filter12_d_6427_107)">
<path d="M147.99 237V235.82H149.09V237H147.99Z" fill="#36536B"/>
<path d="M144.224 229.67C145.084 229.67 145.762 229.992 146.259 230.635C146.756 231.275 147.004 232.197 147.004 233.4C147.004 234.597 146.759 235.515 146.269 236.155C145.779 236.792 145.097 237.11 144.224 237.11C143.347 237.11 142.662 236.792 142.169 236.155C141.679 235.518 141.434 234.602 141.434 233.405C141.434 232.605 141.547 231.927 141.774 231.37C142.001 230.813 142.322 230.392 142.739 230.105C143.156 229.815 143.651 229.67 144.224 229.67ZM144.224 235.915C144.654 235.915 144.969 235.723 145.169 235.34C145.369 234.953 145.469 234.308 145.469 233.405C145.469 232.482 145.367 231.82 145.164 231.42C144.961 231.02 144.646 230.82 144.219 230.82C143.792 230.82 143.474 231.022 143.264 231.425C143.057 231.828 142.954 232.488 142.954 233.405C142.954 234.305 143.057 234.948 143.264 235.335C143.471 235.722 143.791 235.915 144.224 235.915Z" fill="#36536B"/>
<path d="M137.527 237.11C137.077 237.11 136.657 237.023 136.267 236.85C135.877 236.677 135.558 236.433 135.312 236.12C135.065 235.803 134.927 235.433 134.897 235.01H136.287C136.347 235.29 136.48 235.518 136.687 235.695C136.893 235.868 137.153 235.955 137.467 235.955C137.813 235.955 138.117 235.873 138.377 235.71C138.64 235.547 138.837 235.287 138.967 234.93C139.1 234.573 139.147 234.107 139.107 233.53C139.013 233.707 138.883 233.862 138.717 233.995C138.553 234.125 138.362 234.227 138.142 234.3C137.922 234.37 137.677 234.405 137.407 234.405C136.917 234.405 136.482 234.313 136.102 234.13C135.725 233.943 135.428 233.68 135.212 233.34C134.998 232.997 134.892 232.59 134.892 232.12C134.892 231.647 135.005 231.225 135.232 230.855C135.458 230.485 135.775 230.195 136.182 229.985C136.588 229.775 137.065 229.67 137.612 229.67C138.225 229.67 138.753 229.817 139.197 230.11C139.643 230.4 139.985 230.813 140.222 231.35C140.462 231.883 140.582 232.512 140.582 233.235C140.582 234.098 140.458 234.818 140.212 235.395C139.968 235.968 139.618 236.398 139.162 236.685C138.705 236.968 138.16 237.11 137.527 237.11ZM137.657 233.245C137.86 233.245 138.057 233.2 138.247 233.11C138.44 233.017 138.598 232.9 138.722 232.76C138.845 232.62 138.907 232.475 138.907 232.325C138.91 232.002 138.858 231.725 138.752 231.495C138.648 231.262 138.502 231.083 138.312 230.96C138.125 230.837 137.907 230.775 137.657 230.775C137.427 230.775 137.222 230.828 137.042 230.935C136.862 231.042 136.72 231.192 136.617 231.385C136.513 231.578 136.462 231.802 136.462 232.055C136.462 232.432 136.572 232.725 136.792 232.935C137.012 233.142 137.3 233.245 137.657 233.245Z" fill="#36536B"/>
<path d="M132.231 237V235.41H133.831V237H132.231Z" fill="#36536B"/>
<path d="M128.899 229.77H130.334V234.175H131.449V235.4H130.334V237H128.929L128.934 235.4H125.604V234.2L128.899 229.77ZM126.954 234.175H128.934V231.525L126.954 234.175Z" fill="#36536B"/>
<path d="M121.998 229.67C122.858 229.67 123.536 229.992 124.033 230.635C124.529 231.275 124.778 232.197 124.778 233.4C124.778 234.597 124.533 235.515 124.043 236.155C123.553 236.792 122.871 237.11 121.998 237.11C121.121 237.11 120.436 236.792 119.943 236.155C119.453 235.518 119.208 234.602 119.208 233.405C119.208 232.605 119.321 231.927 119.548 231.37C119.774 230.813 120.096 230.392 120.513 230.105C120.929 229.815 121.424 229.67 121.998 229.67ZM121.998 235.915C122.428 235.915 122.743 235.723 122.943 235.34C123.143 234.953 123.243 234.308 123.243 233.405C123.243 232.482 123.141 231.82 122.938 231.42C122.734 231.02 122.419 230.82 121.993 230.82C121.566 230.82 121.248 231.022 121.038 231.425C120.831 231.828 120.728 232.488 120.728 233.405C120.728 234.305 120.831 234.948 121.038 235.335C121.244 235.722 121.564 235.915 121.998 235.915Z" fill="#36536B"/>
<path d="M116.21 237V231.585H114.92V230.76C115.333 230.76 115.667 230.722 115.92 230.645C116.177 230.565 116.368 230.452 116.495 230.305C116.622 230.155 116.697 229.977 116.72 229.77H117.69V237H116.21Z" fill="#36536B"/>
<path d="M111.218 237.1C110.352 237.1 109.648 236.927 109.108 236.58C108.568 236.23 108.258 235.692 108.178 234.965L109.698 234.935C109.778 235.265 109.95 235.517 110.213 235.69C110.48 235.86 110.813 235.945 111.213 235.945C111.453 235.945 111.665 235.907 111.848 235.83C112.035 235.75 112.182 235.643 112.288 235.51C112.395 235.373 112.448 235.218 112.448 235.045C112.448 234.778 112.363 234.58 112.193 234.45C112.023 234.317 111.762 234.21 111.408 234.13L110.223 233.875C109.673 233.765 109.232 233.547 108.898 233.22C108.568 232.89 108.4 232.448 108.393 231.895C108.39 231.442 108.512 231.05 108.758 230.72C109.008 230.387 109.347 230.13 109.773 229.95C110.203 229.77 110.685 229.68 111.218 229.68C111.765 229.68 112.237 229.778 112.633 229.975C113.033 230.168 113.34 230.43 113.553 230.76C113.77 231.087 113.875 231.448 113.868 231.845L112.393 231.87C112.347 231.55 112.24 231.298 112.073 231.115C111.907 230.932 111.63 230.84 111.243 230.84C111.043 230.84 110.865 230.862 110.708 230.905C110.552 230.948 110.417 231.01 110.303 231.09C110.19 231.167 110.103 231.258 110.043 231.365C109.987 231.472 109.958 231.592 109.958 231.725C109.958 231.935 110.028 232.102 110.168 232.225C110.312 232.345 110.58 232.457 110.973 232.56L112.138 232.845C112.795 233.002 113.268 233.27 113.558 233.65C113.852 234.03 113.998 234.492 113.998 235.035C113.998 235.452 113.883 235.815 113.653 236.125C113.427 236.435 113.105 236.675 112.688 236.845C112.272 237.015 111.782 237.1 111.218 237.1ZM110.593 228.735H111.858V230.035H110.593V228.735ZM110.568 236.655H111.828V237.955H110.568V236.655Z" fill="#36536B"/>
<path d="M102.156 237.1C101.799 237.1 101.449 237.055 101.106 236.965C100.763 236.875 100.449 236.74 100.166 236.56C99.8825 236.38 99.6475 236.155 99.4609 235.885C99.2775 235.615 99.1675 235.298 99.1309 234.935H100.626C100.676 235.155 100.771 235.34 100.911 235.49C101.051 235.64 101.228 235.755 101.441 235.835C101.654 235.915 101.891 235.955 102.151 235.955C102.418 235.955 102.661 235.922 102.881 235.855C103.101 235.788 103.278 235.688 103.411 235.555C103.544 235.418 103.611 235.248 103.611 235.045C103.611 234.862 103.556 234.712 103.446 234.595C103.339 234.478 103.194 234.383 103.011 234.31C102.828 234.237 102.619 234.177 102.386 234.13L101.136 233.875C100.589 233.772 100.156 233.555 99.8359 233.225C99.5159 232.892 99.3509 232.448 99.3409 231.895C99.3375 231.442 99.4575 231.05 99.7009 230.72C99.9475 230.387 100.281 230.13 100.701 229.95C101.124 229.77 101.598 229.68 102.121 229.68C102.744 229.68 103.268 229.778 103.691 229.975C104.118 230.168 104.441 230.432 104.661 230.765C104.884 231.095 104.999 231.463 105.006 231.87H103.541C103.514 231.617 103.438 231.415 103.311 231.265C103.184 231.115 103.021 231.007 102.821 230.94C102.624 230.873 102.399 230.84 102.146 230.84C101.953 230.84 101.776 230.862 101.616 230.905C101.459 230.948 101.326 231.01 101.216 231.09C101.106 231.167 101.021 231.258 100.961 231.365C100.901 231.472 100.871 231.592 100.871 231.725C100.871 231.935 100.941 232.105 101.081 232.235C101.221 232.365 101.483 232.472 101.866 232.555L103.106 232.81C103.549 232.897 103.901 233.025 104.161 233.195C104.424 233.365 104.621 233.557 104.751 233.77C104.884 233.983 104.971 234.202 105.011 234.425C105.054 234.645 105.076 234.848 105.076 235.035C105.076 235.425 104.953 235.777 104.706 236.09C104.463 236.4 104.123 236.647 103.686 236.83C103.249 237.01 102.739 237.1 102.156 237.1Z" fill="#36536B"/>
<path d="M97.9896 234.245C97.9896 234.828 97.8946 235.335 97.7046 235.765C97.5146 236.192 97.2063 236.522 96.7796 236.755C96.3563 236.985 95.7946 237.1 95.0946 237.1C94.3913 237.1 93.8279 236.983 93.4046 236.75C92.9813 236.513 92.6746 236.178 92.4846 235.745C92.2979 235.312 92.2046 234.795 92.2046 234.195V229.77H93.6896V234.305C93.6896 234.845 93.8196 235.24 94.0796 235.49C94.3396 235.737 94.6779 235.86 95.0946 235.86C95.3713 235.86 95.6163 235.807 95.8296 235.7C96.0429 235.59 96.2096 235.422 96.3296 235.195C96.4529 234.965 96.5146 234.668 96.5146 234.305V229.77H97.9896V234.245Z" fill="#36536B"/>
<path d="M86.7583 237.1C86.3983 237.1 86.0633 237.045 85.7533 236.935C85.4466 236.822 85.1916 236.647 84.9883 236.41C84.7849 236.17 84.6566 235.865 84.6033 235.495H85.4433C85.4899 235.698 85.5733 235.868 85.6933 236.005C85.8166 236.138 85.9699 236.24 86.1533 236.31C86.3366 236.377 86.5366 236.41 86.7533 236.41C87.0999 236.41 87.3799 236.345 87.5933 236.215C87.8066 236.085 87.9133 235.885 87.9133 235.615C87.9133 235.425 87.8566 235.273 87.7433 235.16C87.6333 235.043 87.4616 234.958 87.2283 234.905L86.1583 234.64C85.7416 234.54 85.4083 234.383 85.1583 234.17C84.9083 233.957 84.7833 233.658 84.7833 233.275C84.7799 232.972 84.8516 232.705 84.9983 232.475C85.1449 232.245 85.3649 232.063 85.6583 231.93C85.9516 231.797 86.3166 231.73 86.7533 231.73C87.3133 231.73 87.7649 231.857 88.1083 232.11C88.4549 232.36 88.6349 232.728 88.6483 233.215H87.8333C87.7999 232.968 87.6883 232.773 87.4983 232.63C87.3116 232.483 87.0599 232.41 86.7433 232.41C86.4133 232.41 86.1449 232.477 85.9383 232.61C85.7316 232.74 85.6283 232.943 85.6283 233.22C85.6283 233.403 85.7016 233.548 85.8483 233.655C85.9949 233.758 86.2116 233.845 86.4983 233.915L87.5333 234.175C87.7733 234.238 87.9699 234.322 88.1233 234.425C88.2799 234.528 88.4033 234.643 88.4933 234.77C88.5866 234.897 88.6516 235.03 88.6883 235.17C88.7283 235.307 88.7483 235.438 88.7483 235.565C88.7483 235.882 88.6683 236.155 88.5083 236.385C88.3516 236.612 88.1249 236.788 87.8283 236.915C87.5349 237.038 87.1783 237.1 86.7583 237.1Z" fill="#36536B"/>
<path d="M83.2963 231.83V237H82.4013V231.83H83.2963ZM83.3163 229.775V230.735H82.3713V229.775H83.3163Z" fill="#36536B"/>
<path d="M78.663 232.505H77.498V235.72C77.498 235.903 77.5164 236.038 77.553 236.125C77.593 236.208 77.658 236.262 77.748 236.285C77.8414 236.308 77.968 236.32 78.128 236.32H78.693V236.94C78.6297 236.963 78.533 236.983 78.403 237C78.2764 237.017 78.118 237.025 77.928 237.025C77.5714 237.025 77.2947 236.977 77.098 236.88C76.9014 236.783 76.763 236.64 76.683 236.45C76.6064 236.26 76.568 236.027 76.568 235.75V232.505H75.728V231.83H76.593L76.818 230.325H77.498V231.825H78.663V232.505Z" fill="#36536B"/>
<path d="M70.509 237V231.83H71.404V232.58C71.4874 232.437 71.6024 232.302 71.749 232.175C71.899 232.048 72.079 231.947 72.289 231.87C72.5024 231.793 72.7474 231.755 73.024 231.755C73.3507 231.755 73.6507 231.82 73.924 231.95C74.2007 232.08 74.4207 232.283 74.584 232.56C74.7507 232.833 74.834 233.187 74.834 233.62V237H73.909V233.71C73.909 233.307 73.8024 233.008 73.589 232.815C73.379 232.618 73.1057 232.52 72.769 232.52C72.5357 232.52 72.3174 232.558 72.114 232.635C71.9107 232.708 71.7457 232.822 71.619 232.975C71.4924 233.125 71.429 233.315 71.429 233.545V237H70.509Z" fill="#36536B"/>
<path d="M66.6278 237.1C66.3578 237.097 66.1028 237.058 65.8628 236.985C65.6262 236.908 65.4162 236.797 65.2328 236.65C65.0495 236.503 64.9045 236.322 64.7978 236.105C64.6945 235.885 64.6428 235.63 64.6428 235.34V231.83H65.5678V235.245C65.5678 235.582 65.6712 235.855 65.8778 236.065C66.0878 236.275 66.4028 236.38 66.8228 236.38C67.2028 236.38 67.5078 236.282 67.7378 236.085C67.9712 235.885 68.0878 235.588 68.0878 235.195V231.83H69.0078V237H68.2728L68.1778 236.01C68.1145 236.27 68.0062 236.48 67.8528 236.64C67.7028 236.8 67.5212 236.918 67.3078 236.995C67.0978 237.068 66.8712 237.103 66.6278 237.1Z" fill="#36536B"/>
<path d="M61.2458 237.1C60.7692 237.1 60.3525 236.998 59.9958 236.795C59.6392 236.588 59.3625 236.287 59.1658 235.89C58.9692 235.493 58.8708 235.008 58.8708 234.435C58.8708 233.895 58.9625 233.422 59.1458 233.015C59.3292 232.608 59.5975 232.293 59.9508 232.07C60.3075 231.843 60.7392 231.73 61.2458 231.73C61.7225 231.73 62.1358 231.835 62.4858 232.045C62.8392 232.252 63.1125 232.557 63.3059 232.96C63.4992 233.363 63.5958 233.855 63.5958 234.435C63.5958 234.962 63.5058 235.425 63.3258 235.825C63.1492 236.225 62.8859 236.538 62.5359 236.765C62.1892 236.988 61.7592 237.1 61.2458 237.1ZM61.2458 236.37C61.5558 236.37 61.8175 236.292 62.0308 236.135C62.2442 235.978 62.4059 235.753 62.5159 235.46C62.6259 235.167 62.6808 234.818 62.6808 234.415C62.6808 234.045 62.6325 233.713 62.5359 233.42C62.4392 233.123 62.2842 232.888 62.0709 232.715C61.8609 232.542 61.5858 232.455 61.2458 232.455C60.9325 232.455 60.6675 232.533 60.4508 232.69C60.2342 232.843 60.0692 233.067 59.9559 233.36C59.8459 233.653 59.7908 234.005 59.7908 234.415C59.7908 234.778 59.8408 235.108 59.9408 235.405C60.0408 235.702 60.1975 235.937 60.4109 236.11C60.6242 236.283 60.9025 236.37 61.2458 236.37Z" fill="#36536B"/>
<path d="M55.8602 231.73C56.2302 231.73 56.5636 231.802 56.8602 231.945C57.1569 232.085 57.3986 232.285 57.5852 232.545C57.7752 232.805 57.8936 233.112 57.9402 233.465H57.1202C57.0902 233.285 57.0202 233.12 56.9102 232.97C56.8036 232.82 56.6619 232.7 56.4852 232.61C56.3086 232.52 56.1019 232.475 55.8652 232.475C55.4219 232.475 55.0619 232.635 54.7852 232.955C54.5086 233.275 54.3702 233.765 54.3702 234.425C54.3702 235.022 54.4969 235.5 54.7502 235.86C55.0069 236.217 55.3836 236.395 55.8802 236.395C56.1169 236.395 56.3219 236.35 56.4952 236.26C56.6719 236.167 56.8136 236.045 56.9202 235.895C57.0269 235.742 57.0952 235.578 57.1252 235.405H57.9302C57.8869 235.752 57.7702 236.052 57.5802 236.305C57.3902 236.558 57.1469 236.755 56.8502 236.895C56.5569 237.032 56.2269 237.1 55.8602 237.1C55.3969 237.1 54.9852 236.998 54.6252 236.795C54.2686 236.592 53.9886 236.292 53.7852 235.895C53.5819 235.498 53.4802 235.012 53.4802 234.435C53.4802 233.895 53.5719 233.423 53.7552 233.02C53.9419 232.613 54.2119 232.297 54.5652 232.07C54.9219 231.843 55.3536 231.73 55.8602 231.73Z" fill="#36536B"/>
<path d="M50.4696 231.73C50.8396 231.73 51.1729 231.802 51.4696 231.945C51.7663 232.085 52.0079 232.285 52.1946 232.545C52.3846 232.805 52.5029 233.112 52.5496 233.465H51.7296C51.6996 233.285 51.6296 233.12 51.5196 232.97C51.4129 232.82 51.2713 232.7 51.0946 232.61C50.9179 232.52 50.7113 232.475 50.4746 232.475C50.0313 232.475 49.6713 232.635 49.3946 232.955C49.1179 233.275 48.9796 233.765 48.9796 234.425C48.9796 235.022 49.1063 235.5 49.3596 235.86C49.6163 236.217 49.9929 236.395 50.4896 236.395C50.7263 236.395 50.9313 236.35 51.1046 236.26C51.2813 236.167 51.4229 236.045 51.5296 235.895C51.6363 235.742 51.7046 235.578 51.7346 235.405H52.5396C52.4963 235.752 52.3796 236.052 52.1896 236.305C51.9996 236.558 51.7563 236.755 51.4596 236.895C51.1663 237.032 50.8363 237.1 50.4696 237.1C50.0063 237.1 49.5946 236.998 49.2346 236.795C48.8779 236.592 48.5979 236.292 48.3946 235.895C48.1913 235.498 48.0896 235.012 48.0896 234.435C48.0896 233.895 48.1813 233.423 48.3646 233.02C48.5513 232.613 48.8213 232.297 49.1746 232.07C49.5313 231.843 49.9629 231.73 50.4696 231.73Z" fill="#36536B"/>
<path d="M44.195 237.1C43.8617 237.1 43.5667 237.042 43.31 236.925C43.0533 236.805 42.8517 236.633 42.705 236.41C42.5617 236.187 42.49 235.917 42.49 235.6C42.49 235.027 42.69 234.6 43.09 234.32C43.49 234.04 44.1317 233.89 45.015 233.87L45.94 233.845V233.44C45.94 233.123 45.845 232.873 45.655 232.69C45.465 232.503 45.17 232.41 44.77 232.41C44.4733 232.413 44.2117 232.483 43.985 232.62C43.7617 232.757 43.6167 232.98 43.55 233.29H42.735C42.755 232.953 42.85 232.67 43.02 232.44C43.19 232.207 43.4267 232.03 43.73 231.91C44.0367 231.79 44.3983 231.73 44.815 231.73C45.265 231.73 45.6383 231.793 45.935 231.92C46.235 232.047 46.4583 232.233 46.605 232.48C46.755 232.727 46.83 233.03 46.83 233.39V237H46.04L45.975 236.03C45.775 236.433 45.52 236.713 45.21 236.87C44.9033 237.023 44.565 237.1 44.195 237.1ZM44.475 236.435C44.6483 236.435 44.82 236.403 44.99 236.34C45.1633 236.277 45.3217 236.192 45.465 236.085C45.6083 235.975 45.7217 235.853 45.805 235.72C45.8917 235.583 45.9367 235.443 45.94 235.3V234.415L45.17 234.43C44.7767 234.437 44.4467 234.477 44.18 234.55C43.9167 234.623 43.7183 234.738 43.585 234.895C43.455 235.052 43.39 235.257 43.39 235.51C43.39 235.8 43.49 236.027 43.69 236.19C43.8933 236.353 44.155 236.435 44.475 236.435Z" fill="#36536B"/>
<path d="M191.222 223V217.83H192.102V218.825C192.189 218.578 192.31 218.375 192.467 218.215C192.624 218.052 192.802 217.93 193.002 217.85C193.205 217.77 193.415 217.73 193.632 217.73C193.709 217.73 193.784 217.735 193.857 217.745C193.93 217.755 193.987 217.772 194.027 217.795V218.69C193.977 218.667 193.912 218.652 193.832 218.645C193.755 218.635 193.69 218.63 193.637 218.63C193.43 218.617 193.237 218.63 193.057 218.67C192.877 218.707 192.719 218.772 192.582 218.865C192.445 218.958 192.337 219.082 192.257 219.235C192.18 219.385 192.142 219.568 192.142 219.785V223H191.222Z" fill="#36536B"/>
<path d="M187.341 223.1C187.071 223.097 186.816 223.058 186.576 222.985C186.339 222.908 186.129 222.797 185.946 222.65C185.762 222.503 185.617 222.322 185.511 222.105C185.407 221.885 185.356 221.63 185.356 221.34V217.83H186.281V221.245C186.281 221.582 186.384 221.855 186.591 222.065C186.801 222.275 187.116 222.38 187.536 222.38C187.916 222.38 188.221 222.282 188.451 222.085C188.684 221.885 188.801 221.588 188.801 221.195V217.83H189.721V223H188.986L188.891 222.01C188.827 222.27 188.719 222.48 188.566 222.64C188.416 222.8 188.234 222.918 188.021 222.995C187.811 223.068 187.584 223.103 187.341 223.1Z" fill="#36536B"/>
<path d="M181.959 223.1C181.482 223.1 181.065 222.998 180.709 222.795C180.352 222.588 180.075 222.287 179.879 221.89C179.682 221.493 179.584 221.008 179.584 220.435C179.584 219.895 179.675 219.422 179.859 219.015C180.042 218.608 180.31 218.293 180.664 218.07C181.02 217.843 181.452 217.73 181.959 217.73C182.435 217.73 182.849 217.835 183.199 218.045C183.552 218.252 183.825 218.557 184.019 218.96C184.212 219.363 184.309 219.855 184.309 220.435C184.309 220.962 184.219 221.425 184.039 221.825C183.862 222.225 183.599 222.538 183.249 222.765C182.902 222.988 182.472 223.1 181.959 223.1ZM181.959 222.37C182.269 222.37 182.53 222.292 182.744 222.135C182.957 221.978 183.119 221.753 183.229 221.46C183.339 221.167 183.394 220.818 183.394 220.415C183.394 220.045 183.345 219.713 183.249 219.42C183.152 219.123 182.997 218.888 182.784 218.715C182.574 218.542 182.299 218.455 181.959 218.455C181.645 218.455 181.38 218.533 181.164 218.69C180.947 218.843 180.782 219.067 180.669 219.36C180.559 219.653 180.504 220.005 180.504 220.415C180.504 220.778 180.554 221.108 180.654 221.405C180.754 221.702 180.91 221.937 181.124 222.11C181.337 222.283 181.615 222.37 181.959 222.37Z" fill="#36536B"/>
<path d="M175.267 224.65C174.964 224.65 174.755 224.628 174.642 224.585C174.529 224.542 174.472 224.52 174.472 224.52V223.92L174.997 223.93C175.191 223.937 175.351 223.923 175.477 223.89C175.604 223.857 175.705 223.812 175.782 223.755C175.859 223.698 175.917 223.635 175.957 223.565C176.001 223.495 176.036 223.428 176.062 223.365L176.242 222.875L174.222 217.83H175.157L176.682 221.82L178.197 217.83H179.102L176.922 223.39C176.789 223.717 176.639 223.972 176.472 224.155C176.309 224.338 176.125 224.467 175.922 224.54C175.722 224.613 175.504 224.65 175.267 224.65Z" fill="#36536B"/>
<path d="M163.859 223V217.83H164.749V218.58C164.892 218.353 165.089 218.155 165.339 217.985C165.589 217.815 165.914 217.73 166.314 217.73C166.5 217.73 166.69 217.762 166.884 217.825C167.08 217.888 167.26 217.983 167.424 218.11C167.587 218.237 167.714 218.392 167.804 218.575C167.964 218.322 168.18 218.118 168.454 217.965C168.727 217.808 169.035 217.73 169.379 217.73C169.559 217.73 169.747 217.758 169.944 217.815C170.14 217.868 170.322 217.965 170.489 218.105C170.659 218.242 170.797 218.433 170.904 218.68C171.01 218.923 171.064 219.237 171.064 219.62V223H170.134V219.71C170.134 219.397 170.084 219.155 169.984 218.985C169.884 218.812 169.752 218.69 169.589 218.62C169.429 218.55 169.257 218.515 169.074 218.515C168.914 218.515 168.744 218.547 168.564 218.61C168.384 218.673 168.23 218.78 168.104 218.93C167.977 219.08 167.914 219.285 167.914 219.545V223H166.994V219.44C166.994 219.237 166.939 219.067 166.829 218.93C166.722 218.793 166.587 218.69 166.424 218.62C166.264 218.55 166.104 218.515 165.944 218.515C165.767 218.515 165.589 218.55 165.409 218.62C165.232 218.69 165.082 218.802 164.959 218.955C164.839 219.105 164.779 219.302 164.779 219.545V223H163.859Z" fill="#36536B"/>
<path d="M160.299 223.1C159.822 223.1 159.405 222.998 159.049 222.795C158.692 222.588 158.415 222.287 158.219 221.89C158.022 221.493 157.924 221.008 157.924 220.435C157.924 219.895 158.015 219.422 158.199 219.015C158.382 218.608 158.65 218.293 159.004 218.07C159.36 217.843 159.792 217.73 160.299 217.73C160.775 217.73 161.189 217.835 161.539 218.045C161.892 218.252 162.165 218.557 162.359 218.96C162.552 219.363 162.649 219.855 162.649 220.435C162.649 220.962 162.559 221.425 162.379 221.825C162.202 222.225 161.939 222.538 161.589 222.765C161.242 222.988 160.812 223.1 160.299 223.1ZM160.299 222.37C160.609 222.37 160.87 222.292 161.084 222.135C161.297 221.978 161.459 221.753 161.569 221.46C161.679 221.167 161.734 220.818 161.734 220.415C161.734 220.045 161.685 219.713 161.589 219.42C161.492 219.123 161.337 218.888 161.124 218.715C160.914 218.542 160.639 218.455 160.299 218.455C159.985 218.455 159.72 218.533 159.504 218.69C159.287 218.843 159.122 219.067 159.009 219.36C158.899 219.653 158.844 220.005 158.844 220.415C158.844 220.778 158.894 221.108 158.994 221.405C159.094 221.702 159.25 221.937 159.464 222.11C159.677 222.283 159.955 222.37 160.299 222.37Z" fill="#36536B"/>
<path d="M154.474 223V217.83H155.354V218.825C155.441 218.578 155.562 218.375 155.719 218.215C155.876 218.052 156.054 217.93 156.254 217.85C156.457 217.77 156.667 217.73 156.884 217.73C156.961 217.73 157.036 217.735 157.109 217.745C157.182 217.755 157.239 217.772 157.279 217.795V218.69C157.229 218.667 157.164 218.652 157.084 218.645C157.007 218.635 156.942 218.63 156.889 218.63C156.682 218.617 156.489 218.63 156.309 218.67C156.129 218.707 155.971 218.772 155.834 218.865C155.697 218.958 155.589 219.082 155.509 219.235C155.432 219.385 155.394 219.568 155.394 219.785V223H154.474Z" fill="#36536B"/>
<path d="M153.331 217.83V218.505H152.076V223H151.146V218.505H150.056V217.83H151.146V217.03C151.146 216.62 151.251 216.308 151.461 216.095C151.671 215.878 151.985 215.77 152.401 215.77H153.376L153.381 216.425H152.606C152.396 216.425 152.253 216.482 152.176 216.595C152.1 216.708 152.061 216.88 152.061 217.11V217.83H153.331Z" fill="#36536B"/>
<path d="M144.025 223.1C143.355 223.1 142.823 222.87 142.43 222.41C142.036 221.95 141.84 221.278 141.84 220.395C141.84 219.858 141.918 219.39 142.075 218.99C142.235 218.59 142.471 218.28 142.785 218.06C143.098 217.84 143.488 217.73 143.955 217.73C144.201 217.73 144.42 217.762 144.61 217.825C144.803 217.888 144.97 217.968 145.11 218.065C145.25 218.162 145.363 218.262 145.45 218.365C145.54 218.468 145.606 218.563 145.65 218.65V215.57H146.58V223H145.875L145.775 221.94C145.741 222.04 145.688 222.157 145.615 222.29C145.541 222.42 145.438 222.548 145.305 222.675C145.171 222.798 145 222.9 144.79 222.98C144.583 223.06 144.328 223.1 144.025 223.1ZM144.19 222.39C144.713 222.39 145.086 222.232 145.31 221.915C145.536 221.595 145.65 221.073 145.65 220.35C145.646 219.947 145.595 219.603 145.495 219.32C145.398 219.037 145.245 218.822 145.035 218.675C144.828 218.525 144.553 218.45 144.21 218.45C143.783 218.45 143.436 218.602 143.17 218.905C142.903 219.208 142.77 219.69 142.77 220.35C142.77 220.997 142.89 221.498 143.13 221.855C143.373 222.212 143.726 222.39 144.19 222.39Z" fill="#36536B"/>
<path d="M137.185 220.63C137.185 220.957 137.238 221.253 137.345 221.52C137.455 221.783 137.62 221.993 137.84 222.15C138.063 222.307 138.341 222.385 138.675 222.385C139.005 222.385 139.288 222.308 139.525 222.155C139.765 222.002 139.918 221.78 139.985 221.49H140.86C140.796 221.84 140.656 222.135 140.44 222.375C140.223 222.615 139.961 222.797 139.655 222.92C139.348 223.04 139.028 223.1 138.695 223.1C138.211 223.1 137.786 222.995 137.42 222.785C137.053 222.575 136.766 222.273 136.56 221.88C136.353 221.487 136.25 221.015 136.25 220.465C136.25 219.922 136.343 219.445 136.53 219.035C136.716 218.625 136.986 218.305 137.34 218.075C137.696 217.845 138.125 217.73 138.625 217.73C139.111 217.73 139.523 217.835 139.86 218.045C140.196 218.255 140.451 218.552 140.625 218.935C140.801 219.315 140.89 219.767 140.89 220.29V220.63H137.185ZM137.19 220.005H140C140 219.708 139.95 219.442 139.85 219.205C139.75 218.965 139.596 218.777 139.39 218.64C139.186 218.5 138.93 218.43 138.62 218.43C138.296 218.43 138.028 218.508 137.815 218.665C137.605 218.818 137.446 219.017 137.34 219.26C137.236 219.5 137.186 219.748 137.19 220.005Z" fill="#36536B"/>
<path d="M135.333 218.505H134.168V221.72C134.168 221.903 134.186 222.038 134.223 222.125C134.263 222.208 134.328 222.262 134.418 222.285C134.511 222.308 134.638 222.32 134.798 222.32H135.363V222.94C135.3 222.963 135.203 222.983 135.073 223C134.946 223.017 134.788 223.025 134.598 223.025C134.241 223.025 133.965 222.977 133.768 222.88C133.571 222.783 133.433 222.64 133.353 222.45C133.276 222.26 133.238 222.027 133.238 221.75V218.505H132.398V217.83H133.263L133.488 216.325H134.168V217.825H135.333V218.505Z" fill="#36536B"/>
<path d="M129.542 217.73C129.912 217.73 130.245 217.802 130.542 217.945C130.839 218.085 131.08 218.285 131.267 218.545C131.457 218.805 131.575 219.112 131.622 219.465H130.802C130.772 219.285 130.702 219.12 130.592 218.97C130.485 218.82 130.344 218.7 130.167 218.61C129.99 218.52 129.784 218.475 129.547 218.475C129.104 218.475 128.744 218.635 128.467 218.955C128.19 219.275 128.052 219.765 128.052 220.425C128.052 221.022 128.179 221.5 128.432 221.86C128.689 222.217 129.065 222.395 129.562 222.395C129.799 222.395 130.004 222.35 130.177 222.26C130.354 222.167 130.495 222.045 130.602 221.895C130.709 221.742 130.777 221.578 130.807 221.405H131.612C131.569 221.752 131.452 222.052 131.262 222.305C131.072 222.558 130.829 222.755 130.532 222.895C130.239 223.032 129.909 223.1 129.542 223.1C129.079 223.1 128.667 222.998 128.307 222.795C127.95 222.592 127.67 222.292 127.467 221.895C127.264 221.498 127.162 221.012 127.162 220.435C127.162 219.895 127.254 219.423 127.437 219.02C127.624 218.613 127.894 218.297 128.247 218.07C128.604 217.843 129.035 217.73 129.542 217.73Z" fill="#36536B"/>
<path d="M123.659 223.1C123.389 223.097 123.134 223.058 122.894 222.985C122.657 222.908 122.447 222.797 122.264 222.65C122.081 222.503 121.936 222.322 121.829 222.105C121.726 221.885 121.674 221.63 121.674 221.34V217.83H122.599V221.245C122.599 221.582 122.702 221.855 122.909 222.065C123.119 222.275 123.434 222.38 123.854 222.38C124.234 222.38 124.539 222.282 124.769 222.085C125.002 221.885 125.119 221.588 125.119 221.195V217.83H126.039V223H125.304L125.209 222.01C125.146 222.27 125.037 222.48 124.884 222.64C124.734 222.8 124.552 222.918 124.339 222.995C124.129 223.068 123.902 223.103 123.659 223.1Z" fill="#36536B"/>
<path d="M117.677 223.1C117.007 223.1 116.475 222.87 116.082 222.41C115.689 221.95 115.492 221.278 115.492 220.395C115.492 219.858 115.57 219.39 115.727 218.99C115.887 218.59 116.124 218.28 116.437 218.06C116.75 217.84 117.14 217.73 117.607 217.73C117.854 217.73 118.072 217.762 118.262 217.825C118.455 217.888 118.622 217.968 118.762 218.065C118.902 218.162 119.015 218.262 119.102 218.365C119.192 218.468 119.259 218.563 119.302 218.65V215.57H120.232V223H119.527L119.427 221.94C119.394 222.04 119.34 222.157 119.267 222.29C119.194 222.42 119.09 222.548 118.957 222.675C118.824 222.798 118.652 222.9 118.442 222.98C118.235 223.06 117.98 223.1 117.677 223.1ZM117.842 222.39C118.365 222.39 118.739 222.232 118.962 221.915C119.189 221.595 119.302 221.073 119.302 220.35C119.299 219.947 119.247 219.603 119.147 219.32C119.05 219.037 118.897 218.822 118.687 218.675C118.48 218.525 118.205 218.45 117.862 218.45C117.435 218.45 117.089 218.602 116.822 218.905C116.555 219.208 116.422 219.69 116.422 220.35C116.422 220.997 116.542 221.498 116.782 221.855C117.025 222.212 117.379 222.39 117.842 222.39Z" fill="#36536B"/>
<path d="M110.837 220.63C110.837 220.957 110.89 221.253 110.997 221.52C111.107 221.783 111.272 221.993 111.492 222.15C111.715 222.307 111.994 222.385 112.327 222.385C112.657 222.385 112.94 222.308 113.177 222.155C113.417 222.002 113.57 221.78 113.637 221.49H114.512C114.449 221.84 114.309 222.135 114.092 222.375C113.875 222.615 113.614 222.797 113.307 222.92C113 223.04 112.68 223.1 112.347 223.1C111.864 223.1 111.439 222.995 111.072 222.785C110.705 222.575 110.419 222.273 110.212 221.88C110.005 221.487 109.902 221.015 109.902 220.465C109.902 219.922 109.995 219.445 110.182 219.035C110.369 218.625 110.639 218.305 110.992 218.075C111.349 217.845 111.777 217.73 112.277 217.73C112.764 217.73 113.175 217.835 113.512 218.045C113.849 218.255 114.104 218.552 114.277 218.935C114.454 219.315 114.542 219.767 114.542 220.29V220.63H110.837ZM110.842 220.005H113.652C113.652 219.708 113.602 219.442 113.502 219.205C113.402 218.965 113.249 218.777 113.042 218.64C112.839 218.5 112.582 218.43 112.272 218.43C111.949 218.43 111.68 218.508 111.467 218.665C111.257 218.818 111.099 219.017 110.992 219.26C110.889 219.5 110.839 219.748 110.842 220.005Z" fill="#36536B"/>
<path d="M106.095 223.1C105.425 223.1 104.893 222.87 104.5 222.41C104.107 221.95 103.91 221.278 103.91 220.395C103.91 219.858 103.988 219.39 104.145 218.99C104.305 218.59 104.542 218.28 104.855 218.06C105.168 217.84 105.558 217.73 106.025 217.73C106.272 217.73 106.49 217.762 106.68 217.825C106.873 217.888 107.04 217.968 107.18 218.065C107.32 218.162 107.433 218.262 107.52 218.365C107.61 218.468 107.677 218.563 107.72 218.65V215.57H108.65V223H107.945L107.845 221.94C107.812 222.04 107.758 222.157 107.685 222.29C107.612 222.42 107.508 222.548 107.375 222.675C107.242 222.798 107.07 222.9 106.86 222.98C106.653 223.06 106.398 223.1 106.095 223.1ZM106.26 222.39C106.783 222.39 107.157 222.232 107.38 221.915C107.607 221.595 107.72 221.073 107.72 220.35C107.717 219.947 107.665 219.603 107.565 219.32C107.468 219.037 107.315 218.822 107.105 218.675C106.898 218.525 106.623 218.45 106.28 218.45C105.853 218.45 105.507 218.602 105.24 218.905C104.973 219.208 104.84 219.69 104.84 220.35C104.84 220.997 104.96 221.498 105.2 221.855C105.443 222.212 105.797 222.39 106.26 222.39Z" fill="#36536B"/>
<path d="M100.724 218.505H99.5586V221.72C99.5586 221.903 99.5769 222.038 99.6136 222.125C99.6536 222.208 99.7186 222.262 99.8086 222.285C99.9019 222.308 100.029 222.32 100.189 222.32H100.754V222.94C100.69 222.963 100.594 222.983 100.464 223C100.337 223.017 100.179 223.025 99.9886 223.025C99.6319 223.025 99.3552 222.977 99.1586 222.88C98.9619 222.783 98.8236 222.64 98.7436 222.45C98.6669 222.26 98.6286 222.027 98.6286 221.75V218.505H97.7886V217.83H98.6536L98.8786 216.325H99.5586V217.825H100.724V218.505Z" fill="#36536B"/>
<path d="M92.5696 223V217.83H93.4646V218.58C93.5479 218.437 93.6629 218.302 93.8096 218.175C93.9596 218.048 94.1396 217.947 94.3496 217.87C94.5629 217.793 94.8079 217.755 95.0846 217.755C95.4112 217.755 95.7112 217.82 95.9846 217.95C96.2612 218.08 96.4812 218.283 96.6446 218.56C96.8112 218.833 96.8946 219.187 96.8946 219.62V223H95.9696V219.71C95.9696 219.307 95.8629 219.008 95.6496 218.815C95.4396 218.618 95.1662 218.52 94.8296 218.52C94.5962 218.52 94.3779 218.558 94.1746 218.635C93.9712 218.708 93.8062 218.822 93.6796 218.975C93.5529 219.125 93.4896 219.315 93.4896 219.545V223H92.5696Z" fill="#36536B"/>
<path d="M88.6884 223.1C88.4184 223.097 88.1634 223.058 87.9234 222.985C87.6867 222.908 87.4767 222.797 87.2934 222.65C87.11 222.503 86.965 222.322 86.8584 222.105C86.755 221.885 86.7034 221.63 86.7034 221.34V217.83H87.6284V221.245C87.6284 221.582 87.7317 221.855 87.9384 222.065C88.1484 222.275 88.4634 222.38 88.8834 222.38C89.2634 222.38 89.5684 222.282 89.7984 222.085C90.0317 221.885 90.1484 221.588 90.1484 221.195V217.83H91.0684V223H90.3334L90.2384 222.01C90.175 222.27 90.0667 222.48 89.9134 222.64C89.7634 222.8 89.5817 222.918 89.3684 222.995C89.1584 223.068 88.9317 223.103 88.6884 223.1Z" fill="#36536B"/>
<path d="M83.3064 223.1C82.8297 223.1 82.4131 222.998 82.0564 222.795C81.6997 222.588 81.4231 222.287 81.2264 221.89C81.0297 221.493 80.9314 221.008 80.9314 220.435C80.9314 219.895 81.0231 219.422 81.2064 219.015C81.3897 218.608 81.6581 218.293 82.0114 218.07C82.3681 217.843 82.7997 217.73 83.3064 217.73C83.7831 217.73 84.1964 217.835 84.5464 218.045C84.8997 218.252 85.1731 218.557 85.3664 218.96C85.5597 219.363 85.6564 219.855 85.6564 220.435C85.6564 220.962 85.5664 221.425 85.3864 221.825C85.2097 222.225 84.9464 222.538 84.5964 222.765C84.2497 222.988 83.8197 223.1 83.3064 223.1ZM83.3064 222.37C83.6164 222.37 83.8781 222.292 84.0914 222.135C84.3047 221.978 84.4664 221.753 84.5764 221.46C84.6864 221.167 84.7414 220.818 84.7414 220.415C84.7414 220.045 84.6931 219.713 84.5964 219.42C84.4997 219.123 84.3447 218.888 84.1314 218.715C83.9214 218.542 83.6464 218.455 83.3064 218.455C82.9931 218.455 82.7281 218.533 82.5114 218.69C82.2947 218.843 82.1297 219.067 82.0164 219.36C81.9064 219.653 81.8514 220.005 81.8514 220.415C81.8514 220.778 81.9014 221.108 82.0014 221.405C82.1014 221.702 82.2581 221.937 82.4714 222.11C82.6847 222.283 82.9631 222.37 83.3064 222.37Z" fill="#36536B"/>
<path d="M72.5989 223V217.83H73.4889V218.58C73.6322 218.353 73.8289 218.155 74.0789 217.985C74.3289 217.815 74.6539 217.73 75.0539 217.73C75.2405 217.73 75.4305 217.762 75.6239 217.825C75.8205 217.888 76.0005 217.983 76.1639 218.11C76.3272 218.237 76.4539 218.392 76.5439 218.575C76.7039 218.322 76.9205 218.118 77.1939 217.965C77.4672 217.808 77.7755 217.73 78.1189 217.73C78.2989 217.73 78.4872 217.758 78.6839 217.815C78.8805 217.868 79.0622 217.965 79.2289 218.105C79.3989 218.242 79.5372 218.433 79.6439 218.68C79.7505 218.923 79.8039 219.237 79.8039 219.62V223H78.8739V219.71C78.8739 219.397 78.8239 219.155 78.7239 218.985C78.6239 218.812 78.4922 218.69 78.3289 218.62C78.1689 218.55 77.9972 218.515 77.8139 218.515C77.6539 218.515 77.4839 218.547 77.3039 218.61C77.1239 218.673 76.9705 218.78 76.8439 218.93C76.7172 219.08 76.6539 219.285 76.6539 219.545V223H75.7339V219.44C75.7339 219.237 75.6789 219.067 75.5689 218.93C75.4622 218.793 75.3272 218.69 75.1639 218.62C75.0039 218.55 74.8439 218.515 74.6839 218.515C74.5072 218.515 74.3289 218.55 74.1489 218.62C73.9722 218.69 73.8222 218.802 73.6989 218.955C73.5789 219.105 73.5189 219.302 73.5189 219.545V223H72.5989Z" fill="#36536B"/>
<path d="M68.3844 223.1C68.0511 223.1 67.7561 223.042 67.4994 222.925C67.2428 222.805 67.0411 222.633 66.8944 222.41C66.7511 222.187 66.6794 221.917 66.6794 221.6C66.6794 221.027 66.8794 220.6 67.2794 220.32C67.6794 220.04 68.3211 219.89 69.2044 219.87L70.1294 219.845V219.44C70.1294 219.123 70.0344 218.873 69.8444 218.69C69.6544 218.503 69.3594 218.41 68.9594 218.41C68.6628 218.413 68.4011 218.483 68.1744 218.62C67.9511 218.757 67.8061 218.98 67.7394 219.29H66.9244C66.9444 218.953 67.0394 218.67 67.2094 218.44C67.3794 218.207 67.6161 218.03 67.9194 217.91C68.2261 217.79 68.5878 217.73 69.0044 217.73C69.4544 217.73 69.8278 217.793 70.1244 217.92C70.4244 218.047 70.6478 218.233 70.7944 218.48C70.9444 218.727 71.0194 219.03 71.0194 219.39V223H70.2294L70.1644 222.03C69.9644 222.433 69.7094 222.713 69.3994 222.87C69.0928 223.023 68.7544 223.1 68.3844 223.1ZM68.6644 222.435C68.8378 222.435 69.0094 222.403 69.1794 222.34C69.3528 222.277 69.5111 222.192 69.6544 222.085C69.7978 221.975 69.9111 221.853 69.9944 221.72C70.0811 221.583 70.1261 221.443 70.1294 221.3V220.415L69.3594 220.43C68.9661 220.437 68.6361 220.477 68.3694 220.55C68.1061 220.623 67.9078 220.738 67.7744 220.895C67.6444 221.052 67.5794 221.257 67.5794 221.51C67.5794 221.8 67.6794 222.027 67.8794 222.19C68.0828 222.353 68.3444 222.435 68.6644 222.435Z" fill="#36536B"/>
<path d="M62.9761 223.065C62.6961 223.065 62.4695 223.027 62.2961 222.95C62.1261 222.873 61.9945 222.77 61.9011 222.64C61.8111 222.51 61.7495 222.362 61.7161 222.195C61.6861 222.025 61.6711 221.85 61.6711 221.67V215.57H62.5811V221.58C62.5811 221.84 62.6311 222.035 62.7311 222.165C62.8345 222.295 62.9778 222.367 63.1611 222.38L63.4411 222.385V222.985C63.3645 223.008 63.2845 223.027 63.2011 223.04C63.1178 223.057 63.0428 223.065 62.9761 223.065Z" fill="#36536B"/>
<path d="M57.4567 223.1C57.1234 223.1 56.8284 223.042 56.5717 222.925C56.315 222.805 56.1134 222.633 55.9667 222.41C55.8234 222.187 55.7517 221.917 55.7517 221.6C55.7517 221.027 55.9517 220.6 56.3517 220.32C56.7517 220.04 57.3934 219.89 58.2767 219.87L59.2017 219.845V219.44C59.2017 219.123 59.1067 218.873 58.9167 218.69C58.7267 218.503 58.4317 218.41 58.0317 218.41C57.735 218.413 57.4734 218.483 57.2467 218.62C57.0234 218.757 56.8784 218.98 56.8117 219.29H55.9967C56.0167 218.953 56.1117 218.67 56.2817 218.44C56.4517 218.207 56.6884 218.03 56.9917 217.91C57.2984 217.79 57.66 217.73 58.0767 217.73C58.5267 217.73 58.9 217.793 59.1967 217.92C59.4967 218.047 59.72 218.233 59.8667 218.48C60.0167 218.727 60.0917 219.03 60.0917 219.39V223H59.3017L59.2367 222.03C59.0367 222.433 58.7817 222.713 58.4717 222.87C58.165 223.023 57.8267 223.1 57.4567 223.1ZM57.7367 222.435C57.91 222.435 58.0817 222.403 58.2517 222.34C58.425 222.277 58.5834 222.192 58.7267 222.085C58.87 221.975 58.9834 221.853 59.0667 221.72C59.1534 221.583 59.1984 221.443 59.2017 221.3V220.415L58.4317 220.43C58.0384 220.437 57.7084 220.477 57.4417 220.55C57.1784 220.623 56.98 220.738 56.8467 220.895C56.7167 221.052 56.6517 221.257 56.6517 221.51C56.6517 221.8 56.7517 222.027 56.9517 222.19C57.155 222.353 57.4167 222.435 57.7367 222.435Z" fill="#36536B"/>
<path d="M54.7275 218.505H53.5625V221.72C53.5625 221.903 53.5808 222.038 53.6175 222.125C53.6575 222.208 53.7225 222.262 53.8125 222.285C53.9058 222.308 54.0325 222.32 54.1925 222.32H54.7575V222.94C54.6941 222.963 54.5975 222.983 54.4675 223C54.3408 223.017 54.1825 223.025 53.9925 223.025C53.6358 223.025 53.3591 222.977 53.1625 222.88C52.9658 222.783 52.8275 222.64 52.7475 222.45C52.6708 222.26 52.6325 222.027 52.6325 221.75V218.505H51.7925V217.83H52.6575L52.8825 216.325H53.5625V217.825H54.7275V218.505Z" fill="#36536B"/>
<path d="M48.7068 223.1C48.2301 223.1 47.8135 222.998 47.4568 222.795C47.1001 222.588 46.8235 222.287 46.6268 221.89C46.4301 221.493 46.3318 221.008 46.3318 220.435C46.3318 219.895 46.4235 219.422 46.6068 219.015C46.7901 218.608 47.0585 218.293 47.4118 218.07C47.7685 217.843 48.2001 217.73 48.7068 217.73C49.1835 217.73 49.5968 217.835 49.9468 218.045C50.3001 218.252 50.5735 218.557 50.7668 218.96C50.9601 219.363 51.0568 219.855 51.0568 220.435C51.0568 220.962 50.9668 221.425 50.7868 221.825C50.6101 222.225 50.3468 222.538 49.9968 222.765C49.6501 222.988 49.2201 223.1 48.7068 223.1ZM48.7068 222.37C49.0168 222.37 49.2785 222.292 49.4918 222.135C49.7051 221.978 49.8668 221.753 49.9768 221.46C50.0868 221.167 50.1418 220.818 50.1418 220.415C50.1418 220.045 50.0935 219.713 49.9968 219.42C49.9001 219.123 49.7451 218.888 49.5318 218.715C49.3218 218.542 49.0468 218.455 48.7068 218.455C48.3935 218.455 48.1285 218.533 47.9118 218.69C47.6951 218.843 47.5301 219.067 47.4168 219.36C47.3068 219.653 47.2518 220.005 47.2518 220.415C47.2518 220.778 47.3018 221.108 47.4018 221.405C47.5018 221.702 47.6585 221.937 47.8718 222.11C48.0851 222.283 48.3635 222.37 48.7068 222.37Z" fill="#36536B"/>
<path d="M45.4599 218.505H44.2949V221.72C44.2949 221.903 44.3132 222.038 44.3499 222.125C44.3899 222.208 44.4549 222.262 44.5449 222.285C44.6382 222.308 44.7649 222.32 44.9249 222.32H45.4899V222.94C45.4266 222.963 45.3299 222.983 45.1999 223C45.0732 223.017 44.9149 223.025 44.7249 223.025C44.3682 223.025 44.0916 222.977 43.8949 222.88C43.6982 222.783 43.5599 222.64 43.4799 222.45C43.4032 222.26 43.3649 222.027 43.3649 221.75V218.505H42.5249V217.83H43.3899L43.6149 216.325H44.2949V217.825H45.4599V218.505Z" fill="#36536B"/>
<path d="M214.011 206.63C214.011 206.957 214.064 207.253 214.171 207.52C214.281 207.783 214.446 207.993 214.666 208.15C214.889 208.307 215.168 208.385 215.501 208.385C215.831 208.385 216.114 208.308 216.351 208.155C216.591 208.002 216.744 207.78 216.811 207.49H217.686C217.623 207.84 217.483 208.135 217.266 208.375C217.049 208.615 216.788 208.797 216.481 208.92C216.174 209.04 215.854 209.1 215.521 209.1C215.038 209.1 214.613 208.995 214.246 208.785C213.879 208.575 213.593 208.273 213.386 207.88C213.179 207.487 213.076 207.015 213.076 206.465C213.076 205.922 213.169 205.445 213.356 205.035C213.543 204.625 213.813 204.305 214.166 204.075C214.523 203.845 214.951 203.73 215.451 203.73C215.938 203.73 216.349 203.835 216.686 204.045C217.023 204.255 217.278 204.552 217.451 204.935C217.628 205.315 217.716 205.767 217.716 206.29V206.63H214.011ZM214.016 206.005H216.826C216.826 205.708 216.776 205.442 216.676 205.205C216.576 204.965 216.423 204.777 216.216 204.64C216.013 204.5 215.756 204.43 215.446 204.43C215.123 204.43 214.854 204.508 214.641 204.665C214.431 204.818 214.273 205.017 214.166 205.26C214.063 205.5 214.013 205.748 214.016 206.005Z" fill="#36536B"/>
<path d="M207.589 209V201.57H208.489V204.59C208.576 204.447 208.692 204.313 208.839 204.19C208.986 204.063 209.164 203.962 209.374 203.885C209.584 203.805 209.827 203.765 210.104 203.765C210.441 203.765 210.746 203.828 211.019 203.955C211.292 204.078 211.509 204.255 211.669 204.485C211.829 204.715 211.909 204.988 211.909 205.305V209H210.984V205.49C210.984 205.18 210.877 204.942 210.664 204.775C210.454 204.605 210.179 204.52 209.839 204.52C209.609 204.52 209.392 204.558 209.189 204.635C208.986 204.708 208.821 204.822 208.694 204.975C208.571 205.125 208.509 205.317 208.509 205.55V209H207.589Z" fill="#36536B"/>
<path d="M201.117 202.62V201.77H206.587V202.62H204.382V209H203.452V202.62H201.117Z" fill="#36536B"/>
<path d="M196.935 209V207.82H198.035V209H196.935Z" fill="#36536B"/>
<path d="M193.068 209.1C192.398 209.1 191.866 208.87 191.473 208.41C191.079 207.95 190.883 207.278 190.883 206.395C190.883 205.858 190.961 205.39 191.118 204.99C191.278 204.59 191.514 204.28 191.828 204.06C192.141 203.84 192.531 203.73 192.998 203.73C193.244 203.73 193.463 203.762 193.653 203.825C193.846 203.888 194.013 203.968 194.153 204.065C194.293 204.162 194.406 204.262 194.493 204.365C194.583 204.468 194.649 204.563 194.693 204.65V201.57H195.623V209H194.918L194.818 207.94C194.784 208.04 194.731 208.157 194.658 208.29C194.584 208.42 194.481 208.548 194.348 208.675C194.214 208.798 194.043 208.9 193.833 208.98C193.626 209.06 193.371 209.1 193.068 209.1ZM193.233 208.39C193.756 208.39 194.129 208.232 194.353 207.915C194.579 207.595 194.693 207.073 194.693 206.35C194.689 205.947 194.638 205.603 194.538 205.32C194.441 205.037 194.288 204.822 194.078 204.675C193.871 204.525 193.596 204.45 193.253 204.45C192.826 204.45 192.479 204.602 192.213 204.905C191.946 205.208 191.813 205.69 191.813 206.35C191.813 206.997 191.933 207.498 192.173 207.855C192.416 208.212 192.769 208.39 193.233 208.39Z" fill="#36536B"/>
<path d="M186.228 206.63C186.228 206.957 186.281 207.253 186.388 207.52C186.498 207.783 186.663 207.993 186.883 208.15C187.106 208.307 187.384 208.385 187.718 208.385C188.048 208.385 188.331 208.308 188.568 208.155C188.808 208.002 188.961 207.78 189.028 207.49H189.903C189.839 207.84 189.699 208.135 189.483 208.375C189.266 208.615 189.004 208.797 188.698 208.92C188.391 209.04 188.071 209.1 187.738 209.1C187.254 209.1 186.829 208.995 186.463 208.785C186.096 208.575 185.809 208.273 185.603 207.88C185.396 207.487 185.293 207.015 185.293 206.465C185.293 205.922 185.386 205.445 185.573 205.035C185.759 204.625 186.029 204.305 186.383 204.075C186.739 203.845 187.168 203.73 187.668 203.73C188.154 203.73 188.566 203.835 188.903 204.045C189.239 204.255 189.494 204.552 189.668 204.935C189.844 205.315 189.933 205.767 189.933 206.29V206.63H186.228ZM186.233 206.005H189.043C189.043 205.708 188.993 205.442 188.893 205.205C188.793 204.965 188.639 204.777 188.433 204.64C188.229 204.5 187.973 204.43 187.663 204.43C187.339 204.43 187.071 204.508 186.858 204.665C186.648 204.818 186.489 205.017 186.383 205.26C186.279 205.5 186.229 205.748 186.233 206.005Z" fill="#36536B"/>
<path d="M182.286 209.1C181.926 209.1 181.591 209.045 181.281 208.935C180.974 208.822 180.719 208.647 180.516 208.41C180.312 208.17 180.184 207.865 180.131 207.495H180.971C181.017 207.698 181.101 207.868 181.221 208.005C181.344 208.138 181.497 208.24 181.681 208.31C181.864 208.377 182.064 208.41 182.281 208.41C182.627 208.41 182.907 208.345 183.121 208.215C183.334 208.085 183.441 207.885 183.441 207.615C183.441 207.425 183.384 207.273 183.271 207.16C183.161 207.043 182.989 206.958 182.756 206.905L181.686 206.64C181.269 206.54 180.936 206.383 180.686 206.17C180.436 205.957 180.311 205.658 180.311 205.275C180.307 204.972 180.379 204.705 180.526 204.475C180.672 204.245 180.892 204.063 181.186 203.93C181.479 203.797 181.844 203.73 182.281 203.73C182.841 203.73 183.292 203.857 183.636 204.11C183.982 204.36 184.162 204.728 184.176 205.215H183.361C183.327 204.968 183.216 204.773 183.026 204.63C182.839 204.483 182.587 204.41 182.271 204.41C181.941 204.41 181.672 204.477 181.466 204.61C181.259 204.74 181.156 204.943 181.156 205.22C181.156 205.403 181.229 205.548 181.376 205.655C181.522 205.758 181.739 205.845 182.026 205.915L183.061 206.175C183.301 206.238 183.497 206.322 183.651 206.425C183.807 206.528 183.931 206.643 184.021 206.77C184.114 206.897 184.179 207.03 184.216 207.17C184.256 207.307 184.276 207.438 184.276 207.565C184.276 207.882 184.196 208.155 184.036 208.385C183.879 208.612 183.652 208.788 183.356 208.915C183.062 209.038 182.706 209.1 182.286 209.1Z" fill="#36536B"/>
<path d="M177.247 209.1C176.887 209.1 176.552 209.045 176.242 208.935C175.935 208.822 175.68 208.647 175.477 208.41C175.273 208.17 175.145 207.865 175.092 207.495H175.932C175.978 207.698 176.062 207.868 176.182 208.005C176.305 208.138 176.458 208.24 176.642 208.31C176.825 208.377 177.025 208.41 177.242 208.41C177.588 208.41 177.868 208.345 178.082 208.215C178.295 208.085 178.402 207.885 178.402 207.615C178.402 207.425 178.345 207.273 178.232 207.16C178.122 207.043 177.95 206.958 177.717 206.905L176.647 206.64C176.23 206.54 175.897 206.383 175.647 206.17C175.397 205.957 175.272 205.658 175.272 205.275C175.268 204.972 175.34 204.705 175.487 204.475C175.633 204.245 175.853 204.063 176.147 203.93C176.44 203.797 176.805 203.73 177.242 203.73C177.802 203.73 178.253 203.857 178.597 204.11C178.943 204.36 179.123 204.728 179.137 205.215H178.322C178.288 204.968 178.177 204.773 177.987 204.63C177.8 204.483 177.548 204.41 177.232 204.41C176.902 204.41 176.633 204.477 176.427 204.61C176.22 204.74 176.117 204.943 176.117 205.22C176.117 205.403 176.19 205.548 176.337 205.655C176.483 205.758 176.7 205.845 176.987 205.915L178.022 206.175C178.262 206.238 178.458 206.322 178.612 206.425C178.768 206.528 178.892 206.643 178.982 206.77C179.075 206.897 179.14 207.03 179.177 207.17C179.217 207.307 179.237 207.438 179.237 207.565C179.237 207.882 179.157 208.155 178.997 208.385C178.84 208.612 178.613 208.788 178.317 208.915C178.023 209.038 177.667 209.1 177.247 209.1Z" fill="#36536B"/>
<path d="M170.466 206.63C170.466 206.957 170.519 207.253 170.626 207.52C170.736 207.783 170.901 207.993 171.121 208.15C171.344 208.307 171.623 208.385 171.956 208.385C172.286 208.385 172.569 208.308 172.806 208.155C173.046 208.002 173.199 207.78 173.266 207.49H174.141C174.078 207.84 173.938 208.135 173.721 208.375C173.504 208.615 173.243 208.797 172.936 208.92C172.629 209.04 172.309 209.1 171.976 209.1C171.493 209.1 171.068 208.995 170.701 208.785C170.334 208.575 170.048 208.273 169.841 207.88C169.634 207.487 169.531 207.015 169.531 206.465C169.531 205.922 169.624 205.445 169.811 205.035C169.998 204.625 170.268 204.305 170.621 204.075C170.978 203.845 171.406 203.73 171.906 203.73C172.393 203.73 172.804 203.835 173.141 204.045C173.478 204.255 173.733 204.552 173.906 204.935C174.083 205.315 174.171 205.767 174.171 206.29V206.63H170.466ZM170.471 206.005H173.281C173.281 205.708 173.231 205.442 173.131 205.205C173.031 204.965 172.878 204.777 172.671 204.64C172.468 204.5 172.211 204.43 171.901 204.43C171.578 204.43 171.309 204.508 171.096 204.665C170.886 204.818 170.728 205.017 170.621 205.26C170.518 205.5 170.468 205.748 170.471 206.005Z" fill="#36536B"/>
<path d="M166.475 203.73C166.845 203.73 167.179 203.802 167.475 203.945C167.772 204.085 168.014 204.285 168.2 204.545C168.39 204.805 168.509 205.112 168.555 205.465H167.735C167.705 205.285 167.635 205.12 167.525 204.97C167.419 204.82 167.277 204.7 167.1 204.61C166.924 204.52 166.717 204.475 166.48 204.475C166.037 204.475 165.677 204.635 165.4 204.955C165.124 205.275 164.985 205.765 164.985 206.425C164.985 207.022 165.112 207.5 165.365 207.86C165.622 208.217 165.999 208.395 166.495 208.395C166.732 208.395 166.937 208.35 167.11 208.26C167.287 208.167 167.429 208.045 167.535 207.895C167.642 207.742 167.71 207.578 167.74 207.405H168.545C168.502 207.752 168.385 208.052 168.195 208.305C168.005 208.558 167.762 208.755 167.465 208.895C167.172 209.032 166.842 209.1 166.475 209.1C166.012 209.1 165.6 208.998 165.24 208.795C164.884 208.592 164.604 208.292 164.4 207.895C164.197 207.498 164.095 207.012 164.095 206.435C164.095 205.895 164.187 205.423 164.37 205.02C164.557 204.613 164.827 204.297 165.18 204.07C165.537 203.843 165.969 203.73 166.475 203.73Z" fill="#36536B"/>
<path d="M160.855 209.1C160.379 209.1 159.962 208.998 159.605 208.795C159.249 208.588 158.972 208.287 158.775 207.89C158.579 207.493 158.48 207.008 158.48 206.435C158.48 205.895 158.572 205.422 158.755 205.015C158.939 204.608 159.207 204.293 159.56 204.07C159.917 203.843 160.349 203.73 160.855 203.73C161.332 203.73 161.745 203.835 162.095 204.045C162.449 204.252 162.722 204.557 162.915 204.96C163.109 205.363 163.205 205.855 163.205 206.435C163.205 206.962 163.115 207.425 162.935 207.825C162.759 208.225 162.495 208.538 162.145 208.765C161.799 208.988 161.369 209.1 160.855 209.1ZM160.855 208.37C161.165 208.37 161.427 208.292 161.64 208.135C161.854 207.978 162.015 207.753 162.125 207.46C162.235 207.167 162.29 206.818 162.29 206.415C162.29 206.045 162.242 205.713 162.145 205.42C162.049 205.123 161.894 204.888 161.68 204.715C161.47 204.542 161.195 204.455 160.855 204.455C160.542 204.455 160.277 204.533 160.06 204.69C159.844 204.843 159.679 205.067 159.565 205.36C159.455 205.653 159.4 206.005 159.4 206.415C159.4 206.778 159.45 207.108 159.55 207.405C159.65 207.702 159.807 207.937 160.02 208.11C160.234 208.283 160.512 208.37 160.855 208.37Z" fill="#36536B"/>
<path d="M155.031 209V203.83H155.911V204.825C155.997 204.578 156.119 204.375 156.276 204.215C156.432 204.052 156.611 203.93 156.811 203.85C157.014 203.77 157.224 203.73 157.441 203.73C157.517 203.73 157.592 203.735 157.666 203.745C157.739 203.755 157.796 203.772 157.836 203.795V204.69C157.786 204.667 157.721 204.652 157.641 204.645C157.564 204.635 157.499 204.63 157.446 204.63C157.239 204.617 157.046 204.63 156.866 204.67C156.686 204.707 156.527 204.772 156.391 204.865C156.254 204.958 156.146 205.082 156.066 205.235C155.989 205.385 155.951 205.568 155.951 205.785V209H155.031Z" fill="#36536B"/>
<path d="M149.093 210.61V203.83H150.013L150.023 204.73C150.083 204.623 150.16 204.512 150.253 204.395C150.35 204.278 150.466 204.17 150.603 204.07C150.743 203.97 150.905 203.888 151.088 203.825C151.275 203.762 151.486 203.73 151.723 203.73C152.136 203.73 152.5 203.825 152.813 204.015C153.13 204.202 153.376 204.488 153.553 204.875C153.73 205.262 153.818 205.752 153.818 206.345C153.818 206.938 153.731 207.44 153.558 207.85C153.388 208.257 153.141 208.567 152.818 208.78C152.495 208.993 152.105 209.1 151.648 209.1C151.418 209.1 151.213 209.067 151.033 209C150.856 208.937 150.701 208.853 150.568 208.75C150.438 208.643 150.328 208.53 150.238 208.41C150.151 208.29 150.08 208.175 150.023 208.065V210.61H149.093ZM151.473 208.38C151.9 208.38 152.248 208.218 152.518 207.895C152.788 207.568 152.923 207.062 152.923 206.375C152.923 205.785 152.8 205.317 152.553 204.97C152.306 204.623 151.946 204.45 151.473 204.45C150.993 204.45 150.63 204.628 150.383 204.985C150.136 205.338 150.013 205.802 150.013 206.375C150.013 206.745 150.068 207.082 150.178 207.385C150.288 207.688 150.451 207.93 150.668 208.11C150.885 208.29 151.153 208.38 151.473 208.38Z" fill="#36536B"/>
<path d="M141.017 209V203.83H141.912V204.58C141.995 204.437 142.11 204.302 142.257 204.175C142.407 204.048 142.587 203.947 142.797 203.87C143.01 203.793 143.255 203.755 143.532 203.755C143.859 203.755 144.159 203.82 144.432 203.95C144.709 204.08 144.929 204.283 145.092 204.56C145.259 204.833 145.342 205.187 145.342 205.62V209H144.417V205.71C144.417 205.307 144.31 205.008 144.097 204.815C143.887 204.618 143.614 204.52 143.277 204.52C143.044 204.52 142.825 204.558 142.622 204.635C142.419 204.708 142.254 204.822 142.127 204.975C142 205.125 141.937 205.315 141.937 205.545V209H141.017Z" fill="#36536B"/>
<path d="M136.042 206.63C136.042 206.957 136.096 207.253 136.202 207.52C136.312 207.783 136.477 207.993 136.697 208.15C136.921 208.307 137.199 208.385 137.532 208.385C137.862 208.385 138.146 208.308 138.382 208.155C138.622 208.002 138.776 207.78 138.842 207.49H139.717C139.654 207.84 139.514 208.135 139.297 208.375C139.081 208.615 138.819 208.797 138.512 208.92C138.206 209.04 137.886 209.1 137.552 209.1C137.069 209.1 136.644 208.995 136.277 208.785C135.911 208.575 135.624 208.273 135.417 207.88C135.211 207.487 135.107 207.015 135.107 206.465C135.107 205.922 135.201 205.445 135.387 205.035C135.574 204.625 135.844 204.305 136.197 204.075C136.554 203.845 136.982 203.73 137.482 203.73C137.969 203.73 138.381 203.835 138.717 204.045C139.054 204.255 139.309 204.552 139.482 204.935C139.659 205.315 139.747 205.767 139.747 206.29V206.63H136.042ZM136.047 206.005H138.857C138.857 205.708 138.807 205.442 138.707 205.205C138.607 204.965 138.454 204.777 138.247 204.64C138.044 204.5 137.787 204.43 137.477 204.43C137.154 204.43 136.886 204.508 136.672 204.665C136.462 204.818 136.304 205.017 136.197 205.26C136.094 205.5 136.044 205.748 136.047 206.005Z" fill="#36536B"/>
<path d="M130.407 206.63C130.407 206.957 130.461 207.253 130.567 207.52C130.677 207.783 130.842 207.993 131.062 208.15C131.286 208.307 131.564 208.385 131.897 208.385C132.227 208.385 132.511 208.308 132.747 208.155C132.987 208.002 133.141 207.78 133.207 207.49H134.082C134.019 207.84 133.879 208.135 133.662 208.375C133.446 208.615 133.184 208.797 132.877 208.92C132.571 209.04 132.251 209.1 131.917 209.1C131.434 209.1 131.009 208.995 130.642 208.785C130.276 208.575 129.989 208.273 129.782 207.88C129.576 207.487 129.472 207.015 129.472 206.465C129.472 205.922 129.566 205.445 129.752 205.035C129.939 204.625 130.209 204.305 130.562 204.075C130.919 203.845 131.347 203.73 131.847 203.73C132.334 203.73 132.746 203.835 133.082 204.045C133.419 204.255 133.674 204.552 133.847 204.935C134.024 205.315 134.112 205.767 134.112 206.29V206.63H130.407ZM130.412 206.005H133.222C133.222 205.708 133.172 205.442 133.072 205.205C132.972 204.965 132.819 204.777 132.612 204.64C132.409 204.5 132.152 204.43 131.842 204.43C131.519 204.43 131.251 204.508 131.037 204.665C130.827 204.818 130.669 205.017 130.562 205.26C130.459 205.5 130.409 205.748 130.412 206.005Z" fill="#36536B"/>
<path d="M126.355 209.1C126.052 209.1 125.795 209.06 125.585 208.98C125.378 208.9 125.208 208.798 125.075 208.675C124.942 208.548 124.838 208.42 124.765 208.29C124.692 208.157 124.638 208.04 124.605 207.94L124.505 209H123.8V201.57H124.73V204.65C124.773 204.563 124.838 204.468 124.925 204.365C125.015 204.262 125.13 204.162 125.27 204.065C125.41 203.968 125.575 203.888 125.765 203.825C125.958 203.762 126.178 203.73 126.425 203.73C127.072 203.73 127.585 203.955 127.965 204.405C128.348 204.855 128.54 205.518 128.54 206.395C128.54 206.938 128.458 207.413 128.295 207.82C128.132 208.223 127.888 208.538 127.565 208.765C127.242 208.988 126.838 209.1 126.355 209.1ZM126.19 208.39C126.61 208.39 126.952 208.228 127.215 207.905C127.478 207.578 127.61 207.06 127.61 206.35C127.61 205.747 127.487 205.28 127.24 204.95C126.997 204.617 126.64 204.45 126.17 204.45C125.827 204.45 125.55 204.525 125.34 204.675C125.133 204.822 124.98 205.037 124.88 205.32C124.783 205.603 124.733 205.947 124.73 206.35C124.73 207.073 124.842 207.595 125.065 207.915C125.292 208.232 125.667 208.39 126.19 208.39Z" fill="#36536B"/>
<path d="M118.252 209.1C117.892 209.1 117.557 209.045 117.247 208.935C116.941 208.822 116.686 208.647 116.482 208.41C116.279 208.17 116.151 207.865 116.097 207.495H116.937C116.984 207.698 117.067 207.868 117.187 208.005C117.311 208.138 117.464 208.24 117.647 208.31C117.831 208.377 118.031 208.41 118.247 208.41C118.594 208.41 118.874 208.345 119.087 208.215C119.301 208.085 119.407 207.885 119.407 207.615C119.407 207.425 119.351 207.273 119.237 207.16C119.127 207.043 118.956 206.958 118.722 206.905L117.652 206.64C117.236 206.54 116.902 206.383 116.652 206.17C116.402 205.957 116.277 205.658 116.277 205.275C116.274 204.972 116.346 204.705 116.492 204.475C116.639 204.245 116.859 204.063 117.152 203.93C117.446 203.797 117.811 203.73 118.247 203.73C118.807 203.73 119.259 203.857 119.602 204.11C119.949 204.36 120.129 204.728 120.142 205.215H119.327C119.294 204.968 119.182 204.773 118.992 204.63C118.806 204.483 118.554 204.41 118.237 204.41C117.907 204.41 117.639 204.477 117.432 204.61C117.226 204.74 117.122 204.943 117.122 205.22C117.122 205.403 117.196 205.548 117.342 205.655C117.489 205.758 117.706 205.845 117.992 205.915L119.027 206.175C119.267 206.238 119.464 206.322 119.617 206.425C119.774 206.528 119.897 206.643 119.987 206.77C120.081 206.897 120.146 207.03 120.182 207.17C120.222 207.307 120.242 207.438 120.242 207.565C120.242 207.882 120.162 208.155 120.002 208.385C119.846 208.612 119.619 208.788 119.322 208.915C119.029 209.038 118.672 209.1 118.252 209.1Z" fill="#36536B"/>
<path d="M112.281 209.1C111.948 209.1 111.653 209.042 111.396 208.925C111.139 208.805 110.938 208.633 110.791 208.41C110.648 208.187 110.576 207.917 110.576 207.6C110.576 207.027 110.776 206.6 111.176 206.32C111.576 206.04 112.218 205.89 113.101 205.87L114.026 205.845V205.44C114.026 205.123 113.931 204.873 113.741 204.69C113.551 204.503 113.256 204.41 112.856 204.41C112.559 204.413 112.298 204.483 112.071 204.62C111.848 204.757 111.703 204.98 111.636 205.29H110.821C110.841 204.953 110.936 204.67 111.106 204.44C111.276 204.207 111.513 204.03 111.816 203.91C112.123 203.79 112.484 203.73 112.901 203.73C113.351 203.73 113.724 203.793 114.021 203.92C114.321 204.047 114.544 204.233 114.691 204.48C114.841 204.727 114.916 205.03 114.916 205.39V209H114.126L114.061 208.03C113.861 208.433 113.606 208.713 113.296 208.87C112.989 209.023 112.651 209.1 112.281 209.1ZM112.561 208.435C112.734 208.435 112.906 208.403 113.076 208.34C113.249 208.277 113.408 208.192 113.551 208.085C113.694 207.975 113.808 207.853 113.891 207.72C113.978 207.583 114.023 207.443 114.026 207.3V206.415L113.256 206.43C112.863 206.437 112.533 206.477 112.266 206.55C112.003 206.623 111.804 206.738 111.671 206.895C111.541 207.052 111.476 207.257 111.476 207.51C111.476 207.8 111.576 208.027 111.776 208.19C111.979 208.353 112.241 208.435 112.561 208.435Z" fill="#36536B"/>
<path d="M105.109 209V201.57H106.009V204.59C106.095 204.447 106.212 204.313 106.359 204.19C106.505 204.063 106.684 203.962 106.894 203.885C107.104 203.805 107.347 203.765 107.624 203.765C107.96 203.765 108.265 203.828 108.539 203.955C108.812 204.078 109.029 204.255 109.189 204.485C109.349 204.715 109.429 204.988 109.429 205.305V209H108.504V205.49C108.504 205.18 108.397 204.942 108.184 204.775C107.974 204.605 107.699 204.52 107.359 204.52C107.129 204.52 106.912 204.558 106.709 204.635C106.505 204.708 106.34 204.822 106.214 204.975C106.09 205.125 106.029 205.317 106.029 205.55V209H105.109Z" fill="#36536B"/>
<path d="M101.476 204.505H100.311V207.72C100.311 207.903 100.329 208.038 100.366 208.125C100.406 208.208 100.471 208.262 100.561 208.285C100.654 208.308 100.781 208.32 100.941 208.32H101.506V208.94C101.442 208.963 101.346 208.983 101.216 209C101.089 209.017 100.931 209.025 100.741 209.025C100.384 209.025 100.107 208.977 99.9105 208.88C99.7139 208.783 99.5755 208.64 99.4955 208.45C99.4189 208.26 99.3805 208.027 99.3805 207.75V204.505H98.5405V203.83H99.4055L99.6305 202.325H100.311V203.825H101.476V204.505Z" fill="#36536B"/>
<path d="M93.3215 209V203.83H94.2165V204.58C94.2999 204.437 94.4149 204.302 94.5615 204.175C94.7115 204.048 94.8915 203.947 95.1015 203.87C95.3149 203.793 95.5599 203.755 95.8365 203.755C96.1632 203.755 96.4632 203.82 96.7365 203.95C97.0132 204.08 97.2332 204.283 97.3965 204.56C97.5632 204.833 97.6465 205.187 97.6465 205.62V209H96.7215V205.71C96.7215 205.307 96.6149 205.008 96.4015 204.815C96.1915 204.618 95.9182 204.52 95.5815 204.52C95.3482 204.52 95.1299 204.558 94.9265 204.635C94.7232 204.708 94.5582 204.822 94.4315 204.975C94.3049 205.125 94.2415 205.315 94.2415 205.545V209H93.3215Z" fill="#36536B"/>
<path d="M88.3469 206.63C88.3469 206.957 88.4002 207.253 88.5069 207.52C88.6169 207.783 88.7819 207.993 89.0019 208.15C89.2252 208.307 89.5035 208.385 89.8369 208.385C90.1669 208.385 90.4502 208.308 90.6869 208.155C90.9269 208.002 91.0802 207.78 91.1469 207.49H92.0219C91.9585 207.84 91.8185 208.135 91.6019 208.375C91.3852 208.615 91.1235 208.797 90.8169 208.92C90.5102 209.04 90.1902 209.1 89.8569 209.1C89.3735 209.1 88.9485 208.995 88.5819 208.785C88.2152 208.575 87.9285 208.273 87.7219 207.88C87.5152 207.487 87.4119 207.015 87.4119 206.465C87.4119 205.922 87.5052 205.445 87.6919 205.035C87.8785 204.625 88.1485 204.305 88.5019 204.075C88.8585 203.845 89.2869 203.73 89.7869 203.73C90.2735 203.73 90.6852 203.835 91.0219 204.045C91.3585 204.255 91.6135 204.552 91.7869 204.935C91.9635 205.315 92.0519 205.767 92.0519 206.29V206.63H88.3469ZM88.3519 206.005H91.1619C91.1619 205.708 91.1119 205.442 91.0119 205.205C90.9119 204.965 90.7585 204.777 90.5519 204.64C90.3485 204.5 90.0919 204.43 89.7819 204.43C89.4585 204.43 89.1902 204.508 88.9769 204.665C88.7669 204.818 88.6085 205.017 88.5019 205.26C88.3985 205.5 88.3485 205.748 88.3519 206.005Z" fill="#36536B"/>
<path d="M79.0344 209V203.83H79.9244V204.58C80.0678 204.353 80.2644 204.155 80.5144 203.985C80.7644 203.815 81.0894 203.73 81.4894 203.73C81.6761 203.73 81.8661 203.762 82.0594 203.825C82.2561 203.888 82.4361 203.983 82.5994 204.11C82.7628 204.237 82.8894 204.392 82.9794 204.575C83.1394 204.322 83.3561 204.118 83.6294 203.965C83.9028 203.808 84.2111 203.73 84.5544 203.73C84.7344 203.73 84.9228 203.758 85.1194 203.815C85.3161 203.868 85.4978 203.965 85.6644 204.105C85.8344 204.242 85.9728 204.433 86.0794 204.68C86.1861 204.923 86.2394 205.237 86.2394 205.62V209H85.3094V205.71C85.3094 205.397 85.2594 205.155 85.1594 204.985C85.0594 204.812 84.9278 204.69 84.7644 204.62C84.6044 204.55 84.4328 204.515 84.2494 204.515C84.0894 204.515 83.9194 204.547 83.7394 204.61C83.5594 204.673 83.4061 204.78 83.2794 204.93C83.1528 205.08 83.0894 205.285 83.0894 205.545V209H82.1694V205.44C82.1694 205.237 82.1144 205.067 82.0044 204.93C81.8978 204.793 81.7628 204.69 81.5994 204.62C81.4394 204.55 81.2794 204.515 81.1194 204.515C80.9428 204.515 80.7644 204.55 80.5844 204.62C80.4078 204.69 80.2578 204.802 80.1344 204.955C80.0144 205.105 79.9544 205.302 79.9544 205.545V209H79.0344Z" fill="#36536B"/>
<path d="M74.2125 210.65C73.9091 210.65 73.7008 210.628 73.5875 210.585C73.4741 210.542 73.4175 210.52 73.4175 210.52V209.92L73.9425 209.93C74.1358 209.937 74.2958 209.923 74.4225 209.89C74.5491 209.857 74.6508 209.812 74.7275 209.755C74.8041 209.698 74.8625 209.635 74.9025 209.565C74.9458 209.495 74.9808 209.428 75.0075 209.365L75.1875 208.875L73.1675 203.83H74.1025L75.6275 207.82L77.1425 203.83H78.0475L75.8675 209.39C75.7341 209.717 75.5841 209.972 75.4175 210.155C75.2541 210.338 75.0708 210.467 74.8675 210.54C74.6675 210.613 74.4491 210.65 74.2125 210.65Z" fill="#36536B"/>
<path d="M69.654 209.1C69.3206 209.1 69.0256 209.042 68.769 208.925C68.5123 208.805 68.3106 208.633 68.164 208.41C68.0206 208.187 67.949 207.917 67.949 207.6C67.949 207.027 68.149 206.6 68.549 206.32C68.949 206.04 69.5906 205.89 70.474 205.87L71.399 205.845V205.44C71.399 205.123 71.304 204.873 71.114 204.69C70.924 204.503 70.629 204.41 70.229 204.41C69.9323 204.413 69.6706 204.483 69.444 204.62C69.2206 204.757 69.0756 204.98 69.009 205.29H68.194C68.214 204.953 68.309 204.67 68.479 204.44C68.649 204.207 68.8856 204.03 69.189 203.91C69.4956 203.79 69.8573 203.73 70.274 203.73C70.724 203.73 71.0973 203.793 71.394 203.92C71.694 204.047 71.9173 204.233 72.064 204.48C72.214 204.727 72.289 205.03 72.289 205.39V209H71.499L71.434 208.03C71.234 208.433 70.979 208.713 70.669 208.87C70.3623 209.023 70.024 209.1 69.654 209.1ZM69.934 208.435C70.1073 208.435 70.279 208.403 70.449 208.34C70.6223 208.277 70.7806 208.192 70.924 208.085C71.0673 207.975 71.1806 207.853 71.264 207.72C71.3506 207.583 71.3956 207.443 71.399 207.3V206.415L70.629 206.43C70.2356 206.437 69.9056 206.477 69.639 206.55C69.3756 206.623 69.1773 206.738 69.044 206.895C68.914 207.052 68.849 207.257 68.849 207.51C68.849 207.8 68.949 208.027 69.149 208.19C69.3523 208.353 69.614 208.435 69.934 208.435Z" fill="#36536B"/>
<path d="M62.345 210.61V203.83H63.265L63.275 204.73C63.335 204.623 63.4116 204.512 63.505 204.395C63.6016 204.278 63.7183 204.17 63.855 204.07C63.995 203.97 64.1566 203.888 64.34 203.825C64.5266 203.762 64.7383 203.73 64.975 203.73C65.3883 203.73 65.7516 203.825 66.065 204.015C66.3816 204.202 66.6283 204.488 66.805 204.875C66.9816 205.262 67.07 205.752 67.07 206.345C67.07 206.938 66.9833 207.44 66.81 207.85C66.64 208.257 66.3933 208.567 66.07 208.78C65.7466 208.993 65.3566 209.1 64.9 209.1C64.67 209.1 64.465 209.067 64.285 209C64.1083 208.937 63.9533 208.853 63.82 208.75C63.69 208.643 63.58 208.53 63.49 208.41C63.4033 208.29 63.3316 208.175 63.275 208.065V210.61H62.345ZM64.725 208.38C65.1516 208.38 65.5 208.218 65.77 207.895C66.04 207.568 66.175 207.062 66.175 206.375C66.175 205.785 66.0516 205.317 65.805 204.97C65.5583 204.623 65.1983 204.45 64.725 204.45C64.245 204.45 63.8816 204.628 63.635 204.985C63.3883 205.338 63.265 205.802 63.265 206.375C63.265 206.745 63.32 207.082 63.43 207.385C63.54 207.688 63.7033 207.93 63.92 208.11C64.1366 208.29 64.405 208.38 64.725 208.38Z" fill="#36536B"/>
<path d="M55.1242 206.63C55.1242 206.957 55.1775 207.253 55.2842 207.52C55.3942 207.783 55.5592 207.993 55.7792 208.15C56.0025 208.307 56.2809 208.385 56.6142 208.385C56.9442 208.385 57.2275 208.308 57.4642 208.155C57.7042 208.002 57.8575 207.78 57.9242 207.49H58.7992C58.7359 207.84 58.5959 208.135 58.3792 208.375C58.1625 208.615 57.9009 208.797 57.5942 208.92C57.2875 209.04 56.9675 209.1 56.6342 209.1C56.1509 209.1 55.7259 208.995 55.3592 208.785C54.9925 208.575 54.7059 208.273 54.4992 207.88C54.2925 207.487 54.1892 207.015 54.1892 206.465C54.1892 205.922 54.2825 205.445 54.4692 205.035C54.6559 204.625 54.9259 204.305 55.2792 204.075C55.6359 203.845 56.0642 203.73 56.5642 203.73C57.0509 203.73 57.4625 203.835 57.7992 204.045C58.1359 204.255 58.3909 204.552 58.5642 204.935C58.7409 205.315 58.8292 205.767 58.8292 206.29V206.63H55.1242ZM55.1292 206.005H57.9392C57.9392 205.708 57.8892 205.442 57.7892 205.205C57.6892 204.965 57.5359 204.777 57.3292 204.64C57.1259 204.5 56.8692 204.43 56.5592 204.43C56.2359 204.43 55.9675 204.508 55.7542 204.665C55.5442 204.818 55.3859 205.017 55.2792 205.26C55.1759 205.5 55.1259 205.748 55.1292 206.005Z" fill="#36536B"/>
<path d="M48.7024 209V201.57H49.6024V204.59C49.6891 204.447 49.8057 204.313 49.9524 204.19C50.0991 204.063 50.2774 203.962 50.4874 203.885C50.6974 203.805 50.9407 203.765 51.2174 203.765C51.5541 203.765 51.8591 203.828 52.1324 203.955C52.4057 204.078 52.6224 204.255 52.7824 204.485C52.9424 204.715 53.0224 204.988 53.0224 205.305V209H52.0974V205.49C52.0974 205.18 51.9907 204.942 51.7774 204.775C51.5674 204.605 51.2924 204.52 50.9524 204.52C50.7224 204.52 50.5057 204.558 50.3024 204.635C50.0991 204.708 49.9341 204.822 49.8074 204.975C49.6841 205.125 49.6224 205.317 49.6224 205.55V209H48.7024Z" fill="#36536B"/>
<path d="M42.23 202.62V201.77H47.7V202.62H45.495V209H44.565V202.62H42.23Z" fill="#36536B"/>
</g>
</g>
<defs>
<filter id="filter0_d_6427_107" x="2.56787" y="0.569458" width="265.649" height="506.861" filterUnits="userSpaceOnUse" color-interpolation-filters="sRGB">
<feFlood flood-opacity="0" result="BackgroundImageFix"/>
<feColorMatrix in="SourceAlpha" type="matrix" values="0 0 0 0 0 0 0 0 0 0 0 0 0 0 0 0 0 0 127 0" result="hardAlpha"/>
<feOffset dy="4"/>
<feGaussianBlur stdDeviation="2"/>
<feComposite in2="hardAlpha" operator="out"/>
<feColorMatrix type="matrix" values="0 0 0 0 0 0 0 0 0 0 0 0 0 0 0 0 0 0 0.25 0"/>
<feBlend mode="normal" in2="BackgroundImageFix" result="effect1_dropShadow_6427_107"/>
<feBlend mode="normal" in="SourceGraphic" in2="effect1_dropShadow_6427_107" result="shape"/>
</filter>
<filter id="filter1_d_6427_107" x="10.0146" y="0" width="250.642" height="20.324" filterUnits="userSpaceOnUse" color-interpolation-filters="sRGB">
<feFlood flood-opacity="0" result="BackgroundImageFix"/>
<feColorMatrix in="SourceAlpha" type="matrix" values="0 0 0 0 0 0 0 0 0 0 0 0 0 0 0 0 0 0 127 0" result="hardAlpha"/>
<feOffset dy="4"/>
<feGaussianBlur stdDeviation="2"/>
<feComposite in2="hardAlpha" operator="out"/>
<feColorMatrix type="matrix" values="0 0 0 0 0 0 0 0 0 0 0 0 0 0 0 0 0 0 0.25 0"/>
<feBlend mode="normal" in2="BackgroundImageFix" result="effect1_dropShadow_6427_107"/>
<feBlend mode="normal" in="SourceGraphic" in2="effect1_dropShadow_6427_107" result="shape"/>
</filter>
<filter id="filter2_d_6427_107" x="246.451" y="13.4977" width="21.6526" height="478.657" filterUnits="userSpaceOnUse" color-interpolation-filters="sRGB">
<feFlood flood-opacity="0" result="BackgroundImageFix"/>
<feColorMatrix in="SourceAlpha" type="matrix" values="0 0 0 0 0 0 0 0 0 0 0 0 0 0 0 0 0 0 127 0" result="hardAlpha"/>
<feOffset dy="4"/>
<feGaussianBlur stdDeviation="2"/>
<feComposite in2="hardAlpha" operator="out"/>
<feColorMatrix type="matrix" values="0 0 0 0 0 0 0 0 0 0 0 0 0 0 0 0 0 0 0.25 0"/>
<feBlend mode="normal" in2="BackgroundImageFix" result="effect1_dropShadow_6427_107"/>
<feBlend mode="normal" in="SourceGraphic" in2="effect1_dropShadow_6427_107" result="shape"/>
</filter>
<filter id="filter3_d_6427_107" x="2.56787" y="13.4977" width="21.6526" height="478.657" filterUnits="userSpaceOnUse" color-interpolation-filters="sRGB">
<feFlood flood-opacity="0" result="BackgroundImageFix"/>
<feColorMatrix in="SourceAlpha" type="matrix" values="0 0 0 0 0 0 0 0 0 0 0 0 0 0 0 0 0 0 127 0" result="hardAlpha"/>
<feOffset dy="4"/>
<feGaussianBlur stdDeviation="2"/>
<feComposite in2="hardAlpha" operator="out"/>
<feColorMatrix type="matrix" values="0 0 0 0 0 0 0 0 0 0 0 0 0 0 0 0 0 0 0.25 0"/>
<feBlend mode="normal" in2="BackgroundImageFix" result="effect1_dropShadow_6427_107"/>
<feBlend mode="normal" in="SourceGraphic" in2="effect1_dropShadow_6427_107" result="shape"/>
</filter>
<filter id="filter4_d_6427_107" x="0" y="101.557" width="12.9646" height="72.3508" filterUnits="userSpaceOnUse" color-interpolation-filters="sRGB">
<feFlood flood-opacity="0" result="BackgroundImageFix"/>
<feColorMatrix in="SourceAlpha" type="matrix" values="0 0 0 0 0 0 0 0 0 0 0 0 0 0 0 0 0 0 127 0" result="hardAlpha"/>
<feOffset dy="4"/>
<feGaussianBlur stdDeviation="2"/>
<feComposite in2="hardAlpha" operator="out"/>
<feColorMatrix type="matrix" values="0 0 0 0 0 0 0 0 0 0 0 0 0 0 0 0 0 0 0.25 0"/>
<feBlend mode="normal" in2="BackgroundImageFix" result="effect1_dropShadow_6427_107"/>
<feBlend mode="normal" in="SourceGraphic" in2="effect1_dropShadow_6427_107" result="shape"/>
</filter>
<filter id="filter5_d_6427_107" x="257.535" y="154.043" width="12.9646" height="54.9501" filterUnits="userSpaceOnUse" color-interpolation-filters="sRGB">
<feFlood flood-opacity="0" result="BackgroundImageFix"/>
<feColorMatrix in="SourceAlpha" type="matrix" values="0 0 0 0 0 0 0 0 0 0 0 0 0 0 0 0 0 0 127 0" result="hardAlpha"/>
<feOffset dy="4"/>
<feGaussianBlur stdDeviation="2"/>
<feComposite in2="hardAlpha" operator="out"/>
<feColorMatrix type="matrix" values="0 0 0 0 0 0 0 0 0 0 0 0 0 0 0 0 0 0 0.25 0"/>
<feBlend mode="normal" in2="BackgroundImageFix" result="effect1_dropShadow_6427_107"/>
<feBlend mode="normal" in="SourceGraphic" in2="effect1_dropShadow_6427_107" result="shape"/>
</filter>
<filter id="filter6_d_6427_107" x="15.0742" y="12.4445" width="240.611" height="472.123" filterUnits="userSpaceOnUse" color-interpolation-filters="sRGB">
<feFlood flood-opacity="0" result="BackgroundImageFix"/>
<feColorMatrix in="SourceAlpha" type="matrix" values="0 0 0 0 0 0 0 0 0 0 0 0 0 0 0 0 0 0 127 0" result="hardAlpha"/>
<feOffset dy="4"/>
<feGaussianBlur stdDeviation="2"/>
<feComposite in2="hardAlpha" operator="out"/>
<feColorMatrix type="matrix" values="0 0 0 0 0 0 0 0 0 0 0 0 0 0 0 0 0 0 0.25 0"/>
<feBlend mode="normal" in2="BackgroundImageFix" result="effect1_dropShadow_6427_107"/>
<feBlend mode="normal" in="SourceGraphic" in2="effect1_dropShadow_6427_107" result="shape"/>
</filter>
<filter id="filter7_d_6427_107" x="15" y="12.4445" width="241" height="473" filterUnits="userSpaceOnUse" color-interpolation-filters="sRGB">
<feFlood flood-opacity="0" result="BackgroundImageFix"/>
<feColorMatrix in="SourceAlpha" type="matrix" values="0 0 0 0 0 0 0 0 0 0 0 0 0 0 0 0 0 0 127 0" result="hardAlpha"/>
<feOffset dy="4"/>
<feGaussianBlur stdDeviation="2"/>
<feComposite in2="hardAlpha" operator="out"/>
<feColorMatrix type="matrix" values="0 0 0 0 0 0 0 0 0 0 0 0 0 0 0 0 0 0 0.25 0"/>
<feBlend mode="normal" in2="BackgroundImageFix" result="effect1_dropShadow_6427_107"/>
<feBlend mode="normal" in="SourceGraphic" in2="effect1_dropShadow_6427_107" result="shape"/>
</filter>
<filter id="filter8_d_6427_107" x="90.376" y="117.544" width="89.8352" height="31.808" filterUnits="userSpaceOnUse" color-interpolation-filters="sRGB">
<feFlood flood-opacity="0" result="BackgroundImageFix"/>
<feColorMatrix in="SourceAlpha" type="matrix" values="0 0 0 0 0 0 0 0 0 0 0 0 0 0 0 0 0 0 127 0" result="hardAlpha"/>
<feOffset dy="4"/>
<feGaussianBlur stdDeviation="2"/>
<feComposite in2="hardAlpha" operator="out"/>
<feColorMatrix type="matrix" values="0 0 0 0 0 0 0 0 0 0 0 0 0 0 0 0 0 0 0.25 0"/>
<feBlend mode="normal" in2="BackgroundImageFix" result="effect1_dropShadow_6427_107"/>
<feBlend mode="normal" in="SourceGraphic" in2="effect1_dropShadow_6427_107" result="shape"/>
</filter>
<filter id="filter9_d_6427_107" x="22" y="167" width="226" height="95" filterUnits="userSpaceOnUse" color-interpolation-filters="sRGB">
<feFlood flood-opacity="0" result="BackgroundImageFix"/>
<feColorMatrix in="SourceAlpha" type="matrix" values="0 0 0 0 0 0 0 0 0 0 0 0 0 0 0 0 0 0 127 0" result="hardAlpha"/>
<feOffset dy="4"/>
<feGaussianBlur stdDeviation="2"/>
<feComposite in2="hardAlpha" operator="out"/>
<feColorMatrix type="matrix" values="0 0 0 0 0 0 0 0 0 0 0 0 0 0 0 0 0 0 0.25 0"/>
<feBlend mode="normal" in2="BackgroundImageFix" result="effect1_dropShadow_6427_107"/>
<feBlend mode="normal" in="SourceGraphic" in2="effect1_dropShadow_6427_107" result="shape"/>
</filter>
<filter id="filter10_d_6427_107" x="38.8101" y="185.77" width="40.1973" height="16.88" filterUnits="userSpaceOnUse" color-interpolation-filters="sRGB">
<feFlood flood-opacity="0" result="BackgroundImageFix"/>
<feColorMatrix in="SourceAlpha" type="matrix" values="0 0 0 0 0 0 0 0 0 0 0 0 0 0 0 0 0 0 127 0" result="hardAlpha"/>
<feOffset dy="4"/>
<feGaussianBlur stdDeviation="2"/>
<feComposite in2="hardAlpha" operator="out"/>
<feColorMatrix type="matrix" values="0 0 0 0 0 0 0 0 0 0 0 0 0 0 0 0 0 0 0.25 0"/>
<feBlend mode="normal" in2="BackgroundImageFix" result="effect1_dropShadow_6427_107"/>
<feBlend mode="normal" in="SourceGraphic" in2="effect1_dropShadow_6427_107" result="shape"/>
</filter>
<filter id="filter11_d_6427_107" x="182.904" y="185.77" width="48.9292" height="15.3303" filterUnits="userSpaceOnUse" color-interpolation-filters="sRGB">
<feFlood flood-opacity="0" result="BackgroundImageFix"/>
<feColorMatrix in="SourceAlpha" type="matrix" values="0 0 0 0 0 0 0 0 0 0 0 0 0 0 0 0 0 0 127 0" result="hardAlpha"/>
<feOffset dy="4"/>
<feGaussianBlur stdDeviation="2"/>
<feComposite in2="hardAlpha" operator="out"/>
<feColorMatrix type="matrix" values="0 0 0 0 0 0 0 0 0 0 0 0 0 0 0 0 0 0 0.25 0"/>
<feBlend mode="normal" in2="BackgroundImageFix" result="effect1_dropShadow_6427_107"/>
<feBlend mode="normal" in="SourceGraphic" in2="effect1_dropShadow_6427_107" result="shape"/>
</filter>
<filter id="filter12_d_6427_107" x="38.23" y="201.57" width="183.486" height="44.385" filterUnits="userSpaceOnUse" color-interpolation-filters="sRGB">
<feFlood flood-opacity="0" result="BackgroundImageFix"/>
<feColorMatrix in="SourceAlpha" type="matrix" values="0 0 0 0 0 0 0 0 0 0 0 0 0 0 0 0 0 0 127 0" result="hardAlpha"/>
<feOffset dy="4"/>
<feGaussianBlur stdDeviation="2"/>
<feComposite in2="hardAlpha" operator="out"/>
<feColorMatrix type="matrix" values="0 0 0 0 0 0 0 0 0 0 0 0 0 0 0 0 0 0 0.25 0"/>
<feBlend mode="normal" in2="BackgroundImageFix" result="effect1_dropShadow_6427_107"/>
<feBlend mode="normal" in="SourceGraphic" in2="effect1_dropShadow_6427_107" result="shape"/>
</filter>
<linearGradient id="paint0_linear_6427_107" x1="14.0146" y1="0" x2="14.0146" y2="12.3239" gradientUnits="userSpaceOnUse">
<stop stop-color="#454545"/>
<stop offset="0.226279" stop-color="#999999"/>
<stop offset="1" stop-color="white"/>
</linearGradient>
<linearGradient id="paint1_linear_6427_107" x1="264.103" y1="85.7474" x2="254.642" y2="85.7474" gradientUnits="userSpaceOnUse">
<stop stop-color="white" stop-opacity="0.01"/>
<stop offset="0.222178" stop-color="#BABABA"/>
<stop offset="0.54678" stop-color="white" stop-opacity="0.01"/>
<stop offset="1" stop-color="white" stop-opacity="0.01"/>
</linearGradient>
<linearGradient id="paint2_linear_6427_107" x1="6.56798" y1="85.4868" x2="16.044" y2="85.4868" gradientUnits="userSpaceOnUse">
<stop stop-color="white" stop-opacity="0.01"/>
<stop offset="0.222178" stop-color="#BABABA"/>
<stop offset="0.54678" stop-color="white" stop-opacity="0.01"/>
<stop offset="1" stop-color="white" stop-opacity="0.01"/>
</linearGradient>
<linearGradient id="paint3_linear_6427_107" x1="19.907" y1="12.4445" x2="19.907" y2="473.824" gradientUnits="userSpaceOnUse">
<stop stop-color="#9CB6CD"/>
<stop offset="0.420564" stop-color="#9AB3CA"/>
<stop offset="0.716592" stop-color="#557496"/>
<stop offset="1" stop-color="#475178"/>
</linearGradient>
<clipPath id="clip0_6427_107">
<rect width="233" height="465" fill="white" transform="translate(19.0742 12.4445)"/>
</clipPath>
<clipPath id="clip1_6427_107">
<rect width="218" height="87" fill="white" transform="translate(26 167)"/>
</clipPath>
<clipPath id="clip2_6427_107">
<rect width="187" height="11" fill="white" transform="translate(42 183)"/>
</clipPath>
</defs>
</svg>
